<svg xmlns="http://www.w3.org/2000/svg" width="50" height="50" viewBox="0 0 50 50"><defs><style>.a{fill:#fff;}.a,.b{stroke:#c22026;}.b,.d{fill:none;}.b{stroke-linecap:round;stroke-linejoin:round;}.c{stroke:none;}</style></defs><g transform="translate(-94 -453)"><g class="a" transform="translate(94 453)"><circle class="c" cx="25" cy="25" r="25"/><circle class="d" cx="25" cy="25" r="24.5"/></g><path class="b" d="M25.758,16.22l-1.444-1.444a2.864,2.864,0,0,1-.535-.744l-1.374-2.747a.527.527,0,0,0-.843-.136,1.052,1.052,0,0,1-1.033.267l-1.619-.462a1.132,1.132,0,0,0-.939,2.029l.747.5a1.432,1.432,0,0,1,.219,2.2l-.254.254a1.431,1.431,0,0,0-.42,1.012v.521a2.854,2.854,0,0,1-.407,1.473L16.183,21.73a2.684,2.684,0,0,1-2.3,1.3,1.342,1.342,0,0,1-1.342-1.342V20.2a2.862,2.862,0,0,0-1.8-2.657l-.833-.332a2.862,2.862,0,0,1-1.759-3.129l.009-.053a2.862,2.862,0,0,1,.369-1l.114-.191A2.862,2.862,0,0,1,11.655,11.5l1.5.3a1.431,1.431,0,0,0,1.656-1.011l.265-.928a1.431,1.431,0,0,0-.735-1.673l-.846-.422-.116.116a2.862,2.862,0,0,1-2.024.838h-.229a1.2,1.2,0,0,0-.842.348A1.184,1.184,0,0,1,8.428,7.627l1.795-2.993a2.862,2.862,0,0,0,.364-.967M25.758,16.22A11.447,11.447,0,0,0,10.587,3.669M25.758,16.22A11.447,11.447,0,1,1,10.587,3.669" transform="translate(104.355 463.359)"/></g></svg>