<svg xmlns="http://www.w3.org/2000/svg" width="50" height="50" viewBox="0 0 50 50"><defs><style>.a{fill:#fff;}.a,.b{stroke:#c22026;}.b,.d{fill:none;}.b{stroke-linecap:round;stroke-linejoin:round;}.c{stroke:none;}</style></defs><g transform="translate(-173 -453)"><g class="a" transform="translate(173 453)"><circle class="c" cx="25" cy="25" r="25"/><circle class="d" cx="25" cy="25" r="24.5"/></g><path class="b" d="M2.25,21.51a71.707,71.707,0,0,1,18.857,2.508,1.368,1.368,0,0,0,1.734-1.308v-1.2M4.041,4.5v.9a.9.9,0,0,1-.9.9h-.9m0,0V5.843A1.343,1.343,0,0,1,3.593,4.5H23.737M2.25,6.291V17.034M23.737,4.5v.9a.9.9,0,0,0,.9.9h.9M23.737,4.5h.448a1.343,1.343,0,0,1,1.343,1.343V17.482a1.343,1.343,0,0,1-1.343,1.343h-.448m1.791-1.791h-.9a.9.9,0,0,0-.9.9v.9m0,0H4.041m0,0H3.593A1.343,1.343,0,0,1,2.25,17.482v-.448m1.791,1.791v-.9a.9.9,0,0,0-.9-.9h-.9m15.22-5.372a3.581,3.581,0,1,1-3.581-3.581A3.581,3.581,0,0,1,17.47,11.662Zm3.581,0h.01v.01h-.01Zm-14.325,0h.01v.01h-.01Z" transform="translate(184.106 465.281)"/></g></svg>