<svg xmlns="http://www.w3.org/2000/svg" width="226" height="252" viewBox="0 0 226 252">
  <g id="Group_7621" data-name="Group 7621" transform="translate(-79 -30.514)">
    <path id="Path_86306" data-name="Path 86306" d="M80.624,54.586h4.867L189.858,194.058h-213.6Zm44.343,126.494L60.8,96.962-3.915,181.079H124.967Z" transform="translate(108.743 -24.072)" fill="#c22026"/>
    <path id="Path_86305" data-name="Path 86305" d="M-88.386,9.114V-46.213h15.278q29.245,0,29.245,26.969,0,12.809-8.122,20.584T-73.725,9.114ZM-81.9-40.348v43.6h8.257q10.88,0,16.938-5.826t6.057-16.513q0-21.259-22.609-21.259ZM-.657,9.114H-29.98V-46.213H-1.892v5.864H-23.5v18.4H-3.512v5.826H-23.5V3.249H-.657Zm42.356,0H12.994V-46.213h6.482V3.249H41.7ZM80.506-40.348H64.533V9.114H58.051V-40.348H42.116v-5.864H80.506ZM129.614,9.114h-7.176L116.573-6.4H93.115L87.6,9.114H80.383L101.6-46.213h6.713ZM114.451-12.222,105.77-35.8a22.573,22.573,0,0,1-.849-3.7h-.154a20.665,20.665,0,0,1-.887,3.7l-8.6,23.574Z" transform="translate(171.386 225.727)" fill="#c22026"/>
    <text id="Distribution_Engagement_leadership_Travel_Awards" data-name="Distribution Engagement,
leadership, Travel &amp; Awards" transform="translate(192 258.514)" fill="#c22026" font-size="14" font-family="SegoeUI-Semibold, Segoe UI" font-weight="600" letter-spacing="0.038em"><tspan x="-103.135" y="0">DISTRIBUTION</tspan><tspan y="0" font-family="DirectorDevanagari-Bold, Director Devanagari" font-weight="700"> </tspan><tspan y="0">ENGAGEMENT</tspan><tspan y="0" font-family="DirectorDevanagari-Bold, Director Devanagari" font-weight="700">,</tspan><tspan x="-112.495" y="18">LEADERSHIP</tspan><tspan y="18" font-family="DirectorDevanagari-Bold, Director Devanagari" font-weight="700">, </tspan><tspan y="18">TRAVEL</tspan><tspan y="18" xml:space="preserve" font-family="DirectorDevanagari-Bold, Director Devanagari" font-weight="700"> &amp; </tspan><tspan y="18">AWARDS</tspan></text>
  </g>
</svg>
