<svg xmlns="http://www.w3.org/2000/svg" xmlns:xlink="http://www.w3.org/1999/xlink" width="256" height="256" viewBox="0 0 256 256"><defs><linearGradient id="a" x1="0.5" x2="0.5" y2="1" gradientUnits="objectBoundingBox"><stop offset="0" stop-color="#b52019"/><stop offset="1" stop-color="#8d1706"/></linearGradient><clipPath id="d"><rect width="256" height="256"/></clipPath></defs><g id="c" clip-path="url(#d)"><rect width="256" height="256" fill="url(#a)"/><path d="M70,0H186a70,70,0,0,1,70,70v65a0,0,0,0,1,0,0H0a0,0,0,0,1,0,0V70A70,70,0,0,1,70,0Z" transform="translate(0 121)" fill="#fff"/><g transform="translate(-332.73 -24.903)"><path d="M361.317,195.717h-1.6V184.149h-3.254v-1.418h8.132v1.418h-3.276Z" transform="translate(-1.107 -58.317)" fill="#fff"/><path d="M377.673,188.944c0,3,.292,5.439,2.51,5.439s2.516-2.437,2.516-5.439-.3-5.441-2.516-5.441-2.51,2.441-2.51,5.441m6.7,0c0,3.275-.6,6.75-4.187,6.75S376,192.219,376,188.944s.6-6.747,4.182-6.747,4.188,3.472,4.188,6.747" transform="translate(-11.319 -58.037)" fill="#fff"/><path d="M400.9,195.717h-1.6V184.149h-3.254v-1.418h8.13v1.418H400.9Z" transform="translate(-21.793 -58.317)" fill="#fff"/><path d="M414.317,190.843h3.49l-1.651-6.277h-.038Zm.781-8.113h2.147l3.49,12.986h-1.673l-.926-3.564h-4.144l-.968,3.564h-1.674Z" transform="translate(-29.794 -58.316)" fill="#fff"/><path d="M433.291,182.73h1.6V194.3h5.276v1.418h-6.877Z" transform="translate(-41.261 -58.316)" fill="#fff"/><rect width="1.6" height="12.986" transform="translate(404.831 124.414)" fill="#fff"/><path d="M468.254,182.73h2.076l4.291,10.842h.036V182.73h1.6v12.986h-2.205L469.895,185.2h-.038v10.512h-1.6Z" transform="translate(-59.534 -58.316)" fill="#fff"/><path d="M494.789,185.816c0-1.363-.489-2.313-2.018-2.313a1.927,1.927,0,0,0-2.144,2.112c0,3.658,6.126,1.475,6.126,6.222,0,3-2.2,3.856-4.033,3.856-3.04,0-3.934-1.563-3.934-4.328h1.6c0,1.454.093,3.017,2.439,3.017a2.187,2.187,0,0,0,2.257-2.291c0-3.674-6.129-1.545-6.129-6.311,0-1.2.506-3.584,3.8-3.584,2.472,0,3.6,1.236,3.634,3.62h-1.6" transform="translate(-70.264 -58.037)" fill="#fff"/><path d="M508.934,182.73h1.606v9.13c0,1.912.612,2.8,2.2,2.8,1.706,0,2.218-.982,2.218-2.8v-9.13h1.6v9.13c0,2.494-1.271,4.113-3.816,4.113-2.6,0-3.808-1.439-3.808-4.113v-9.13" transform="translate(-80.794 -58.316)" fill="#fff"/><path d="M530.992,188.624h1.584c.947,0,2.674,0,2.674-2.513,0-1.272-.855-2.073-2.346-2.073h-1.911v4.586m-1.6-5.894h4.2a3.039,3.039,0,0,1,3.33,3.256c0,1.416-.494,2.912-2,3.273v.037a2.136,2.136,0,0,1,1.838,2.163l.108,2.219c.072,1.44.312,1.8.692,2.037h-1.928a3.949,3.949,0,0,1-.438-1.872l-.106-2.02c-.128-1.783-1.112-1.888-1.93-1.888h-2.166v5.781h-1.6Z" transform="translate(-91.486 -58.316)" fill="#fff"/><path d="M549.994,190.843h3.495l-1.655-6.277H551.8Zm.784-8.113h2.145l3.493,12.986h-1.673l-.927-3.564h-4.148l-.965,3.564H547.03Z" transform="translate(-100.705 -58.316)" fill="#fff"/><path d="M568.974,182.73h2.072l4.292,10.842h.036V182.73h1.6v12.986h-2.2L570.61,185.2h-.038v10.512h-1.6Z" transform="translate(-112.173 -58.316)" fill="#fff"/><path d="M598.282,190.982c-.147,2.455-1.109,4.711-3.946,4.711-3.693,0-4.184-3.475-4.184-6.75s.6-6.747,4.184-6.747c2.657,0,3.761,1.492,3.836,4.037H596.5c-.036-1.473-.508-2.731-2.163-2.731-2.221,0-2.512,2.44-2.512,5.441s.292,5.439,2.512,5.439c1.946,0,2.214-1.818,2.274-3.4h1.672" transform="translate(-123.241 -58.037)" fill="#fff"/><path d="M610.677,182.73h6.713v1.418h-5.11v4.076h4.82v1.418h-4.82V194.3h5.331v1.418h-6.934Z" transform="translate(-133.969 -58.316)" fill="#fff"/><path d="M643.2,185.816c0-1.363-.491-2.313-2.018-2.313a1.928,1.928,0,0,0-2.148,2.112c0,3.658,6.129,1.475,6.129,6.222,0,3-2.2,3.856-4.037,3.856-3.039,0-3.927-1.563-3.927-4.328h1.6c0,1.454.093,3.017,2.439,3.017a2.188,2.188,0,0,0,2.255-2.291c0-3.674-6.13-1.545-6.13-6.311,0-1.2.51-3.584,3.8-3.584,2.471,0,3.6,1.236,3.636,3.62h-1.6" transform="translate(-147.828 -58.037)" fill="#fff"/><path d="M658.939,188.944c0,3,.293,5.439,2.514,5.439s2.5-2.437,2.5-5.439-.285-5.441-2.5-5.441-2.514,2.441-2.514,5.441m6.694,0c0,3.275-.6,6.75-4.18,6.75s-4.186-3.476-4.186-6.75.6-6.747,4.186-6.747,4.18,3.472,4.18,6.747" transform="translate(-158.318 -58.037)" fill="#fff"/><path d="M679.206,182.73h1.6V194.3h5.276v1.418h-6.877Z" transform="translate(-169.784 -58.316)" fill="#fff"/><path d="M696.192,182.73h1.6v9.13c0,1.912.621,2.8,2.2,2.8,1.714,0,2.221-.982,2.221-2.8v-9.13h1.6v9.13c0,2.494-1.27,4.113-3.82,4.113-2.6,0-3.8-1.439-3.8-4.113v-9.13" transform="translate(-178.662 -58.316)" fill="#fff"/><path d="M719.6,195.717H718V184.149h-3.255v-1.418h8.13v1.418H719.6Z" transform="translate(-188.356 -58.317)" fill="#fff"/><rect width="1.6" height="12.986" transform="translate(535.901 124.414)" fill="#fff"/><path d="M743.347,188.944c0,3,.292,5.439,2.512,5.439s2.513-2.437,2.513-5.439-.3-5.441-2.513-5.441-2.512,2.441-2.512,5.441m6.7,0c0,3.275-.6,6.75-4.185,6.75s-4.184-3.476-4.184-6.75.6-6.747,4.184-6.747,4.185,3.472,4.185,6.747" transform="translate(-202.432 -58.037)" fill="#fff"/><path d="M762.853,182.73h2.074l4.291,10.842h.033V182.73h1.607v12.986h-2.2L764.491,185.2h-.036v10.512h-1.6Z" transform="translate(-213.501 -58.316)" fill="#fff"/><path d="M789.384,185.816c0-1.363-.493-2.313-2.015-2.313a1.928,1.928,0,0,0-2.148,2.112c0,3.658,6.127,1.475,6.127,6.222,0,3-2.2,3.856-4.034,3.856-3.039,0-3.932-1.563-3.932-4.328h1.6c0,1.454.093,3.017,2.442,3.017a2.185,2.185,0,0,0,2.252-2.291c0-3.674-6.127-1.545-6.127-6.311,0-1.2.507-3.584,3.8-3.584,2.472,0,3.6,1.236,3.636,3.62h-1.6" transform="translate(-224.23 -58.037)" fill="#fff"/><path d="M582.72,135.337l.018-8.564c5.365,0,7.331-.265,8.268,6.314h.565v-7.324l-14.613,0v1.006h2.531v18.844H576.7v.994H591.76v-7.7h-.755c-.752,5.823-2.227,6.709-6.364,6.709H582.72v-9.154h1.114c1.859.047,2.915,1.127,3.3,4.323h.683l0-9.466c-.019.018-.673,0-.673,0,0,.05-.134,4.068-3.379,4.015H582.72" transform="translate(-116.212 -28.543)" fill="#fff"/><path d="M557.463,135.431h-8.245v.937h2.821v6.774c-.473,1.721-3.008,2.44-3.764,2.44-5.268,0-4.894-7.7-4.894-9.77,0-1.886-.189-9.772,4.894-9.772,3.576,0,5.46,3.558,6.217,6.765h.573c0-1.319.015-7.6.008-7.581.008-.048-2.455,1.771-2.464,1.743.055-.012-1.129-1.689-4.333-1.689-6.218,0-8.5,6.207-8.475,10.533.028,3.961,1.856,10.7,8.475,10.7a5.05,5.05,0,0,0,4.333-2.262c.009-.023,2.621,2.067,2.632,2.075v-9.962h2.224v-.937" transform="translate(-96.925 -28.261)" fill="#fff"/><path d="M704.786,138.458l3.009-9.009,3.2,9.009h-6.209m-11.678-3.593h-3.383v-8.734h4.327c2.538.383,2.647,3.318,2.647,4.251,0,2.26-.947,4.483-3.59,4.483m35.99,3.413c-.752,5.823-2.227,6.7-6.364,6.7h-.253V126.137h2.635V125.12h-8.663v1.018h2.633v18.836H717l-7.7-20.419h-1.129c.025-.009-6.4,18.526-6.407,18.582.012-.056-.484,1.591-1.541,1.794-.973.045-.9-.462-.9-.64v-3.57c0-.938-.072-3.066-1.042-4.045a5.587,5.587,0,0,0-2.918-1.219s4.734-.978,4.734-5.475c0-3.154-2.191-4.722-5.858-4.857h-10.4v1.018H686.5v18.834h-2.659v1h8.529v-1h-2.662v-9.059h3.551c6.155.509-1.056,10.072,7.008,10.062h5.084v-1.006c-.282,0-2.149.055-2.264-1.246-.078-.935,1.227-4.305,1.227-4.305h6.922c0-.015,2.154,5.554,2.173,5.554H711v1h18.857v-7.7Z" transform="translate(-172.207 -27.912)" fill="#fff"/><path d="M635.362,126.762c5.363,0,7.349-.255,8.282,6.324h.568v-7.324H622.9v1h.556c.752,0,2.536.054,2.641,1.628h0v12.017l-9.969-14.645H610.7v1h.9c1.071,0,2.569.047,2.638,1.628v15.4c0,1.5-2.25,2.076-3.191,2.076h-.012v.747h7.346v-.747c-.938,0-3.2-.574-3.2-2.076l.025-13.554c3.949,5.64,11.4,16.389,11.466,16.377h.369v-18.22c.111-1.573,1.892-1.628,2.641-1.628h2.447v18.855h-2.788v.993H644.4v-7.7h-.755c-.749,5.824-2.23,6.709-6.367,6.709h-1.915v-9.154h1.106c1.864.047,2.918,1.128,3.294,4.325h.685l-.006-9.467c-.013.016-.673,0-.673,0,0,.049-.134,4.068-3.38,4.014h-1.027v-8.574" transform="translate(-133.981 -28.543)" fill="#fff"/><path d="M790.76,126.753v-1.019h-8.5v1.019h2.673l.009,18.828h-2.682V146.6h8.5v-1.015h-2.67V126.753Z" transform="translate(-223.643 -28.528)" fill="#fff"/><path d="M539.963,95.619V94.606h2.82V75.748h-2.578v-.856h14.564v7.2h-.55a15.224,15.224,0,0,0-.951-3.77,3.692,3.692,0,0,0-1.508-1.806,4.634,4.634,0,0,0-2.355-.647c-.461-.031-.983-.031-1.561-.062-.585,0-1.2-.03-1.84-.03v8.614c0-.028.092-.028.306-.028a1.485,1.485,0,0,0,.336.028h.34a2.534,2.534,0,0,0,1.376-.306,2.661,2.661,0,0,0,.951-.7c.093-.153.212-.306.308-.46s.185-.339.276-.521a2.326,2.326,0,0,0,.184-.493,2.617,2.617,0,0,1,.122-.459,2.162,2.162,0,0,0,.059-.4c.035-.119.035-.242.066-.335a1.078,1.078,0,0,1,.03-.215v-.127h.674v9.447H550.3a10.738,10.738,0,0,0-.187-1.106c-.061-.3-.152-.613-.214-.918a4.718,4.718,0,0,0-.674-1.319,2.1,2.1,0,0,0-.952-.734,2.879,2.879,0,0,0-1.227-.217H546v9.077h2.788v1.012h-8.828" transform="translate(-97.011 -1.956)" fill="#fff"/><path d="M630.045,82.557c-.031-.246-.031-.556-.091-.916-.033-.217-.033-.405-.064-.616s-.029-.432-.06-.649A13.444,13.444,0,0,0,629.553,79a5.3,5.3,0,0,0-.521-1.317,3.508,3.508,0,0,0-.737-.922,4.664,4.664,0,0,1-.369-.337c-.122-.093-.271-.214-.367-.274a4.821,4.821,0,0,0-.429-.249,1.868,1.868,0,0,0-.553-.15h-1.958c.03,1.78.03,3.434.03,5V94.635h2.637v.985h-8.68v-.985h2.639V75.751a21.642,21.642,0,0,0-2.606.09,3.808,3.808,0,0,0-.55.277c-.121.063-.248.153-.4.248-.124.086-.275.182-.429.3a4.256,4.256,0,0,0-.738.952,6.084,6.084,0,0,0-.3.647,5.479,5.479,0,0,0-.219.671c-.121.488-.211.951-.274,1.382a5.07,5.07,0,0,0-.066.64c-.025.183-.054.616-.054.616l-.031.49v.367h-.646V74.894h15.7l.031,7.663h-.614" transform="translate(-136.19 -1.957)" fill="#fff"/><path d="M703.107,83.015a3.951,3.951,0,0,0,.4-.675c.062-.245.152-.491.212-.764a7.391,7.391,0,0,0,.183-1.657,2.914,2.914,0,0,0-.028-.46c0-.153-.031-.366-.031-.582a6.026,6.026,0,0,0-.308-1.348,3.076,3.076,0,0,0-.736-1.2,1.505,1.505,0,0,0-.581-.4,1.74,1.74,0,0,0-.951-.184h-4.354v8.677h3.4A3.361,3.361,0,0,0,702,84.059a2.417,2.417,0,0,0,1.106-1.044m5.284,12.356a2.622,2.622,0,0,1-.7.181,4.416,4.416,0,0,1-.922.122,3.681,3.681,0,0,1-1.871-.4,2.536,2.536,0,0,1-.951-1.1,5.471,5.471,0,0,1-.336-1.561c0-.282-.029-.589-.029-.891v-.891c.029-.644.029-1.259,0-1.84a4.7,4.7,0,0,0-.276-1.624,3.014,3.014,0,0,0-.861-1.228,3.552,3.552,0,0,0-1.746-.582h-3.617v9.075h2.762l.027.985h-8.645v-.985h2.793v-18.7h-2.793V74.892h10.453c.49,0,.918,0,1.316.031a6.887,6.887,0,0,1,1.172.243,4.676,4.676,0,0,1,1.8.859,3.377,3.377,0,0,1,1.137,1.441,5.625,5.625,0,0,1,.4,2.238,4.342,4.342,0,0,1-.769,2.728,6.512,6.512,0,0,1-1.627,1.687,7.008,7.008,0,0,1-2.295,1.041h.029a1.455,1.455,0,0,0,.22.059,1.232,1.232,0,0,1,.333.066.945.945,0,0,1,.4.092,3.231,3.231,0,0,1,.949.369,2.623,2.623,0,0,1,.948.613,3.468,3.468,0,0,1,.584.916,5.6,5.6,0,0,1,.3,1.106,3.488,3.488,0,0,1,.065.582c.029.184.029.367.059.548,0,.156.031.311.031.494v4.138a.781.781,0,0,0,.061.215,1.008,1.008,0,0,0,.275.184,1.573,1.573,0,0,0,.551.062l.707-.246.644.643a1.358,1.358,0,0,1-.583.37" transform="translate(-176.064 -1.956)" fill="#fff"/><path d="M745.028,95.619H729.975v-.985h2.791V75.748H730.22v-.856h14.593v7.2h-.585c-.124-.829-.242-1.563-.4-2.176a16.13,16.13,0,0,0-.522-1.594,4.009,4.009,0,0,0-1.535-1.839,4.743,4.743,0,0,0-2.387-.615c-.464-.031-.985-.031-1.531-.062-.587,0-1.2-.03-1.874-.03v8.586h1.042a2.862,2.862,0,0,0,2.3-.981c.124-.186.212-.339.336-.492a2.227,2.227,0,0,0,.245-.489c.06-.185.121-.338.187-.493a3.238,3.238,0,0,0,.121-.487,1.451,1.451,0,0,0,.1-.491,3.732,3.732,0,0,0,.055-.584h.674v9.473h-.728c-.035-.4-.1-.767-.159-1.106a7.181,7.181,0,0,0-.245-.918,4.918,4.918,0,0,0-.641-1.35,2.58,2.58,0,0,0-.919-.736,3.309,3.309,0,0,0-1.225-.215h-1.137v9.136h1.9a12.467,12.467,0,0,0,2.638-.213,3.489,3.489,0,0,0,1.806-.922,5.486,5.486,0,0,0,1.2-2.051,9.2,9.2,0,0,0,.4-1.535c.124-.582.215-1.258.306-1.964h.8v7.67" transform="translate(-196.318 -1.956)" fill="#fff"/><path d="M586.145,75.934V74.893h6.075v1.041h-2.554V87.284a19.519,19.519,0,0,1-.34,4.547c-.737,2.615-2.7,3.9-5.872,3.9a9.485,9.485,0,0,1-4.277-.921,4.88,4.88,0,0,1-2.732-3.259,18.569,18.569,0,0,1-.283-4.271V75.9h-2.577V74.893h8.424V75.9h-2.583V87.284a39.39,39.39,0,0,0,.124,4.18,4.288,4.288,0,0,0,.734,1.818c.8,1.164,2.1,1.448,3.876,1.448A3.771,3.771,0,0,0,588,92.542a6.646,6.646,0,0,0,.518-1.818c.06-.613.093-1.75.093-3.44V75.934h-2.47" transform="translate(-114.583 -1.957)" fill="#fff"/><path d="M662.653,75.934V74.893h6.074v1.041h-2.554V87.284a19.772,19.772,0,0,1-.337,4.547c-.737,2.615-2.708,3.9-5.872,3.9a9.458,9.458,0,0,1-4.275-.921,4.889,4.889,0,0,1-2.738-3.259,19.048,19.048,0,0,1-.277-4.271V75.9h-2.585V74.893h8.425V75.9h-2.583V87.284a39.885,39.885,0,0,0,.124,4.18,4.31,4.31,0,0,0,.743,1.818c.8,1.164,2.089,1.448,3.874,1.448a3.755,3.755,0,0,0,3.837-2.188,6.484,6.484,0,0,0,.525-1.818c.062-.613.091-1.75.091-3.44V75.934h-2.471" transform="translate(-154.567 -1.957)" fill="#fff"/><path d="M416.155,112.3a1.214,1.214,0,0,1,.939-.784l4.525-1.011-.411-4.037-.009-.088a2.635,2.635,0,0,0-2.554-2.313c-8.09-.653-9.967-1.853-11.935-3.124a.039.039,0,0,1-.007-.018l-.014.005-.129-.081a8.393,8.393,0,0,0-4.39-1.364,21.356,21.356,0,0,0-5.427.984c-.7.2-1.354.414-1.989.615a22.02,22.02,0,0,1-8.4,1.414l-.673-.02-.176.648c-.131.5-1.159,4.565-.17,7.176a2.045,2.045,0,0,0-.881,1.621c.036.891-.174,1.11-.245,1.18-.423.446-1.835.5-3.022.5h-.446l-.256.347a3.349,3.349,0,0,1-3.328.988c-.441-1.356-.455-2.389-.021-3.007a2.5,2.5,0,0,1,2.017-.811h.256a1.955,1.955,0,0,0,1.951-1.956V101.9a8.213,8.213,0,0,0,.816-1.747,3.678,3.678,0,0,0,3.134-3.6,3.612,3.612,0,0,0-.57-1.942,5.107,5.107,0,0,0,3.047-4.521,4.01,4.01,0,0,0-2.084-3.722,32.368,32.368,0,0,0,1.077-3.682l1.422-5.087a4.471,4.471,0,0,1,4.235-3.283h25.027a5.276,5.276,0,0,1-4.653,2.194H397.672l-.791,1.695H410.45a5.242,5.242,0,0,1-4.843,2.5h-9.84l-.791,1.693h8.779a5.232,5.232,0,0,1-4.778,2.4h-5.367l-.791,1.7h5.623a1.77,1.77,0,0,1,.19,1.012,2.012,2.012,0,0,1-2.039,1.974,3.329,3.329,0,0,1-1.3-.326q-.366-.154-.739-.316L393.245,90c.246.1.49.21.732.312a6.219,6.219,0,0,0,2.616.746,3.673,3.673,0,0,0,2.634-1.113c.96.063,2.514.19,4.02.314,1.8.149,3.5.285,4.377.334.438.023.848.045,1.241.063.751.037,1.433.074,2.114.12,3.416,5.546,5.166,6.278,11.782,7.072.475.85.907,1.752,1.318,2.663v10.861c.038.5.038.665-.032.753a5.583,5.583,0,0,1-1.6.874l-5.578,2.1a3.1,3.1,0,0,1-.712-2.8m-1.2,2.933H403.926l4.721-4.987a3.152,3.152,0,0,0,.859-3.335,35.817,35.817,0,0,0-1.5-3.274c1.878.87,4.725,1.655,10.508,2.121.688.055.875.292,1.019.925l.253,2.5-3.025.676a2.9,2.9,0,0,0-2.181,1.827,4.249,4.249,0,0,0,.375,3.549m-19.882,0a2.988,2.988,0,0,1,.368-2.783,2.184,2.184,0,0,1,1.892-.7l3.222.6.081.014h.448l2.279-2.455.023-.021a2.725,2.725,0,0,0,.362-3.577L400.7,101.3a10.752,10.752,0,0,1,1.481-.118h.018a6.731,6.731,0,0,1,3.176.931c.226.472.529,1.1.873,1.793.64,1.3,1.433,2.909,1.657,3.559a1.461,1.461,0,0,1-.477,1.616l-5.834,6.156Zm-.913-3.895a4.344,4.344,0,0,0-.823,3.895H382.949a3.734,3.734,0,0,0,2.482-.95,3.143,3.143,0,0,0,.722-2.367c.023-.057.14-.294.643-.52l.9-.409-.535-.825c-.889-1.361-.5-4.341-.158-5.958h.073a24.164,24.164,0,0,0,8.2-1.5c.622-.2,1.271-.409,1.952-.61l.023-.007c.009-.005.714-.224,1.67-.452l3.383,5.577.031.048c.337.479.377.8-.238,1.513L400.4,110.6l-2.781-.515-.027-.006a3.884,3.884,0,0,0-3.439,1.259m-18.412-.369c-.725,1.038-.809,2.469-.269,4.264h-1.753v-13.69a7.255,7.255,0,0,0,1.931-.561,13.966,13.966,0,0,1-.224,1.7c-.027.147-.056.3-.084.464l-.163.988h1a7.546,7.546,0,0,0,3.48-.678v5.715a.263.263,0,0,1-.253.265h-.256a4.021,4.021,0,0,0-3.41,1.535m-3.719,2.783-7.992-2.08-7.993,2.08v-14.3l7.993-2.069,7.992,2.069Zm-14.959,1.481,6.967-1.814L371,115.236Zm2.787-21.042a2.021,2.021,0,0,1,2.053-.785l.722.126.228-.7a1.029,1.029,0,0,1,.256-.432,1.2,1.2,0,0,1,.891-.271,5.331,5.331,0,0,1,3.339,1.858,8.88,8.88,0,0,1,1.011,1.35c.061.1.126.208.187.3.082.135.148.241.167.269a5.71,5.71,0,0,1,.515.884c.355-.493.7-.988,1.054-1.477.009-.012,0-.063-.034-.122a6.082,6.082,0,0,0-.379-.637c-.029-.043-.054-.086-.077-.129l-.009-.007a2.041,2.041,0,0,0-.118-.19c-.115-.181-.284-.45-.357-.592l2.207-3.54a6.207,6.207,0,0,0,1.25.138h.052c3.115,0,6.342-1.8,6.342-4.809v-.075a14.722,14.722,0,0,0-.314-2.227,7.341,7.341,0,0,1-.158-1c0-.328.463-.7,1.128-.7h1.012l-.459-2.615a5.436,5.436,0,0,0,2.249-4.37,7.763,7.763,0,0,1,2.8,5.369,8.664,8.664,0,0,1-.271,2.433l-.107.387.02,0a34.823,34.823,0,0,1-1.176,3.794l-.264.683.64.359c1.133.643,1.831,1.113,1.831,2.612a3.633,3.633,0,0,1-3.041,3.312L381,93.781l1.727,1.155a1.951,1.951,0,0,1,.884,1.612,2,2,0,0,1-2.044,1.956h-.654l-.183.6c-.629,2.066-1.319,3.077-3.536,3.294a12.309,12.309,0,0,0,.17-2.088c0-.2-.012-.762-.023-.945l-.1-1.924-1.352,1.378a4.314,4.314,0,0,1-2.17,1.009v-1.68l-9.688-2.512-3.45.893a2.592,2.592,0,0,1-.729-2.335m10.459-6.222a.248.248,0,0,1,.224-.21l1.459.05c1.775-.066,3.592-.794,3.793-2.65a2.347,2.347,0,0,0-2.145-2.473,4.72,4.72,0,0,0-2.277,1.025,3.081,3.081,0,0,1-1.329.654c-.221,0-.4-.148-.4-.271a.143.143,0,0,1,.011-.057l.93-1.255-.8-.538c-.172-.113-.438-.325-.47-.484-.014-.074.095-.208.131-.246a14.979,14.979,0,0,0,1.1-1.449c.242-.335.377-.518.776-.518a.711.711,0,0,1,.716.7c0,.256.28.459.629.459s.509-.249.726-.459c0,0,.831-.762.391-1.121-.5-.412-2.514.427-1.952-1.422l.138-.262a4.151,4.151,0,0,1,3.163-1,9.421,9.421,0,0,1,1.185.081l.3.038,4.223-2.6a.869.869,0,0,1,.044.151l.007.025A3.667,3.667,0,0,1,379,77.677l-.511.3.334,1.9a2.42,2.42,0,0,0-1.84,2.249,7.363,7.363,0,0,0,.187,1.323,13.418,13.418,0,0,1,.284,1.97c0,1.985-2.729,3.291-5.044,3.216l-.061,0a5.755,5.755,0,0,1-1.93-.405.3.3,0,0,1-.111-.254m3.5-13.226a5.552,5.552,0,0,1,1.219-1.059,5.434,5.434,0,0,1,1.455-.653,5.826,5.826,0,0,1,2.727-.066l-2.991,1.845c-.378-.034-.746-.055-1.1-.055a8.968,8.968,0,0,0-1.4.107c.032-.037.061-.079.09-.118m45.635-.433h11.289a5.253,5.253,0,0,1-4.648,2.194h-8.334a7.616,7.616,0,0,0,1.693-2.194m-.572,6.387h-8.33a7.808,7.808,0,0,0,1.84-2.5h11.333a5.231,5.231,0,0,1-4.843,2.5m-6.631,4.094h-8.331a7.65,7.65,0,0,0,1.786-2.4h11.329a5.238,5.238,0,0,1-4.784,2.4m1.913,6.362a10.4,10.4,0,0,1,6.434,3.534Q421.1,95.3,421.6,96c-4.44-.585-5.989-1.23-8.467-5,.324.046.672.1,1.025.158m17.728,18.281c.163.258.305.507.438.746.165.294.325.58.518.875a4.066,4.066,0,0,1-3.161-2.14,1.928,1.928,0,0,1,2.205.518m-10.56,5.8,1.731-.653.025-.009c2.458-1.019,2.812-1.657,2.7-3.289v-6.612c1.87,4.752,3.64,8.093,7.264,8.091a6.968,6.968,0,0,0,1.583-.192l1.422-.317-.978-1.076a9.089,9.089,0,0,1-1.267-1.829c-.144-.256-.291-.515-.47-.805a3.622,3.622,0,0,0-4.5-1.114c-.744-1.472-1.5-3.392-2.392-5.759l-.2-.451c-.151-.357-.31-.713-.468-1.07v-.061h-.03a33.368,33.368,0,0,0-1.856-3.681,20.936,20.936,0,0,0-2.01-2.819,12.023,12.023,0,0,0-7.44-4.106,42.967,42.967,0,0,0-5.49-.515l-1.234-.064c-.854-.047-2.623-.19-4.328-.332-1.155-.094-2.333-.19-3.264-.258a3.473,3.473,0,0,0,.1-.814,4.654,4.654,0,0,0-.1-1.012h12.12a6.986,6.986,0,0,0,6.731-4.1,6.984,6.984,0,0,0,6.679-4.187h.434a7.031,7.031,0,0,0,6.875-4.39l.547-1.2h-41.07a6.146,6.146,0,0,0-5.86,4.484l-.025.094a8.708,8.708,0,0,0-3.613-4.573,9.093,9.093,0,0,0-6.93-1.216,7.248,7.248,0,0,0-1.917.868,7.062,7.062,0,0,0-1.617,1.433,13.136,13.136,0,0,0-1.4,2.25,2.634,2.634,0,0,0-.549.585l-.491.919-.025.057a11.689,11.689,0,0,1-1.86,2.9,1.929,1.929,0,0,0-.511,1.658,2.165,2.165,0,0,0,.57,1.063l-.016.025a1.835,1.835,0,0,0-.249.934,1.986,1.986,0,0,0,2.1,1.9,4.089,4.089,0,0,0,2.27-.877,6.111,6.111,0,0,1,1.336-.744.641.641,0,0,1,.617.621c0,.889-1.144,1.366-1.96,1.427l-1.67.178c-1.2.111-1.768.749-1.768,1.318A1.437,1.437,0,0,0,369.326,89l.117.125.432.379L368.1,92.356a6.594,6.594,0,0,0-4.041-1.915,2.866,2.866,0,0,0-2.118.737,2.246,2.246,0,0,0-.4.5h-.025a3.705,3.705,0,0,0-3.086,1.589,3.756,3.756,0,0,0,.375,3.721l-4.462,1.159v21.345h81.888v-4.257Z" transform="translate(0 0)" fill="#fff"/><path d="M360.7,134.085l.014-.8.041-.009a.282.282,0,0,1,.257.027.345.345,0,0,1,.08.274.557.557,0,0,1-.1.327.409.409,0,0,1-.247.167l-.047.01m.242.943v-.091l-.021,0a.375.375,0,0,1-.165.025.09.09,0,0,1-.055-.04c-.011-.01-.015-.055-.011-.181l0-.515a2.649,2.649,0,0,0,.448-.15.869.869,0,0,0,.323-.269.606.606,0,0,0,.122-.357.352.352,0,0,0-.178-.334.789.789,0,0,0-.59,0l-.818.211h-.009l-.005.09.021-.005a.46.46,0,0,1,.17-.022.1.1,0,0,1,.054.036.8.8,0,0,1,.009.186l-.023,1.239a.691.691,0,0,1-.014.194.4.4,0,0,1-.059.075.57.57,0,0,1-.176.064l-.011,0v.092l.97-.253Z" transform="translate(-2.935 -32.36)" fill="#fff"/><path d="M363.6,133.616l.271-.667.237.532-.507.135m-.588.746-.011,0v.086l.654-.169V134.2l-.016,0a.432.432,0,0,1-.176.013c-.038-.013-.053-.036-.049-.085a.477.477,0,0,1,.038-.16l.081-.2.636-.163.088.2a.7.7,0,0,0,.042.092.227.227,0,0,1,0,.048.071.071,0,0,1-.025.057.4.4,0,0,1-.147.072l-.052.011v.09l.923-.241h.02l0-.09H365a.162.162,0,0,1-.122-.012.713.713,0,0,1-.147-.231l-.647-1.4-.011-.012-.046.012-.7,1.708a1.527,1.527,0,0,1-.162.326.379.379,0,0,1-.158.124" transform="translate(-4.523 -31.903)" fill="#fff"/><path d="M368.225,132.791l-.021,0a.48.48,0,0,1-.118.023.136.136,0,0,1-.084-.023.071.071,0,0,1-.021-.053c0-.03.021-.087.131-.243l.276-.414.251.327a1.531,1.531,0,0,1,.092.127.057.057,0,0,1,.007.034.079.079,0,0,1-.027.061.359.359,0,0,1-.135.064l-.014,0v.09l.932-.244.014,0,0-.085-.022,0a.228.228,0,0,1-.118-.014.921.921,0,0,1-.174-.185l-.491-.644.353-.517c.1-.142.161-.222.181-.253a.6.6,0,0,1,.106-.1.394.394,0,0,1,.126-.052l.014,0v-.09l-.724.187v.088l.018,0a.3.3,0,0,1,.116-.012.088.088,0,0,1,.054.025.108.108,0,0,1,.018.057.845.845,0,0,1-.155.3l-.188.276-.213-.285-.092-.116a.159.159,0,0,1,0-.042.094.094,0,0,1,.027-.063.172.172,0,0,1,.1-.05l.063-.015,0-.089-.952.247h-.012v.085h.021a.144.144,0,0,1,.158.045c0,.009.03.036.125.163l.459.581-.375.547a2.391,2.391,0,0,1-.258.336.614.614,0,0,1-.19.115l-.011,0v.084l.753-.192v-.086" transform="translate(-6.862 -31.076)" fill="#fff"/><path d="M361.2,139a.509.509,0,0,1,.176-.023.273.273,0,0,1,.133.083.6.6,0,0,1,.088.224l.008.016.082-.02.007-.554-1.705.441-.014.006-.005.55.086-.02v-.013a.7.7,0,0,1,.154-.357.508.508,0,0,1,.267-.148l.115-.03-.027,1.454a.438.438,0,0,1-.018.174.129.129,0,0,1-.054.075.261.261,0,0,1-.12.063l-.073.018,0,.088,1-.26.014,0v-.086l-.084.02a.23.23,0,0,1-.116.009.108.108,0,0,1-.049-.041.469.469,0,0,1-.014-.17l.029-1.46L361.2,139" transform="translate(-2.941 -35.32)" fill="#fff"/><path d="M364.663,138.331a.168.168,0,0,1,.052-.074.338.338,0,0,1,.127-.061l.074-.016v-.092l-1,.26-.014,0v.088l.084-.018a.193.193,0,0,1,.117-.009.1.1,0,0,1,.048.039.668.668,0,0,1,.007.174l-.021,1.257a.622.622,0,0,1-.014.178.237.237,0,0,1-.052.075.324.324,0,0,1-.122.057l-.077.02v.086l1-.254.014-.005v-.09l-.081.021a.3.3,0,0,1-.122.007.079.079,0,0,1-.046-.039.751.751,0,0,1-.009-.17l.023-1.259a.471.471,0,0,1,.014-.177" transform="translate(-4.98 -34.985)" fill="#fff"/><path d="M367.466,138.083a.523.523,0,0,1-.14.156.806.806,0,0,1-.267.111l.014-.714a.7.7,0,0,1,.274-.034.2.2,0,0,1,.126.081.314.314,0,0,1,.04.185.44.44,0,0,1-.047.215m-.407.414a.811.811,0,0,1,.3-.036.214.214,0,0,1,.154.1.4.4,0,0,1,.054.213.519.519,0,0,1-.052.219.5.5,0,0,1-.142.178.51.51,0,0,1-.2.1c-.05.014-.073.01-.095-.006a.112.112,0,0,1-.036-.091Zm-.5.9a.172.172,0,0,1-.061.074.482.482,0,0,1-.17.064l-.014,0v.091l.97-.253a1.2,1.2,0,0,0,.619-.334.608.608,0,0,0,.184-.412.313.313,0,0,0-.161-.306.627.627,0,0,0-.308-.061.969.969,0,0,0,.295-.232.492.492,0,0,0,.1-.281.343.343,0,0,0-.3-.366,1.308,1.308,0,0,0-.461.059l-.9.232-.014,0v.092l.021-.007a.421.421,0,0,1,.167-.021.084.084,0,0,1,.057.04.94.94,0,0,1,.011.179l-.022,1.243a.57.57,0,0,1-.021.194" transform="translate(-6.256 -34.615)" fill="#fff"/><path d="M371.02,136.684a.253.253,0,0,1,.055-.073.288.288,0,0,1,.127-.059l.074-.02,0-.09-1.006.26-.011,0v.09l.084-.021a.248.248,0,0,1,.113-.006.083.083,0,0,1,.052.038c.009.011.014.052.009.172l-.023,1.259a.451.451,0,0,1-.018.174.119.119,0,0,1-.049.075.325.325,0,0,1-.126.061l-.073.018v.094l1-.264.011,0,0-.088-.088.023a.218.218,0,0,1-.111,0,.074.074,0,0,1-.054-.04.577.577,0,0,1-.011-.17l.021-1.259a1.129,1.129,0,0,1,.014-.177" transform="translate(-8.305 -34.124)" fill="#fff"/><path d="M363.355,144.454l-.511.131.271-.662m2.382-.738a.586.586,0,0,1-.059.253.4.4,0,0,1-.14.158,1.061,1.061,0,0,1-.289.107l-.055.016.01-.8.138-.038a.355.355,0,0,1,.307.018.364.364,0,0,1,.088.284m.735,1.119a.14.14,0,0,1-.115-.011.522.522,0,0,1-.118-.119l-.429-.515a.9.9,0,0,0,.254-.2.58.58,0,0,0,.154-.4.4.4,0,0,0-.093-.289.384.384,0,0,0-.262-.116,1.926,1.926,0,0,0-.508.079l-.866.228-.014,0v.09l.02-.009a.4.4,0,0,1,.168-.02.071.071,0,0,1,.053.039.666.666,0,0,1,.014.18l-.02,1.241a.7.7,0,0,1-.021.2.2.2,0,0,1-.063.073.384.384,0,0,1-.144.06.146.146,0,0,1-.111-.014.631.631,0,0,1-.15-.233l-.646-1.395-.007-.011-.049.011-.7,1.711a1.572,1.572,0,0,1-.159.321.342.342,0,0,1-.156.126l-.024.007a.209.209,0,0,1-.115,0,.079.079,0,0,1-.054-.036.7.7,0,0,1-.009-.174l.021-1.262c0-.117.009-.158.009-.172.022-.032.032-.059.057-.075a.317.317,0,0,1,.127-.061l.072-.02,0-.088-.785.2-.006,0-.52,1.361-.495-1.1-.777.2-.016,0v.09l.084-.02a.2.2,0,0,1,.107-.006c.031.007.049.023.052.04s.018.043.014.17l-.02,1.209c0,.1,0,.136,0,.141a.342.342,0,0,1-.043.109.227.227,0,0,1-.081.072.328.328,0,0,1-.107.052l-.032.006v.088l.66-.169h.018v-.092l-.025.008a.311.311,0,0,1-.173.007.146.146,0,0,1-.07-.086v-.168l.016-1.27.672,1.474.007.014.057-.014.714-1.848-.022,1.319a1.071,1.071,0,0,1-.016.176.17.17,0,0,1-.053.074.314.314,0,0,1-.128.061l-.072.021,0,.086.938-.244v0l.649-.167.01,0v-.088l-.018,0a.414.414,0,0,1-.172.013.077.077,0,0,1-.052-.084.472.472,0,0,1,.042-.156l.077-.2.642-.163.085.2c.038.075.041.086.041.094a.083.083,0,0,1,.007.042.1.1,0,0,1-.029.063.36.36,0,0,1-.143.063l-.049.014,0,.086.876-.222.061-.02h0l.915-.237.014-.005v-.086l-.025.007a.73.73,0,0,1-.14.023.057.057,0,0,1-.025-.005.062.062,0,0,1-.052-.036.458.458,0,0,1-.014-.181l.009-.523.1-.027.581.708.008.005.6-.151.009,0V144.3Z" transform="translate(-2.811 -37.373)" fill="#fff"/><path d="M361.506,150.718a.2.2,0,0,1-.04.106.121.121,0,0,1-.066.048,1.207,1.207,0,0,1-.154-.011.986.986,0,0,0-.423.025,1.382,1.382,0,0,0-.515.265,1.5,1.5,0,0,0-.39.488,1.217,1.217,0,0,0-.15.561.814.814,0,0,0,.12.466.577.577,0,0,0,.36.267.789.789,0,0,0,.224.032,1.316,1.316,0,0,0,.319-.047,1.175,1.175,0,0,0,.4-.183,1.434,1.434,0,0,0,.335-.332l.009,0v-.228l-.034.049a1.616,1.616,0,0,1-.31.348.879.879,0,0,1-.321.158.441.441,0,0,1-.337-.014.4.4,0,0,1-.184-.256,1.735,1.735,0,0,1-.056-.447,1.641,1.641,0,0,1,.091-.491.86.86,0,0,1,.221-.316.74.74,0,0,1,.316-.185.432.432,0,0,1,.567.371l.007.016.084-.023.011-.7-.085.025,0,.01" transform="translate(-2.836 -41.567)" fill="#fff"/><path d="M365.6,151.1a.918.918,0,0,1-.231.431.89.89,0,0,1-.416.227l-.109.031a.191.191,0,0,1-.1.006.043.043,0,0,1-.036-.036c-.007-.009-.018-.048-.012-.179l.012-.529a.423.423,0,0,1,.183-.013c.042.011.07.042.108.1a.556.556,0,0,1,.064.245l0,.02.083-.024.018-1.04-.092.023v.011a.751.751,0,0,1-.105.357.38.38,0,0,1-.251.176l-.011,0,.011-.744.181-.049a1.143,1.143,0,0,1,.285-.046.3.3,0,0,1,.193.074.5.5,0,0,1,.1.258l.007.023.08-.025.009-.6-1.589.414-.012,0v.087l.083-.023a.2.2,0,0,1,.133,0,.068.068,0,0,1,.038.048.86.86,0,0,1,.007.156l-.023,1.255a.512.512,0,0,1-.018.179.186.186,0,0,1-.048.073.323.323,0,0,1-.126.059l-.075.02,0,.087,1.642-.425h.009l.1-.667-.088.023v.009" transform="translate(-5.014 -41.107)" fill="#fff"/><path d="M371.038,149.7a1,1,0,0,1-.233.429.838.838,0,0,1-.412.229l-.113.031a.193.193,0,0,1-.1.005c-.025-.005-.031-.016-.04-.036a.583.583,0,0,1-.01-.179l.01-.527a.385.385,0,0,1,.183-.014.17.17,0,0,1,.107.1.517.517,0,0,1,.059.24l.007.023.084-.023.018-1.038-.088.023v.012a.838.838,0,0,1-.108.355.37.37,0,0,1-.249.176l-.009,0,.009-.742.177-.051a1.19,1.19,0,0,1,.289-.048.281.281,0,0,1,.192.075.5.5,0,0,1,.1.258l.007.02.077-.021.012-.6-1.585.412-.014,0v.087l.084-.023a.185.185,0,0,1,.129.006.072.072,0,0,1,.041.047.846.846,0,0,1,0,.154l-.02,1.259a.5.5,0,0,1-.018.176.143.143,0,0,1-.048.073.283.283,0,0,1-.124.063l-.077.018v.092l1.639-.427.011,0,.1-.666-.081.021v.011" transform="translate(-7.855 -40.375)" fill="#fff"/><path d="M376.648,132.409l.066.02.617-1.305a1.033,1.033,0,0,1,.162-.283.213.213,0,0,1,.163-.062l.018.005V130.7l-.653-.172,0,.091.011,0a.52.52,0,0,1,.154.063.156.156,0,0,1,.06.063.275.275,0,0,1,.025.07.187.187,0,0,1-.016.077,1.288,1.288,0,0,1-.072.186l-.332.714-.411-1.017c-.047-.117-.073-.179-.081-.206a.452.452,0,0,1-.011-.058c0-.026.009-.032.009-.032a.256.256,0,0,1,.167.009l.048.012v-.09l-.937-.242.006.09.012,0a.29.29,0,0,1,.141.092,3.826,3.826,0,0,1,.161.36l.687,1.693" transform="translate(-11.131 -30.847)" fill="#fff"/><path d="M379.965,132.779l.24-.531.267.664-.507-.133m-.549.45-.023,0v.088l.658.17V133.4l-.005-.005a.594.594,0,0,1-.181-.077.157.157,0,0,1-.061-.124.4.4,0,0,1,.031-.136l.068-.151.643.165.1.257a.824.824,0,0,1,.043.115.112.112,0,0,1,.009.052.035.035,0,0,1-.018.04.112.112,0,0,1-.038.005.425.425,0,0,1-.1-.016l-.061-.018.008.091.945.244-.007-.09h-.011a.309.309,0,0,1-.127-.084,1.262,1.262,0,0,1-.163-.316l-.718-1.742,0-.007-.047-.011-.637,1.366a1.078,1.078,0,0,1-.147.237.217.217,0,0,1-.153.04" transform="translate(-13.092 -31.587)" fill="#fff"/><path d="M383.818,132.378a.29.29,0,0,1,.125.056.673.673,0,0,1,.106.124l.038.057.032,1.345c.007.1-.009.158-.045.183s-.106.032-.2.008l-.023-.008.005.092.7.18v-.086l-.059-.016a.32.32,0,0,1-.161-.1.3.3,0,0,1-.072-.23l-.032-1.155L385.5,134.7l.009,0,.073.021-.041-1.619a.616.616,0,0,1,.015-.176c.017-.031.03-.05.052-.058a.515.515,0,0,1,.154,0l.018,0v-.086l-.658-.168,0,.088.01.005a.337.337,0,0,1,.217.129.473.473,0,0,1,.053.239l.02.759-.923-1.376,0-.007-.694-.179,0,.09.011.005" transform="translate(-15.397 -31.951)" fill="#fff"/><path d="M376.352,138.261a1.419,1.419,0,0,0,.3.278,1.37,1.37,0,0,0,.42.181,1.83,1.83,0,0,0,.382.059h.046a1.4,1.4,0,0,0,.309-.034l.012-.006-.01-.409a.348.348,0,0,1,.007-.124.066.066,0,0,1,.039-.045.318.318,0,0,1,.129,0l.025.005v-.086l-.889-.232v.09l.056.016a.252.252,0,0,1,.105.052.167.167,0,0,1,.052.066.462.462,0,0,1,.018.141l.009.384a.622.622,0,0,1-.115,0,.565.565,0,0,1-.126-.014.727.727,0,0,1-.316-.176.782.782,0,0,1-.2-.348,2.133,2.133,0,0,1-.072-.493,1.516,1.516,0,0,1,.046-.423.443.443,0,0,1,.169-.278.357.357,0,0,1,.31-.036.813.813,0,0,1,.371.239,1.185,1.185,0,0,1,.271.483v.007l.084.022-.018-.7v-.012l-.077-.018-.007.018c-.018.053-.034.074-.049.079a.045.045,0,0,1-.053.011,1.508,1.508,0,0,1-.144-.09,1.951,1.951,0,0,0-.191-.115,1.592,1.592,0,0,0-.239-.082.753.753,0,0,0-.706.118.776.776,0,0,0-.267.672,1.229,1.229,0,0,0,.106.466,1.263,1.263,0,0,0,.206.323" transform="translate(-11.339 -34.23)" fill="#fff"/><path d="M381.6,139.662l.073-.628-.08-.016,0,.014a.439.439,0,0,1-.21.306.541.541,0,0,1-.407.016l-.111-.029a.27.27,0,0,1-.113-.05.152.152,0,0,1-.044-.063,1.1,1.1,0,0,1-.015-.19l-.014-.518a.773.773,0,0,1,.179.081.453.453,0,0,1,.118.169.812.812,0,0,1,.077.278v.011l.087.023-.023-1.022v-.013l-.087-.023,0,.022a.617.617,0,0,1-.09.3c-.049.059-.126.072-.239.041l-.025-.005-.02-.744.17.047a1.38,1.38,0,0,1,.292.1.651.651,0,0,1,.2.179,1.009,1.009,0,0,1,.118.321v.013l.085.02-.014-.585V137.7l-1.6-.418.005.092.074.018a.306.306,0,0,1,.131.072.175.175,0,0,1,.052.079c0,.016,0,.056.01.163l.029,1.255a.431.431,0,0,1,0,.169.065.065,0,0,1-.043.042.314.314,0,0,1-.122,0l-.085-.023,0,.086,1.635.425.014.007" transform="translate(-13.358 -34.562)" fill="#fff"/><path d="M385.361,139.933l-.088-.023,0,.018a1.118,1.118,0,0,1-.126.3.306.306,0,0,1-.163.118.521.521,0,0,1-.238-.009l-.153-.042a.617.617,0,0,1-.163-.053.2.2,0,0,1-.064-.068.727.727,0,0,1-.012-.189l-.036-1.214a.828.828,0,0,1,.007-.169.106.106,0,0,1,.045-.047.314.314,0,0,1,.124.007l.1.029,0-.09-1.036-.267,0,.089.073.016a.4.4,0,0,1,.124.057.333.333,0,0,1,.059.074.94.94,0,0,1,.017.183l.032,1.255c0,.124,0,.156-.011.167s-.021.04-.041.045a.248.248,0,0,1-.124-.005l-.079-.02v.088l1.675.432.023.007.055-.673v-.018" transform="translate(-15.267 -35.061)" fill="#fff"/><path d="M387.267,139.28l.075.018a.338.338,0,0,1,.117.057.121.121,0,0,1,.057.072.554.554,0,0,1,.023.182l.032,1.261a.693.693,0,0,1-.009.161c-.016.027-.024.042-.047.049a.225.225,0,0,1-.12-.007l-.086-.023,0,.089.995.256.022,0v-.084l-.074-.022a.341.341,0,0,1-.12-.055.283.283,0,0,1-.059-.072.508.508,0,0,1-.022-.185l-.03-1.255c0-.124,0-.158.01-.169a.064.064,0,0,1,.045-.043.18.18,0,0,1,.12.008l.083.02,0-.088-1.011-.264v.09" transform="translate(-17.207 -35.561)" fill="#fff"/><path d="M376.977,144.477a.754.754,0,0,1-.368-.253,1.168,1.168,0,0,1-.248-.518V143.7l-.086-.023.021.748v.012l.077.018.007-.013a.124.124,0,0,1,.056-.061.1.1,0,0,1,.063-.007.423.423,0,0,1,.1.054c.086.052.151.1.2.122a1.252,1.252,0,0,0,.172.063.714.714,0,0,0,.2.027.476.476,0,0,0,.278-.081.419.419,0,0,0,.178-.381.674.674,0,0,0-.126-.369,1.833,1.833,0,0,0-.459-.434c-.158-.122-.257-.2-.305-.242a.675.675,0,0,1-.122-.159.251.251,0,0,1-.032-.111.175.175,0,0,1,.07-.143.247.247,0,0,1,.2-.016.631.631,0,0,1,.335.232.809.809,0,0,1,.206.425v.014l.093.021-.034-.667v-.011l-.074-.016,0,.016c-.01.065-.025.084-.032.09a.052.052,0,0,1-.043,0,.659.659,0,0,1-.122-.079,1.832,1.832,0,0,0-.16-.1.912.912,0,0,0-.179-.072.518.518,0,0,0-.434.055.4.4,0,0,0-.154.36.586.586,0,0,0,.066.269,1.054,1.054,0,0,0,.178.251,3.947,3.947,0,0,0,.378.316,1.777,1.777,0,0,1,.255.215.5.5,0,0,1,.109.141.383.383,0,0,1,.036.135.185.185,0,0,1-.077.16.266.266,0,0,1-.231.021" transform="translate(-11.456 -37.307)" fill="#fff"/><path d="M380.75,143.687a.5.5,0,0,1,.144.158.876.876,0,0,1,.106.278l0,.009.077.022-.007-.54V143.6l-1.7-.439-.022-.005.016.54v.014l.086.02v-.018a.388.388,0,0,1,.138-.278.333.333,0,0,1,.258-.007l.12.034.04,1.458c.005.127,0,.159-.009.17a.081.081,0,0,1-.042.047.242.242,0,0,1-.124-.007l-.084-.023,0,.089.992.254.025.006,0-.088-.073-.018a.41.41,0,0,1-.124-.055.238.238,0,0,1-.053-.076.442.442,0,0,1-.02-.18l-.045-1.453.126.031a.638.638,0,0,1,.175.072" transform="translate(-13.068 -37.633)" fill="#fff"/><path d="M384.105,145.868l-.511-.135.244-.531.267.665m.2.615a.256.256,0,0,1-.144-.009l-.056-.015,0,.086.918.24.025.007,0-.09-.011,0a.331.331,0,0,1-.129-.083,1.339,1.339,0,0,1-.16-.316l-.722-1.752-.051-.011-.636,1.367a.749.749,0,0,1-.147.241.208.208,0,0,1-.151.037l-.018,0v.087l.631.163.023.007v-.09h-.009a.681.681,0,0,1-.179-.077.162.162,0,0,1-.059-.123.393.393,0,0,1,.03-.137l.066-.152.646.165.1.258a.47.47,0,0,1,.045.115.108.108,0,0,1,.012.048c0,.027-.012.038-.021.04" transform="translate(-14.991 -38.356)" fill="#fff"/><path d="M378.479,150.787a.227.227,0,0,1-.106-.053.259.259,0,0,1-.052-.068,1.011,1.011,0,0,1-.018-.187l-.032-1.259c0-.122,0-.158.007-.165a.069.069,0,0,1,.04-.046.156.156,0,0,1,.1,0l.016.007.013,0a.242.242,0,0,1,.122.068.2.2,0,0,1,.04.077c0,.023.007.075.01.159l.034,1.257a.569.569,0,0,1-.015.17c0,.021-.01.038-.034.043a.134.134,0,0,1-.1,0h-.014l-.012,0m3.106-.96-.006-.083-.554-.147-.025-.005v.089l.018,0a.414.414,0,0,1,.133.059.222.222,0,0,1,.056.056.289.289,0,0,1,.018.074.224.224,0,0,1-.01.079c-.007.034-.032.1-.066.19l-.29.716-.36-1a1.548,1.548,0,0,1-.072-.208.135.135,0,0,1-.012-.057c-.007-.023.007-.031.014-.038a.23.23,0,0,1,.136.009l.049.016v-.09l-.8-.208-.014-.006h-.022l-1.371-.357-.029-.007-.581-.15-.411,1.113-.486-1.34v-.005l-.7-.181-.02,0,0,.085.066.018a.294.294,0,0,1,.106.052.178.178,0,0,1,.05.068.694.694,0,0,1,.016.181l.036,1.211a.6.6,0,0,1,0,.139.213.213,0,0,1-.032.086.076.076,0,0,1-.059.032.205.205,0,0,1-.1,0l-.041-.009,0,.086.584.15.021.005v-.088l-.02,0a.342.342,0,0,1-.158-.082.27.27,0,0,1-.063-.126,1.056,1.056,0,0,1-.018-.176l-.032-1.234.664,1.8.055.016.567-1.513.032,1.334a.494.494,0,0,1,0,.163.1.1,0,0,1-.039.049.206.206,0,0,1-.108,0l-.073-.021v.088l.787.2v0l1.476.38.055-.608v-.014l-.07-.02,0,.014a.526.526,0,0,1-.186.316.457.457,0,0,1-.357.023l-.105-.025a.22.22,0,0,1-.094-.043.191.191,0,0,1-.039-.061.688.688,0,0,1-.018-.192l-.007-.517a.62.62,0,0,1,.15.074.442.442,0,0,1,.106.162,1.06,1.06,0,0,1,.07.281l0,.013.075.02-.029-1.026v-.012l-.075-.021v.021a.642.642,0,0,1-.079.3c-.043.06-.11.074-.208.045l-.023,0-.014-.743.147.038a1,1,0,0,1,.253.094.527.527,0,0,1,.179.172.956.956,0,0,1,.108.321l0,.009.077.021-.014-.509a.181.181,0,0,1,.1.079,1.642,1.642,0,0,1,.145.357l.619,1.674.063.02.539-1.329a1.5,1.5,0,0,1,.144-.286.166.166,0,0,1,.147-.063Z" transform="translate(-11.413 -40.347)" fill="#fff"/><path d="M388.3,152.59a1.977,1.977,0,0,0-.407-.416,2.414,2.414,0,0,1-.269-.233.578.578,0,0,1-.118-.156.286.286,0,0,1-.029-.113.172.172,0,0,1,.066-.142.19.19,0,0,1,.178-.023.563.563,0,0,1,.3.221.958.958,0,0,1,.178.42l0,.012.081.022-.027-.665v-.01l-.07-.018,0,.018a.271.271,0,0,1-.021.086.044.044,0,0,1-.04.009.675.675,0,0,1-.111-.073.77.77,0,0,0-.147-.1.982.982,0,0,0-.158-.066.4.4,0,0,0-.378.072.424.424,0,0,0-.144.367.647.647,0,0,0,.059.262,1.034,1.034,0,0,0,.165.247,2.989,2.989,0,0,0,.332.305,2.522,2.522,0,0,1,.23.2.561.561,0,0,1,.093.14.313.313,0,0,1,.036.133.2.2,0,0,1-.07.165.234.234,0,0,1-.2.028.606.606,0,0,1-.325-.242,1.151,1.151,0,0,1-.221-.511v-.012l-.077-.021.02.748v.014l.075.018v-.012a.125.125,0,0,1,.049-.063.079.079,0,0,1,.055-.011.35.35,0,0,1,.092.051.875.875,0,0,0,.181.116.9.9,0,0,0,.151.059.682.682,0,0,0,.165.022.389.389,0,0,0,.26-.092.45.45,0,0,0,.159-.385.754.754,0,0,0-.111-.371" transform="translate(-17.165 -41.911)" fill="#fff"/></g><g transform="translate(11654 8534.91)"><path d="M-88.386-8.513v-37.7h12.543q24.009,0,24.009,18.377A17.026,17.026,0,0,1-58.5-13.811q-6.668,5.3-17.849,5.3Zm5.321-33.7v29.707h6.778q8.932,0,13.905-3.97t4.973-11.252q0-14.486-18.561-14.486Zm66.7,33.7H-40.436v-37.7h23.059v4H-35.115v12.54h16.407v3.97H-35.115v13.2h18.751Zm34.773,0H-5.156v-37.7H.165v33.7H18.41Zm31.859-33.7H37.155v33.7H31.834v-33.7H18.752v-4H50.269Zm40.316,33.7H84.693L79.879-19.082H60.621L56.091-8.513H50.168l17.421-37.7H73.1ZM78.137-23.052,71.01-39.115a13.228,13.228,0,0,1-.7-2.524h-.127a12.144,12.144,0,0,1-.729,2.524L62.395-23.052Z" transform="translate(-11526.614 -8341.697)" fill="url(#a)"/><path d="M-108.337.594V-4.892h1.167q2.236,0,2.236,2.674a3.159,3.159,0,0,1-.62,2.041,2.025,2.025,0,0,1-1.663.771Zm.668-4.713V-.175h.536a1.294,1.294,0,0,0,1.1-.528,2.459,2.459,0,0,0,.393-1.492q0-1.924-1.469-1.924Zm4.38,4.713h-.691V-4.892h.691Zm1.028-.218V-.561a1.127,1.127,0,0,0,.221.207,1.506,1.506,0,0,0,.272.155,1.7,1.7,0,0,0,.288.1,1.144,1.144,0,0,0,.265.034.9.9,0,0,0,.63-.191.718.718,0,0,0,.207-.555.773.773,0,0,0-.069-.339.9.9,0,0,0-.193-.262,1.99,1.99,0,0,0-.292-.228q-.168-.109-.359-.228-.206-.149-.383-.3a1.873,1.873,0,0,1-.309-.339,1.528,1.528,0,0,1-.206-.419,1.8,1.8,0,0,1-.075-.547,1.624,1.624,0,0,1,.128-.671,1.364,1.364,0,0,1,.338-.471,1.375,1.375,0,0,1,.478-.275,1.708,1.708,0,0,1,.547-.09,1.7,1.7,0,0,1,.925.2v.9a1.212,1.212,0,0,0-.885-.337,1.184,1.184,0,0,0-.3.038.747.747,0,0,0-.265.126.674.674,0,0,0-.19.226.7.7,0,0,0-.073.333.815.815,0,0,0,.056.318.783.783,0,0,0,.165.245,1.684,1.684,0,0,0,.265.216q.156.105.362.228a4.8,4.8,0,0,1,.4.314,2.137,2.137,0,0,1,.33.363,1.7,1.7,0,0,1,.226.442,1.7,1.7,0,0,1,.083.553,1.773,1.773,0,0,1-.124.7,1.26,1.26,0,0,1-.334.467,1.3,1.3,0,0,1-.483.26,2.04,2.04,0,0,1-.578.08,1.823,1.823,0,0,1-.25-.021,2.756,2.756,0,0,1-.3-.061,2.2,2.2,0,0,1-.293-.1A.827.827,0,0,1-102.26.376Zm6.142-4.5h-1.161V.594h-.671V-4.119h-1.159v-.773h2.991ZM-92.183.594h-.784l-.646-1.469a3.312,3.312,0,0,0-.171-.346,1.293,1.293,0,0,0-.169-.235.542.542,0,0,0-.187-.134.591.591,0,0,0-.228-.042h-.271V.594h-.668V-4.892h1.331a1.454,1.454,0,0,1,.524.092,1.131,1.131,0,0,1,.417.277,1.294,1.294,0,0,1,.278.463,1.91,1.91,0,0,1,.1.648,2.111,2.111,0,0,1-.063.534,1.573,1.573,0,0,1-.18.432,1.276,1.276,0,0,1-.282.323,1.236,1.236,0,0,1-.371.207V-1.9a1.117,1.117,0,0,1,.192.186q.082.1.155.209a2.515,2.515,0,0,1,.145.243q.072.136.159.316Zm-2.455-4.748V-2.37h.558a.635.635,0,0,0,.286-.065.658.658,0,0,0,.227-.187.907.907,0,0,0,.149-.3,1.35,1.35,0,0,0,.054-.394.94.94,0,0,0-.183-.616.645.645,0,0,0-.527-.222ZM-90.8.594H-91.5V-4.892h.691Zm1.215,0V-4.892h1.283a1.244,1.244,0,0,1,.929.348,1.237,1.237,0,0,1,.343.907,1.622,1.622,0,0,1-.195.811,1.1,1.1,0,0,1-.538.49v.015A.97.97,0,0,1-87.1-1.9a1.562,1.562,0,0,1,.25.92,1.6,1.6,0,0,1-.409,1.14,1.354,1.354,0,0,1-1.032.436Zm.668-4.755V-2.6h.434a.7.7,0,0,0,.548-.224.922.922,0,0,0,.2-.633.618.618,0,0,0-.694-.7Zm0,2.292V-.132h.572a.726.726,0,0,0,.579-.235.956.956,0,0,0,.2-.648.762.762,0,0,0-.871-.853Zm6.148.245q0,2.311-1.613,2.311-1.545,0-1.545-2.223V-4.892h.671v3.168q0,1.614.925,1.614.891,0,.891-1.557V-4.892h.671Zm3.763-2.494h-1.161V.594h-.671V-4.119H-82v-.773h2.991Zm1.5,4.713H-78.2V-4.892h.691Zm2.881.092a1.62,1.62,0,0,1-1.4-.769,3.477,3.477,0,0,1-.526-2A3.7,3.7,0,0,1-76.02-4.2a1.672,1.672,0,0,1,1.455-.788,1.589,1.589,0,0,1,1.372.765,3.494,3.494,0,0,1,.52,2,3.716,3.716,0,0,1-.533,2.123A1.645,1.645,0,0,1-74.631.686Zm.031-4.87a1.036,1.036,0,0,0-.9.562,2.784,2.784,0,0,0-.348,1.481,2.819,2.819,0,0,0,.338,1.473,1.009,1.009,0,0,0,.885.559,1.035,1.035,0,0,0,.916-.532,2.786,2.786,0,0,0,.335-1.488A2.938,2.938,0,0,0-73.7-3.648,1,1,0,0,0-74.6-4.184ZM-68.285.594h-.733l-1.931-4.032a2.083,2.083,0,0,1-.121-.318h-.017q.023.176.023.754v3.6h-.648V-4.892h.781l1.866,3.937q.118.245.152.337h.011a6.6,6.6,0,0,1-.028-.738V-4.892h.646Zm5.129,0h-2.269V-4.892h2.179v.773h-1.508v1.553h1.39V-1.8h-1.39V-.175h1.6Zm4.366,0h-.733l-1.931-4.032a2.081,2.081,0,0,1-.121-.318h-.017q.023.176.023.754v3.6h-.648V-4.892h.781L-59.57-.955q.118.245.152.337h.011a6.6,6.6,0,0,1-.028-.738V-4.892h.646ZM-54.415.22a2.311,2.311,0,0,1-1.407.467,1.72,1.72,0,0,1-1.452-.757,3.313,3.313,0,0,1-.555-2,3.411,3.411,0,0,1,.608-2.091,1.85,1.85,0,0,1,1.543-.817,2.218,2.218,0,0,1,1.133.268v.937A1.6,1.6,0,0,0-55.652-4.2a1.252,1.252,0,0,0-1.059.578,2.513,2.513,0,0,0-.413,1.5,2.686,2.686,0,0,0,.355,1.486A1.1,1.1,0,0,0-55.8-.1a1.207,1.207,0,0,0,.722-.218v-1.3h-.851v-.765h1.52ZM-50,.594h-.736L-51.1-.8h-1.59l-.35,1.4h-.733l1.514-5.486h.756ZM-51.28-1.544l-.561-2.188a3.411,3.411,0,0,1-.054-.344h-.011a2.936,2.936,0,0,1-.056.344l-.555,2.188ZM-46.141.22a2.311,2.311,0,0,1-1.407.467A1.72,1.72,0,0,1-49-.071a3.313,3.313,0,0,1-.555-2,3.41,3.41,0,0,1,.608-2.091A1.85,1.85,0,0,1-47.4-4.983a2.218,2.218,0,0,1,1.133.268v.937A1.6,1.6,0,0,0-47.379-4.2a1.252,1.252,0,0,0-1.059.578,2.513,2.513,0,0,0-.413,1.5A2.686,2.686,0,0,0-48.5-.639a1.1,1.1,0,0,0,.964.541,1.207,1.207,0,0,0,.722-.218v-1.3h-.851v-.765h1.52Zm3.36.375h-2.269V-4.892h2.179v.773H-44.38v1.553h1.39V-1.8h-1.39V-.175h1.6Zm5.28,0h-.665v-3.55q0-.436.039-1.067h-.011a4.729,4.729,0,0,1-.11.516l-1.207,4.1h-.462l-1.209-4.071a4.96,4.96,0,0,1-.107-.547h-.011q.023.329.023,1.075V.594h-.62V-4.892h.944l1.063,3.654q.121.421.158.627h.014q.1-.432.169-.643l1.083-3.638h.911Zm3.484,0h-2.269V-4.892h2.179v.773h-1.508v1.553h1.39V-1.8h-1.39V-.175h1.6Zm4.366,0h-.733l-1.931-4.032a2.081,2.081,0,0,1-.121-.318h-.017q.023.176.023.754v3.6h-.648V-4.892h.781l1.866,3.937q.118.245.152.337h.011a6.6,6.6,0,0,1-.028-.738V-4.892h.646Zm3.814-4.713H-27V.594h-.671V-4.119h-1.159v-.773h2.991Zm.988,5.81.8-1.622V-.612h-1.2v2.3Zm5.676-1.1h-2.238V-4.892h.671V-.175h1.567Zm3.072,0H-18.37V-4.892h2.179v.773H-17.7v1.553h1.39V-1.8H-17.7V-.175h1.6Zm4.313,0h-.736l-.364-1.4h-1.59l-.35,1.4h-.733l1.514-5.486h.756Zm-1.277-2.139-.561-2.188a3.408,3.408,0,0,1-.054-.344h-.011a2.936,2.936,0,0,1-.056.344L-14.3-1.544ZM-11.013.594V-4.892h1.167q2.236,0,2.236,2.674a3.159,3.159,0,0,1-.62,2.041A2.025,2.025,0,0,1-9.894.594Zm.668-4.713V-.175h.536A1.294,1.294,0,0,0-8.709-.7a2.459,2.459,0,0,0,.393-1.492q0-1.924-1.469-1.924ZM-4.383.594H-6.652V-4.892h2.179v.773H-5.981v1.553h1.39V-1.8h-1.39V-.175h1.6Zm4.062,0H-1.1L-1.75-.875a3.31,3.31,0,0,0-.171-.346,1.292,1.292,0,0,0-.169-.235.542.542,0,0,0-.187-.134.591.591,0,0,0-.228-.042h-.271V.594h-.668V-4.892h1.331A1.454,1.454,0,0,1-1.59-4.8a1.131,1.131,0,0,1,.417.277,1.294,1.294,0,0,1,.278.463,1.909,1.909,0,0,1,.1.648,2.11,2.11,0,0,1-.063.534,1.574,1.574,0,0,1-.18.432,1.276,1.276,0,0,1-.282.323,1.237,1.237,0,0,1-.371.207V-1.9a1.117,1.117,0,0,1,.192.186q.082.1.155.209a2.511,2.511,0,0,1,.145.243q.072.136.159.316ZM-2.777-4.153V-2.37h.558a.635.635,0,0,0,.286-.065.658.658,0,0,0,.227-.187.907.907,0,0,0,.149-.3A1.351,1.351,0,0,0-1.5-3.315a.94.94,0,0,0-.183-.616.645.645,0,0,0-.527-.222ZM.183.376V-.561A1.127,1.127,0,0,0,.4-.354,1.507,1.507,0,0,0,.676-.2a1.7,1.7,0,0,0,.288.1,1.144,1.144,0,0,0,.265.034.9.9,0,0,0,.63-.191.718.718,0,0,0,.207-.555A.773.773,0,0,0,2-1.152.905.905,0,0,0,1.8-1.414a1.991,1.991,0,0,0-.292-.228q-.168-.109-.359-.228-.206-.149-.383-.3A1.872,1.872,0,0,1,.461-2.51a1.528,1.528,0,0,1-.206-.419A1.8,1.8,0,0,1,.18-3.476a1.624,1.624,0,0,1,.128-.671,1.364,1.364,0,0,1,.338-.471,1.375,1.375,0,0,1,.478-.275,1.708,1.708,0,0,1,.547-.09,1.7,1.7,0,0,1,.925.2v.9a1.212,1.212,0,0,0-.885-.337,1.184,1.184,0,0,0-.3.038.747.747,0,0,0-.265.126.674.674,0,0,0-.19.226A.7.7,0,0,0,.885-3.5a.815.815,0,0,0,.056.318.784.784,0,0,0,.165.245,1.684,1.684,0,0,0,.265.216q.156.105.362.228a4.8,4.8,0,0,1,.4.314,2.137,2.137,0,0,1,.33.363,1.7,1.7,0,0,1,.226.442,1.7,1.7,0,0,1,.083.553,1.773,1.773,0,0,1-.124.7,1.261,1.261,0,0,1-.334.467,1.3,1.3,0,0,1-.483.26,2.04,2.04,0,0,1-.578.08A1.823,1.823,0,0,1,1,.665,2.755,2.755,0,0,1,.7.6a2.2,2.2,0,0,1-.293-.1A.827.827,0,0,1,.183.376Zm6.8.218H6.306v-2.38H4.4V.594H3.732V-4.892H4.4v2.307h1.9V-4.892H6.98Zm1.905,0H8.194V-4.892h.691Zm1.883-1.989V.594H10.1V-4.892h1.226a1.356,1.356,0,0,1,1.08.44,1.827,1.827,0,0,1,.383,1.24,2.053,2.053,0,0,1-.4,1.308,1.3,1.3,0,0,1-1.083.509Zm0-2.747v2H11.2a.805.805,0,0,0,.657-.272,1.166,1.166,0,0,0,.226-.765q0-.968-.829-.968Zm3.1,5.833.8-1.622V-.612h-1.2v2.3ZM19.9-4.119H18.74V.594h-.671V-4.119H16.91v-.773H19.9ZM23.836.594h-.784L22.407-.875a3.309,3.309,0,0,0-.171-.346,1.292,1.292,0,0,0-.169-.235.542.542,0,0,0-.187-.134.591.591,0,0,0-.228-.042h-.271V.594h-.668V-4.892h1.331a1.454,1.454,0,0,1,.524.092,1.131,1.131,0,0,1,.417.277,1.294,1.294,0,0,1,.278.463,1.909,1.909,0,0,1,.1.648,2.11,2.11,0,0,1-.063.534,1.573,1.573,0,0,1-.18.432,1.276,1.276,0,0,1-.282.323,1.237,1.237,0,0,1-.371.207V-1.9a1.117,1.117,0,0,1,.192.186q.082.1.155.209a2.51,2.51,0,0,1,.145.243q.072.136.159.316ZM21.381-4.153V-2.37h.558a.635.635,0,0,0,.286-.065.658.658,0,0,0,.227-.187.907.907,0,0,0,.149-.3,1.351,1.351,0,0,0,.054-.394.94.94,0,0,0-.183-.616.645.645,0,0,0-.527-.222ZM27.847.594h-.736L26.748-.8h-1.59l-.35,1.4h-.733l1.514-5.486h.756ZM26.57-1.544l-.561-2.188a3.41,3.41,0,0,1-.054-.344h-.011a2.935,2.935,0,0,1-.056.344l-.555,2.188Zm4.9-3.347L30.015.594h-.75L27.839-4.892h.733l1,4.162a3.373,3.373,0,0,1,.073.463h.011a3.187,3.187,0,0,1,.082-.471l1.021-4.155ZM34.491.594H32.222V-4.892H34.4v.773H32.893v1.553h1.39V-1.8h-1.39V-.175h1.6Zm3.177,0H35.43V-4.892H36.1V-.175h1.567Zm6.384.329L43.688.469a.832.832,0,0,0,.191-.611V-1.27h-.906v.838L42-1.646l.219-.125c.479-.274.762-.509.762-1.1V-3.66c0-.415-.15-.619-.456-.619H40.593c-.306,0-.456.2-.456.619v.752a1.68,1.68,0,0,0,.52,1.16l-.15.086c-.485.259-.641.439-.641.893v.744c0,.415.15.619.456.619h2.194l.26.329ZM41.257-2.908v-.666c0-.2.029-.243.179-.243h.254c.15,0,.179.039.179.243v.87c0,.219-.11.321-.341.462A.977.977,0,0,1,41.257-2.908Zm-.1,3.04c-.15,0-.179-.039-.179-.243V-.832a.336.336,0,0,1,.156-.321L42.152.132Zm8.635.462h-.736L48.695-.8H47.1l-.35,1.4h-.733l1.514-5.486h.756ZM48.517-1.544l-.561-2.188a3.416,3.416,0,0,1-.054-.344h-.011a2.941,2.941,0,0,1-.056.344l-.555,2.188Zm6.87-3.347L54.279.594h-.758l-.77-3.837a3.5,3.5,0,0,1-.059-.536H52.68a3.451,3.451,0,0,1-.068.528L51.84.594h-.775l-1.13-5.486h.736L51.4-.875a3.912,3.912,0,0,1,.056.528h.014a3.957,3.957,0,0,1,.079-.528l.829-4.017h.691l.767,4.048a4.207,4.207,0,0,1,.059.49h.011a4,4,0,0,1,.065-.5l.719-4.032Zm3.9,5.486h-.736L58.183-.8h-1.59l-.35,1.4H55.51l1.514-5.486h.756ZM58.005-1.544l-.561-2.188a3.411,3.411,0,0,1-.054-.344H57.38a2.939,2.939,0,0,1-.056.344l-.555,2.188ZM63.181.594H62.4L61.752-.875a3.31,3.31,0,0,0-.171-.346,1.292,1.292,0,0,0-.169-.235.542.542,0,0,0-.187-.134A.591.591,0,0,0,61-1.632h-.271V.594h-.668V-4.892h1.331a1.454,1.454,0,0,1,.524.092,1.131,1.131,0,0,1,.417.277,1.294,1.294,0,0,1,.278.463,1.909,1.909,0,0,1,.1.648,2.11,2.11,0,0,1-.063.534,1.573,1.573,0,0,1-.18.432,1.276,1.276,0,0,1-.282.323,1.236,1.236,0,0,1-.371.207V-1.9A1.117,1.117,0,0,1,62-1.714q.082.1.155.209a2.515,2.515,0,0,1,.145.243q.072.136.159.316ZM60.725-4.153V-2.37h.558a.635.635,0,0,0,.286-.065.658.658,0,0,0,.227-.187.907.907,0,0,0,.149-.3A1.35,1.35,0,0,0,62-3.315a.94.94,0,0,0-.183-.616.645.645,0,0,0-.527-.222ZM63.871.594V-4.892h1.167q2.236,0,2.236,2.674a3.159,3.159,0,0,1-.62,2.041A2.025,2.025,0,0,1,64.99.594Zm.668-4.713V-.175h.536a1.294,1.294,0,0,0,1.1-.528,2.459,2.459,0,0,0,.393-1.492q0-1.924-1.469-1.924Zm3.507,4.5V-.561a1.127,1.127,0,0,0,.221.207,1.506,1.506,0,0,0,.272.155,1.7,1.7,0,0,0,.288.1,1.144,1.144,0,0,0,.265.034.9.9,0,0,0,.63-.191.718.718,0,0,0,.207-.555.773.773,0,0,0-.069-.339.905.905,0,0,0-.193-.262,1.991,1.991,0,0,0-.292-.228q-.168-.109-.359-.228-.206-.149-.383-.3a1.872,1.872,0,0,1-.309-.339,1.528,1.528,0,0,1-.206-.419,1.8,1.8,0,0,1-.075-.547,1.624,1.624,0,0,1,.128-.671,1.364,1.364,0,0,1,.338-.471,1.376,1.376,0,0,1,.478-.275,1.708,1.708,0,0,1,.547-.09,1.7,1.7,0,0,1,.925.2v.9a1.212,1.212,0,0,0-.885-.337,1.184,1.184,0,0,0-.3.038.747.747,0,0,0-.265.126.673.673,0,0,0-.19.226.7.7,0,0,0-.073.333.815.815,0,0,0,.056.318.784.784,0,0,0,.165.245,1.684,1.684,0,0,0,.265.216q.156.105.362.228a4.8,4.8,0,0,1,.4.314,2.137,2.137,0,0,1,.33.363,1.7,1.7,0,0,1,.226.442,1.7,1.7,0,0,1,.083.553,1.773,1.773,0,0,1-.124.7,1.261,1.261,0,0,1-.334.467,1.3,1.3,0,0,1-.483.26,2.04,2.04,0,0,1-.578.08,1.823,1.823,0,0,1-.25-.021,2.756,2.756,0,0,1-.3-.061,2.205,2.205,0,0,1-.293-.1A.827.827,0,0,1,68.046.376Z" transform="translate(-11506.663 -8338.247)" fill="#c22026"/></g></g></svg>