<svg xmlns="http://www.w3.org/2000/svg" width="165.738" height="171.415" viewBox="0 0 165.738 171.415">
  <g id="Group_7621" data-name="Group 7621" transform="translate(-83 -30.514)">
    <g id="Group_7620" data-name="Group 7620" transform="translate(83 30.514)">
      <path id="Path_86306" data-name="Path 86306" d="M55.6,54.586h3.7l79.347,106.036H-23.743Zm33.712,96.169L40.529,86.8l-49.2,63.952H89.316Z" transform="translate(23.743 -54.586)" fill="#c22026"/>
      <path id="Path_86305" data-name="Path 86305" d="M-88.386-4.15V-46.213H-76.77q22.234,0,22.234,20.5,0,9.738-6.175,15.649T-77.24-4.15Zm4.928-37.6V-8.608h6.277q8.272,0,12.877-4.429T-59.7-25.592q0-16.162-17.189-16.162Zm61.769,37.6H-43.982V-46.213h21.354v4.459H-39.054v13.992h15.194v4.429H-39.054V-8.608h17.365Zm32.2,0H-11.31V-46.213h4.928v37.6h16.9Zm29.5-37.6H27.873v37.6H22.945v-37.6H10.831v-4.459H40.017ZM77.352-4.15H71.9L67.438-15.942H49.6L45.409-4.15H39.924L56.057-46.213h5.1ZM65.824-20.371l-6.6-17.922a17.161,17.161,0,0,1-.645-2.816h-.117a15.711,15.711,0,0,1-.675,2.816L51.246-20.371Z" transform="translate(88.386 163.156)" fill="#c22026"/>
    </g>
    <path id="Path_86308" data-name="Path 86308" d="M-108.337-1.195V-4.921h1.076q2.061,0,2.061,1.816a1.79,1.79,0,0,1-.572,1.386,2.182,2.182,0,0,1-1.533.524Zm.616-3.2v2.679h.494a1.381,1.381,0,0,0,1.015-.359,1.362,1.362,0,0,0,.363-1.013A1.176,1.176,0,0,0-107.2-4.4Zm4.038,3.2h-.637V-4.921h.637Zm.948-.148v-.637a.983.983,0,0,0,.2.14,1.576,1.576,0,0,0,.251.105,1.976,1.976,0,0,0,.265.066,1.413,1.413,0,0,0,.244.023,1.043,1.043,0,0,0,.581-.13A.427.427,0,0,0-101-2.151a.411.411,0,0,0-.064-.23.668.668,0,0,0-.178-.178,1.87,1.87,0,0,0-.269-.155q-.155-.074-.331-.155-.19-.1-.353-.205a1.522,1.522,0,0,1-.285-.23.962.962,0,0,1-.19-.285.927.927,0,0,1-.069-.372.858.858,0,0,1,.118-.456,1,1,0,0,1,.312-.32,1.43,1.43,0,0,1,.44-.187,2.092,2.092,0,0,1,.5-.061,2.035,2.035,0,0,1,.852.133v.611a1.361,1.361,0,0,0-.816-.229,1.462,1.462,0,0,0-.274.026.815.815,0,0,0-.244.086.529.529,0,0,0-.175.153.376.376,0,0,0-.068.226.427.427,0,0,0,.052.216.556.556,0,0,0,.152.166,1.554,1.554,0,0,0,.244.147q.144.071.334.155.195.1.368.213a1.734,1.734,0,0,1,.3.247,1.084,1.084,0,0,1,.208.3.881.881,0,0,1,.077.375.93.93,0,0,1-.114.478.921.921,0,0,1-.308.317,1.371,1.371,0,0,1-.446.177,2.513,2.513,0,0,1-.533.055,2.269,2.269,0,0,1-.23-.014q-.136-.014-.279-.042a2.57,2.57,0,0,1-.27-.066A.856.856,0,0,1-102.736-1.343ZM-97.074-4.4h-1.071v3.2h-.618V-4.4h-1.068v-.525h2.757Zm3.627,3.2h-.722l-.6-1a2.086,2.086,0,0,0-.157-.235.947.947,0,0,0-.156-.16.526.526,0,0,0-.173-.091.719.719,0,0,0-.21-.029h-.249v1.512h-.616V-4.921H-95.1a1.774,1.774,0,0,1,.483.062,1.123,1.123,0,0,1,.385.188.879.879,0,0,1,.256.314.991.991,0,0,1,.092.44,1.079,1.079,0,0,1-.058.363.942.942,0,0,1-.166.294,1.017,1.017,0,0,1-.26.22,1.3,1.3,0,0,1-.342.14v.01a.959.959,0,0,1,.177.126q.075.069.143.142a1.7,1.7,0,0,1,.134.165q.066.092.147.214ZM-95.71-4.42v1.211h.515a.763.763,0,0,0,.264-.044.6.6,0,0,0,.209-.127.576.576,0,0,0,.138-.2.7.7,0,0,0,.049-.268.532.532,0,0,0-.169-.418.707.707,0,0,0-.486-.151Zm3.534,3.225h-.637V-4.921h.637Zm1.12,0V-4.921h1.182a1.4,1.4,0,0,1,.856.236.735.735,0,0,1,.316.616.879.879,0,0,1-.179.551.967.967,0,0,1-.5.333v.01a.972.972,0,0,1,.615.285.867.867,0,0,1,.23.625.939.939,0,0,1-.377.774,1.492,1.492,0,0,1-.951.3Zm.616-3.23v1.06h.4a.768.768,0,0,0,.505-.152.528.528,0,0,0,.183-.43q0-.478-.639-.478Zm0,1.557v1.18h.528a.8.8,0,0,0,.534-.16.547.547,0,0,0,.188-.44q0-.579-.8-.579Zm5.667.166q0,1.57-1.486,1.57-1.424,0-1.424-1.51V-4.921h.618v2.152q0,1.1.852,1.1.821,0,.821-1.058V-4.921h.618ZM-81.305-4.4h-1.071v3.2h-.618V-4.4h-1.068v-.525h2.757Zm1.382,3.2h-.637V-4.921h.637Zm2.655.062a1.676,1.676,0,0,1-1.29-.522,1.919,1.919,0,0,1-.485-1.359,2.033,2.033,0,0,1,.494-1.434,1.735,1.735,0,0,1,1.341-.535,1.639,1.639,0,0,1,1.264.52A1.925,1.925,0,0,1-75.465-3.1a2.039,2.039,0,0,1-.491,1.442A1.7,1.7,0,0,1-77.268-1.132Zm.029-3.308a1.037,1.037,0,0,0-.833.382,1.511,1.511,0,0,0-.321,1.006,1.526,1.526,0,0,0,.312,1,1,1,0,0,0,.816.379,1.054,1.054,0,0,0,.845-.361,1.507,1.507,0,0,0,.309-1.011,1.58,1.58,0,0,0-.3-1.032A1.015,1.015,0,0,0-77.239-4.44Zm5.82,3.246h-.676l-1.78-2.739a1.215,1.215,0,0,1-.112-.216H-74a3.837,3.837,0,0,1,.021.512v2.443h-.6V-4.921h.72l1.72,2.674q.109.166.14.229h.01a3.312,3.312,0,0,1-.026-.5v-2.4h.6Zm4.728,0h-2.092V-4.921h2.009V-4.4h-1.39v1.055h1.281v.522h-1.281v1.1h1.473Zm4.025,0h-.676l-1.78-2.739a1.214,1.214,0,0,1-.112-.216h-.016a3.84,3.84,0,0,1,.021.512v2.443h-.6V-4.921h.72l1.72,2.674q.109.166.14.229h.01a3.312,3.312,0,0,1-.026-.5v-2.4h.6Zm4.033-.255a2.666,2.666,0,0,1-1.3.317,1.8,1.8,0,0,1-1.338-.515,1.846,1.846,0,0,1-.512-1.362,1.913,1.913,0,0,1,.56-1.42A1.937,1.937,0,0,1-59.8-4.983a2.65,2.65,0,0,1,1.045.182v.637a1.8,1.8,0,0,0-1.021-.286,1.3,1.3,0,0,0-.976.392,1.4,1.4,0,0,0-.381,1.016,1.464,1.464,0,0,0,.327,1.01,1.13,1.13,0,0,0,.889.368,1.407,1.407,0,0,0,.665-.148V-2.7h-.785v-.52h1.4Zm4.066.255h-.678l-.335-.948h-1.466l-.322.948h-.676l1.4-3.726h.7Zm-1.177-1.453-.517-1.486a1.76,1.76,0,0,1-.049-.234h-.01a1.52,1.52,0,0,1-.052.234l-.512,1.486Zm4.737,1.2a2.666,2.666,0,0,1-1.3.317,1.8,1.8,0,0,1-1.338-.515,1.846,1.846,0,0,1-.512-1.362,1.913,1.913,0,0,1,.56-1.42,1.937,1.937,0,0,1,1.423-.555,2.65,2.65,0,0,1,1.045.182v.637a1.8,1.8,0,0,0-1.021-.286,1.3,1.3,0,0,0-.976.392,1.4,1.4,0,0,0-.381,1.016,1.464,1.464,0,0,0,.327,1.01,1.13,1.13,0,0,0,.889.368,1.407,1.407,0,0,0,.665-.148V-2.7h-.785v-.52h1.4Zm3.1.255H-50V-4.921h2.009V-4.4h-1.39v1.055H-48.1v.522h-1.281v1.1h1.473Zm4.867,0h-.613V-3.606q0-.3.036-.725h-.01a2.5,2.5,0,0,1-.1.351l-1.112,2.786h-.426L-46.386-3.96a2.6,2.6,0,0,1-.1-.372h-.01q.021.223.021.73v2.406h-.572V-4.921h.871l.98,2.482a3.67,3.67,0,0,1,.146.426h.013q.1-.294.156-.437l1-2.471h.839Zm3.211,0h-2.092V-4.921h2.009V-4.4h-1.39v1.055h1.281v.522h-1.281v1.1h1.473Zm4.025,0h-.676l-1.78-2.739a1.214,1.214,0,0,1-.112-.216h-.016a3.836,3.836,0,0,1,.021.512v2.443h-.6V-4.921h.72l1.72,2.674q.109.166.14.229h.01a3.311,3.311,0,0,1-.026-.5v-2.4h.6Zm3.515-3.2h-1.071v3.2h-.618V-4.4H-35.05v-.525h2.757Zm.911,3.947.74-1.1v-.463h-1.107V-.45Zm5.232-.745h-2.063V-4.921h.618v3.2h1.445Zm2.832,0H-25.41V-4.921H-23.4V-4.4h-1.39v1.055h1.281v.522h-1.281v1.1h1.473Zm3.975,0h-.678l-.335-.948h-1.466l-.322.948h-.676l1.4-3.726h.7ZM-20.52-2.647l-.517-1.486a1.76,1.76,0,0,1-.049-.234h-.01a1.521,1.521,0,0,1-.052.234l-.512,1.486Zm1.891,1.453V-4.921h1.076q2.061,0,2.061,1.816a1.79,1.79,0,0,1-.572,1.386,2.182,2.182,0,0,1-1.533.524Zm.616-3.2v2.679h.494A1.381,1.381,0,0,0-16.5-2.076a1.362,1.362,0,0,0,.363-1.013A1.176,1.176,0,0,0-17.5-4.4Zm5.5,3.2h-2.092V-4.921H-12.6V-4.4h-1.39v1.055h1.281v.522h-1.281v1.1h1.473Zm3.744,0H-9.5l-.6-1a2.084,2.084,0,0,0-.157-.235.947.947,0,0,0-.156-.16.526.526,0,0,0-.173-.091.719.719,0,0,0-.21-.029h-.249v1.512h-.616V-4.921h1.227a1.774,1.774,0,0,1,.483.062,1.123,1.123,0,0,1,.385.188.879.879,0,0,1,.256.314.991.991,0,0,1,.092.44,1.079,1.079,0,0,1-.058.363.943.943,0,0,1-.166.294,1.017,1.017,0,0,1-.26.22,1.3,1.3,0,0,1-.342.14v.01a.959.959,0,0,1,.177.126q.075.069.143.142a1.7,1.7,0,0,1,.134.165q.066.092.147.214ZM-11.037-4.42v1.211h.515a.763.763,0,0,0,.264-.044.6.6,0,0,0,.209-.127.576.576,0,0,0,.138-.2.7.7,0,0,0,.049-.268.532.532,0,0,0-.169-.418.707.707,0,0,0-.486-.151Zm2.728,3.077v-.637a.983.983,0,0,0,.2.14,1.576,1.576,0,0,0,.251.105,1.976,1.976,0,0,0,.265.066,1.413,1.413,0,0,0,.244.023,1.042,1.042,0,0,0,.581-.13.427.427,0,0,0,.191-.377.411.411,0,0,0-.064-.23.668.668,0,0,0-.178-.178,1.87,1.87,0,0,0-.269-.155q-.155-.074-.331-.155-.19-.1-.353-.205a1.521,1.521,0,0,1-.285-.23.962.962,0,0,1-.19-.285.927.927,0,0,1-.069-.372.858.858,0,0,1,.118-.456,1,1,0,0,1,.312-.32,1.429,1.429,0,0,1,.44-.187,2.092,2.092,0,0,1,.5-.061,2.035,2.035,0,0,1,.852.133v.611A1.361,1.361,0,0,0-6.9-4.469a1.462,1.462,0,0,0-.274.026.815.815,0,0,0-.244.086.529.529,0,0,0-.175.153.376.376,0,0,0-.068.226.428.428,0,0,0,.052.216.556.556,0,0,0,.152.166,1.553,1.553,0,0,0,.244.147q.144.071.334.155.195.1.368.213a1.733,1.733,0,0,1,.3.247,1.085,1.085,0,0,1,.208.3.881.881,0,0,1,.077.375.93.93,0,0,1-.114.478.922.922,0,0,1-.308.317,1.372,1.372,0,0,1-.446.177,2.513,2.513,0,0,1-.533.055,2.268,2.268,0,0,1-.23-.014q-.136-.014-.279-.042a2.57,2.57,0,0,1-.27-.066A.856.856,0,0,1-8.308-1.343Zm6.265.148h-.621V-2.811H-4.419v1.616h-.618V-4.921h.618v1.567h1.754V-4.921h.621Zm1.756,0H-.924V-4.921h.637ZM1.448-2.546v1.351H.832V-4.921h1.13a1.5,1.5,0,0,1,1,.3,1.042,1.042,0,0,1,.353.842,1.163,1.163,0,0,1-.369.889,1.4,1.4,0,0,1-1,.346Zm0-1.866V-3.05h.4a.885.885,0,0,0,.605-.184.659.659,0,0,0,.208-.52q0-.657-.764-.657ZM4.307-.45l.74-1.1v-.463H3.94V-.45ZM9.867-4.4H8.8v3.2H8.178V-4.4H7.11v-.525H9.867Zm3.627,3.2h-.722l-.6-1a2.084,2.084,0,0,0-.157-.235.946.946,0,0,0-.156-.16.526.526,0,0,0-.173-.091.719.719,0,0,0-.21-.029h-.249v1.512h-.616V-4.921h1.227a1.774,1.774,0,0,1,.483.062,1.123,1.123,0,0,1,.385.188.879.879,0,0,1,.256.314.991.991,0,0,1,.092.44A1.079,1.079,0,0,1,13-3.553a.943.943,0,0,1-.166.294,1.017,1.017,0,0,1-.26.22,1.3,1.3,0,0,1-.342.14v.01a.959.959,0,0,1,.177.126q.075.069.143.142a1.7,1.7,0,0,1,.134.165q.066.092.147.214ZM11.231-4.42v1.211h.515a.763.763,0,0,0,.264-.044.6.6,0,0,0,.209-.127.576.576,0,0,0,.138-.2.7.7,0,0,0,.049-.268.532.532,0,0,0-.169-.418.707.707,0,0,0-.486-.151Zm5.961,3.225h-.678l-.335-.948H14.712l-.322.948h-.676l1.4-3.726h.7ZM16.014-2.647,15.5-4.134a1.761,1.761,0,0,1-.049-.234h-.01a1.521,1.521,0,0,1-.052.234l-.512,1.486Zm4.513-2.274L19.189-1.195H18.5L17.183-4.921h.676l.92,2.827a1.744,1.744,0,0,1,.068.314h.01a1.656,1.656,0,0,1,.075-.32l.941-2.822Zm2.788,3.726H21.223V-4.921h2.009V-4.4h-1.39v1.055h1.281v.522H21.842v1.1h1.473Zm2.928,0H24.18V-4.921H24.8v3.2h1.445Zm5.884.224-.335-.309a.479.479,0,0,0,.176-.415v-.766h-.836v.569l-.894-.825.2-.085c.442-.186.7-.346.7-.745v-.538a.37.37,0,0,0-.42-.42H28.94a.37.37,0,0,0-.42.42v.511c0,.319.154.484.479.788l-.138.059c-.447.176-.591.3-.591.607v.506a.37.37,0,0,0,.42.42h2.022l.239.224Zm-2.576-2.6v-.452c0-.138.027-.165.165-.165h.234c.138,0,.165.027.165.165v.591c0,.149-.1.218-.314.314A.584.584,0,0,1,29.552-3.574Zm-.09,2.065c-.138,0-.165-.027-.165-.165v-.49a.217.217,0,0,1,.144-.218l.937.873Zm7.959.314h-.678l-.335-.948H34.942l-.322.948h-.676l1.4-3.726h.7ZM36.244-2.647l-.517-1.486a1.762,1.762,0,0,1-.049-.234h-.01a1.522,1.522,0,0,1-.052.234L35.1-2.647Zm6.332-2.274L41.555-1.195h-.7L40.146-3.8a1.782,1.782,0,0,1-.055-.364h-.01a1.765,1.765,0,0,1-.062.359l-.712,2.612h-.715L37.55-4.921h.678L38.9-2.193a1.988,1.988,0,0,1,.052.359h.013a2.035,2.035,0,0,1,.073-.359l.764-2.728h.637l.707,2.749a2.146,2.146,0,0,1,.055.333h.01a2.043,2.043,0,0,1,.06-.343l.663-2.739Zm3.591,3.726h-.678l-.335-.948H43.688l-.322.948H42.69l1.4-3.726h.7ZM44.989-2.647l-.517-1.486a1.761,1.761,0,0,1-.049-.234h-.01a1.522,1.522,0,0,1-.052.234l-.512,1.486ZM49.76-1.195h-.722l-.6-1a2.084,2.084,0,0,0-.157-.235.947.947,0,0,0-.156-.16.526.526,0,0,0-.173-.091.719.719,0,0,0-.21-.029H47.5v1.512h-.616V-4.921h1.227a1.774,1.774,0,0,1,.483.062,1.123,1.123,0,0,1,.385.188.879.879,0,0,1,.256.314.991.991,0,0,1,.092.44,1.079,1.079,0,0,1-.058.363.942.942,0,0,1-.166.294,1.017,1.017,0,0,1-.26.22,1.3,1.3,0,0,1-.342.14v.01a.959.959,0,0,1,.177.126q.075.069.143.142a1.7,1.7,0,0,1,.134.165q.066.092.147.214ZM47.5-4.42v1.211h.515a.763.763,0,0,0,.264-.044.6.6,0,0,0,.209-.127.576.576,0,0,0,.138-.2.7.7,0,0,0,.049-.268.532.532,0,0,0-.169-.418.707.707,0,0,0-.486-.151Zm2.9,3.225V-4.921h1.076q2.061,0,2.061,1.816a1.79,1.79,0,0,1-.572,1.386,2.182,2.182,0,0,1-1.533.524Zm.616-3.2v2.679h.494a1.38,1.38,0,0,0,1.015-.359,1.362,1.362,0,0,0,.363-1.013A1.176,1.176,0,0,0,51.529-4.4Zm3.232,3.053v-.637a.983.983,0,0,0,.2.14,1.576,1.576,0,0,0,.251.105,1.976,1.976,0,0,0,.265.066,1.413,1.413,0,0,0,.244.023,1.043,1.043,0,0,0,.581-.13.427.427,0,0,0,.191-.377.411.411,0,0,0-.064-.23.668.668,0,0,0-.178-.178,1.87,1.87,0,0,0-.269-.155q-.155-.074-.331-.155-.19-.1-.353-.205A1.521,1.521,0,0,1,54.5-3.3a.962.962,0,0,1-.19-.285.927.927,0,0,1-.069-.372.858.858,0,0,1,.118-.456,1,1,0,0,1,.312-.32,1.43,1.43,0,0,1,.44-.187,2.092,2.092,0,0,1,.5-.061,2.035,2.035,0,0,1,.852.133v.611a1.361,1.361,0,0,0-.816-.229,1.462,1.462,0,0,0-.274.026.815.815,0,0,0-.244.086.529.529,0,0,0-.175.153.376.376,0,0,0-.068.226.428.428,0,0,0,.052.216A.556.556,0,0,0,55.1-3.6a1.554,1.554,0,0,0,.244.147q.144.071.334.155.195.1.368.213a1.733,1.733,0,0,1,.3.247,1.085,1.085,0,0,1,.208.3.881.881,0,0,1,.077.375.931.931,0,0,1-.114.478.921.921,0,0,1-.308.317,1.372,1.372,0,0,1-.446.177,2.513,2.513,0,0,1-.533.055A2.268,2.268,0,0,1,55-1.147q-.136-.014-.279-.042a2.57,2.57,0,0,1-.27-.066A.856.856,0,0,1,54.244-1.343Z" transform="translate(191.841 202.378)" fill="#c22026"/>
  </g>
</svg>
