<svg xmlns="http://www.w3.org/2000/svg" width="28.553" height="28.5" viewBox="0 0 28.553 28.5">
  <path id="Path_85391" data-name="Path 85391" d="M29.728,18.527l-1.7-1.7a3.364,3.364,0,0,1-.629-.874L25.79,12.731a.618.618,0,0,0-.99-.16,1.235,1.235,0,0,1-1.213.314l-1.9-.542a1.329,1.329,0,0,0-1.1,2.383l.877.583a1.682,1.682,0,0,1,.257,2.587l-.3.3a1.68,1.68,0,0,0-.493,1.189v.612a3.352,3.352,0,0,1-.478,1.73L18.483,25a3.152,3.152,0,0,1-2.7,1.531A1.576,1.576,0,0,1,14.2,24.953V23.2a3.361,3.361,0,0,0-2.112-3.121l-.978-.39a3.361,3.361,0,0,1-2.066-3.675l.01-.063a3.361,3.361,0,0,1,.433-1.176l.134-.224a3.361,3.361,0,0,1,3.54-1.566l1.76.353a1.681,1.681,0,0,0,1.945-1.188l.311-1.09A1.681,1.681,0,0,0,16.317,9.1l-.993-.5-.136.136a3.361,3.361,0,0,1-2.377.984h-.269a1.4,1.4,0,0,0-.989.409,1.391,1.391,0,0,1-2.178-1.7L11.483,4.92a3.361,3.361,0,0,0,.427-1.135M29.728,18.527A13.444,13.444,0,0,0,11.91,3.786M29.728,18.527A13.444,13.444,0,1,1,11.91,3.786" transform="translate(-2.236 -2.136)" fill="none" stroke="#000" stroke-linecap="round" stroke-linejoin="round" stroke-width="1.5" opacity="0.59"/>
</svg>
