<?xml version="1.0" encoding="UTF-8"?>
<svg id="Layer_1" data-name="Layer 1" xmlns="http://www.w3.org/2000/svg" version="1.1" viewBox="0 0 48 48">
  <defs>
    <style>
      .cls-1 {
        fill: #fff;
      }

      .cls-1, .cls-2 {
        stroke-width: 0px;
      }

      .cls-2 {
        fill: #c21b17;
      }
    </style>
  </defs>
  <rect class="cls-2" x="0" width="48" height="48"/>
  <g>
    <path class="cls-1" d="M14,34.1v-2.2c1.4,0,1.9,0,2.1,1.6h.1v-1.9h-3.8v.3h.7v4.9h-.7v.3h3.9v-2h-.2c-.2,1.5-.6,1.7-1.6,1.7h-.5v-2.4h.3c.5,0,.8.3.8,1.1h.2v-2.4s-.2,0-.2,0c0,0,0,1.1-.9,1h-.3Z"/>
    <path class="cls-1" d="M12.5,34.2h-2.1v.2h.7v1.7c-.1.4-.8.6-1,.6-1.4,0-1.3-2-1.3-2.5s0-2.5,1.3-2.5,1.4.9,1.6,1.7h.1c0-.3,0-2,0-2,0,0-.6.5-.6.4,0,0-.3-.4-1.1-.4-1.6,0-2.2,1.6-2.2,2.7,0,1,.5,2.8,2.2,2.8s.9-.3,1.1-.6c0,0,.7.5.7.5v-2.6h.6v-.2Z"/>
    <path class="cls-1" d="M37.4,35c-.2,1.5-.6,1.7-1.6,1.7h0v-4.9h.7v-.3h-2.2v.3h.7v4.9h-.5l-2-5.3h-.3s-1.6,4.8-1.7,4.8c0,0-.1.4-.4.5-.3,0-.2-.1-.2-.2v-.9c0-.2,0-.8-.3-1-.3-.3-.8-.3-.8-.3,0,0,1.2-.3,1.2-1.4s-.6-1.2-1.5-1.3h-2.7v.3h.7v4.9h-.7v.3h2.2v-.3h-.7v-2.3h.9c1.6.1-.3,2.6,1.8,2.6h1.3v-.3c0,0-.6,0-.6-.3,0-.2.3-1.1.3-1.1h1.8s.6,1.4.6,1.4h-.6v.3h4.9v-2h-.2ZM28.1,34.1h-.9v-2.3h1.1c.7,0,.7.9.7,1.1,0,.6-.2,1.2-.9,1.2M31.1,35l.8-2.3.8,2.3h-1.6Z"/>
    <path class="cls-1" d="M23,31.8c1.4,0,1.9,0,2.1,1.6h.1v-1.9h-5.5v.3h.1c.2,0,.7,0,.7.4v3.1l-2.6-3.8h-1.4v.3h.2c.3,0,.7,0,.7.4v4c0,.4-.6.5-.8.5h0v.2h1.9v-.2c-.2,0-.8-.1-.8-.5v-3.5c1,1.5,2.9,4.2,3,4.2h0v-4.7c0-.4.5-.4.7-.4h.6v4.9h-.7v.3h3.9v-2h-.2c-.2,1.5-.6,1.7-1.6,1.7h-.5v-2.4h.3c.5,0,.8.3.8,1.1h.2v-2.4s-.2,0-.2,0c0,0,0,1-.9,1h-.3v-2.2Z"/>
    <polygon class="cls-1" points="40 31.8 40 31.6 37.8 31.6 37.8 31.8 38.5 31.8 38.5 36.7 37.8 36.7 37.8 37 40 37 40 36.7 39.3 36.7 39.3 31.8 40 31.8"/>
    <path class="cls-1" d="M34.2,28.3l.7-.3h0c1-.4,1.1-.7,1.1-1.3v-2.6c.7,1.9,1.4,3.2,2.8,3.2s.4,0,.6,0h.6c0-.1-.4-.5-.4-.5-.2-.3-.4-.5-.5-.7,0,0-.1-.2-.2-.3-.3-.5-1.1-.7-1.8-.4-.3-.6-.6-1.3-.9-2.3v-.2c-.1-.1-.2-.3-.3-.4h0s0,0,0,0c-.2-.5-.5-1-.7-1.4-.3-.4-.5-.8-.8-1.1-.7-.9-1.7-1.4-2.9-1.6-.8-.1-1.4-.2-2.2-.2-.2,0-.3,0-.5,0-.3,0-1,0-1.7-.1-.5,0-.9,0-1.3-.1,0-.1,0-.2,0-.3s0-.3,0-.4h4.8c1.2,0,2.1-.5,2.6-1.6,1.2,0,2.1-.6,2.6-1.6h.2c1.3,0,2.2-.6,2.7-1.7l.2-.5h-16.1c-1.1,0-2,.7-2.3,1.8h0c-.3-.7-.8-1.4-1.4-1.8-.9-.5-1.9-.7-2.7-.5-.3,0-.5.2-.8.3-.2.1-.4.3-.6.6-.2.3-.4.6-.6.9,0,0-.2.2-.2.2l-.2.4h0c-.2.5-.5.9-.7,1.2-.2.3-.2.5-.2.6,0,.2.1.3.2.4h0c0,.1,0,.2,0,.4,0,.4.4.7.8.7s.6-.2.9-.3c.1,0,.4-.3.5-.3.1,0,.2.1.2.2,0,.3-.4.5-.8.6h-.7c-.5.1-.7.4-.7.6s.1.3.2.4h0s.2.2.2.2l-.7,1.1c-.5-.5-1.1-.7-1.6-.8-.3,0-.6,0-.8.3,0,0-.1.1-.2.2h0c-.5,0-1,.3-1.2.6-.2.4-.2,1,.1,1.5l-1.8.5v8.4h32.1v-1.7h-5.8ZM38.4,26c0,.1.1.2.2.3,0,.1.1.2.2.3-.5,0-.9-.3-1.2-.8.3-.1.7,0,.9.2M31.4,18.8c1,.2,1.9.6,2.5,1.4.1.2.3.3.4.5-1.7-.2-2.3-.5-3.3-2,.1,0,.3,0,.4,0M30.7,16.3h-3.3c.3-.2.5-.6.7-.9h4.4c-.4.6-1,.9-1.9.9M33.3,14.7h-3.3c.3-.3.5-.6.7-1h4.4c-.4.7-1,1-1.9,1M33.5,12.2h4.4c-.4.6-1,.9-1.8.9h-3.3c.3-.2.5-.5.7-.9M15.6,12.4c.1-.1.3-.3.5-.4.2-.1.4-.2.6-.3.3,0,.7,0,1.1,0l-1.2.7c-.1,0-.3,0-.4,0-.2,0-.4,0-.6,0,0,0,0,0,0,0M14.2,17.6s0,0,0,0h.6c.7,0,1.4-.3,1.5-1,0-.5-.3-1-.8-1s-.6.2-.9.4c-.2.1-.4.3-.5.3s-.2,0-.2-.1,0,0,0,0l.4-.5-.3-.2c0,0-.2-.1-.2-.2,0,0,0,0,0,0,.1-.2.3-.3.4-.6,0-.1.1-.2.3-.2s.3.1.3.3.1.2.2.2.2,0,.3-.2c0,0,.3-.3.2-.4-.2-.2-1,.2-.8-.6h0c0-.2.5-.5,1.2-.5s.3,0,.5,0h.1s1.7-1,1.7-1c0,0,0,0,0,0h0c0,.5-.2,1.1-.7,1.4h-.2c0,.1.1.9.1.9-.4.1-.7.5-.7.9s0,.3,0,.5c0,.2,0,.5.1.8,0,.8-1.1,1.3-2,1.3h0s-.6,0-.8-.2c0,0,0,0,0-.1M10.1,20c.1-.2.4-.4.8-.3h.3s0-.2,0-.2c0,0,0-.1.1-.2,0,0,.2-.1.4-.1.4,0,.9.3,1.3.7.1.2.3.3.4.5,0,0,0,0,0,.1,0,0,0,0,0,.1,0,0,.2.3.2.3.1-.2.3-.4.4-.6,0,0,0,0,0,0,0,0-.1-.2-.1-.2,0,0,0,0,0,0,0,0,0,0,0,0,0,0,0,0,0,0,0,0-.1-.2-.1-.2l.9-1.4c.2,0,.4,0,.5,0h0c1.2,0,2.5-.7,2.5-1.9h0c0-.3,0-.7-.1-.9,0-.2,0-.3,0-.4,0-.1.2-.3.4-.3h.4l-.2-1c.6-.4.9-1.1.9-1.7.6.5,1,1.3,1.1,2.1,0,.2,0,.6-.1,1v.2s0,0,0,0c-.1.6-.4,1.2-.5,1.5v.3c-.1,0,.1.1.1.1.4.3.7.4.7,1s-.6,1.2-1.2,1.3h-.8c0,.1.7.6.7.6.2.1.3.4.3.6,0,.4-.4.8-.8.8h-.3v.2c-.3.8-.6,1.2-1.5,1.3,0-.2,0-.5,0-.8s0-.3,0-.4v-.8s-.6.5-.6.5c-.2.2-.5.3-.9.4v-.7l-3.8-1-1.4.4c-.3-.3-.4-.8-.3-.9M9,28.3l2.7-.7,2.7.7h-5.5ZM14.9,27.7l-3.1-.8-3.1.8v-5.6l3.1-.8,3.1.8v5.6ZM16.3,26.6c-.3.4-.3,1-.1,1.7h-.7v-5.4c.2,0,.5-.1.8-.2,0,.2,0,.4,0,.7,0,0,0,.1,0,.2v.4c0,0,.3,0,.3,0,.6,0,1,0,1.4-.3v2.2c0,0,0,.1,0,.1h0c-.6,0-1.1.2-1.3.6M23.6,26.7c-.2.3-.5.8-.3,1.5h-4.1c.4,0,.8-.1,1-.4.3-.3.3-.7.3-.9,0,0,0-.1.3-.2l.4-.2-.2-.3c-.3-.5-.2-1.7,0-2.3h0c1.4,0,2.3-.3,3.2-.6.2,0,.5-.2.8-.2h0s.3,0,.7-.2l1.3,2.2h0c.1.2.1.3,0,.6l-.7.7-1.1-.2h0c-.5,0-1,.1-1.4.5M23.9,28.3c-.1-.5,0-.8.1-1.1.2-.2.5-.3.7-.3l1.3.2h0s.2,0,.2,0l.9-1h0c.2-.2.6-.7.1-1.4l-1.2-2c.2,0,.4,0,.6,0h0s.6,0,1.2.4c0,.2.2.4.3.7.3.5.6,1.1.6,1.4,0,0,.1.3-.2.6l-2.3,2.4h-2.6ZM31.7,28.3h-4.3l1.9-2c.4-.4.5-.9.3-1.3,0-.3-.3-.8-.6-1.3.7.3,1.8.6,4.1.8.3,0,.3.1.4.4v1c0,0-1.1.3-1.1.3-.4,0-.7.3-.9.7-.2.4-.1.9.1,1.4M32.2,27.1c0-.2.2-.3.4-.3l1.8-.4-.2-1.6h0c0-.2-.2-.9-1-.9-3.2-.3-3.9-.7-4.7-1.2,0,0,0,0,0,0h0s0,0,0,0c-.8-.5-1.6-.5-1.7-.5-.9,0-2,.4-2.1.4-.3,0-.5.2-.8.2-1,.3-1.9.6-3.3.6h-.3s0,.2,0,.2c0,.2-.5,1.8,0,2.8-.3.3-.3.6-.3.6,0,.3,0,.4,0,.5-.2.2-.7.2-1.2.2h-.3c-.3.5-.9.6-1.3.5-.2-.5-.2-.9,0-1.2.2-.3.6-.3.8-.3h0c.4,0,.8-.3.8-.8v-2.9c.1-.2.2-.4.3-.7.7-.1,1.2-.7,1.2-1.4s0-.5-.2-.8c.6-.3,1.2-.9,1.2-1.8s-.4-1.2-.8-1.5c.1-.3.3-.9.4-1.4l.6-2c.2-.8.9-1.3,1.7-1.3h9.8c-.4.6-1,.9-1.8.9h-5.9l-.3.7h5.3c-.4.7-1,1-1.9,1h-3.9l-.3.7h3.4c-.4.6-1,.9-1.9.9h-2.1l-.3.7h2.2s0,.1,0,.4c0,.4-.4.8-.8.8s-.3,0-.5-.1c0,0-.2,0-.3-.1l-.5.5c0,0,.2,0,.3.1.4.2.7.3,1,.3s.8-.2,1-.4c.4,0,1,0,1.6.1.7,0,1.4.1,1.7.1.2,0,.3,0,.5,0,.3,0,.6,0,.8,0,1.3,2.2,2,2.5,4.6,2.8.2.3.4.7.5,1v4.2h0c0,.2,0,.3,0,.3,0,.1-.5.3-.6.3l-2.2.8c-.3-.4-.4-.8-.3-1.1"/>
    <polygon class="cls-1" points="14.2 22.9 12.1 22.4 12.1 23.1 14.2 23.6 14.2 22.9"/>
    <polygon class="cls-1" points="9.3 23.6 11.4 23.1 11.4 22.4 9.3 22.9 9.3 23.6"/>
    <polygon class="cls-1" points="9.3 25 11.4 24.5 11.4 23.8 9.3 24.3 9.3 25"/>
    <polygon class="cls-1" points="14.2 24.3 12.1 23.8 12.1 24.5 14.2 25 14.2 24.3"/>
    <polygon class="cls-1" points="14.2 25.7 12.1 25.2 12.1 25.8 14.2 26.4 14.2 25.7"/>
    <polygon class="cls-1" points="9.3 26.4 11.4 25.8 11.4 25.2 9.3 25.7 9.3 26.4"/>
  </g>
</svg>