<svg xmlns="http://www.w3.org/2000/svg" width="21" height="19.501" viewBox="0 0 21 19.501">
  <path id="KPI_icon" data-name="KPI icon" d="M2.25,2.25a.75.75,0,0,0,0,1.5H3v10.5a3,3,0,0,0,3,3H7.21L6.038,20.763a.75.75,0,1,0,1.424.474l.329-.987h8.418l.33.987a.75.75,0,0,0,1.422-.474l-1.17-3.513H18a3,3,0,0,0,3-3V3.75h.75a.75.75,0,0,0,0-1.5Zm6.04,16.5.5-1.5h6.42l.5,1.5Zm7.46-12a.75.75,0,0,0-1.5,0v6a.75.75,0,0,0,1.5,0ZM12.75,9a.75.75,0,0,0-1.5,0v3.75a.75.75,0,0,0,1.5,0Zm-3,2.25a.75.75,0,0,0-1.5,0v1.5a.75.75,0,0,0,1.5,0Z" transform="translate(-1.5 -2.25)" fill-rule="evenodd"/>
</svg>
