<svg xmlns="http://www.w3.org/2000/svg" xmlns:xlink="http://www.w3.org/1999/xlink" width="1920" height="1080" viewBox="0 0 1920 1080">
  <defs>
    <clipPath id="clip-path">
      <rect id="Rectangle_4314" data-name="Rectangle 4314" width="1920" height="1080" fill="none"/>
    </clipPath>
    <linearGradient id="linear-gradient" x1="0.572" y1="0.5" x2="1" y2="0.453" gradientUnits="objectBoundingBox">
      <stop offset="0" stop-color="#c02626"/>
      <stop offset="1" stop-color="#831d18"/>
    </linearGradient>
    <filter id="Rectangle_4306" x="-43" y="-44" width="2010" height="1173" filterUnits="userSpaceOnUse">
      <feOffset dx="2" dy="2" input="SourceAlpha"/>
      <feGaussianBlur stdDeviation="15" result="blur"/>
      <feFlood flood-opacity="0.451"/>
      <feComposite operator="in" in2="blur"/>
      <feComposite in="SourceGraphic"/>
    </filter>
    <clipPath id="clip-path-2">
      <rect id="Rectangle_4297" data-name="Rectangle 4297" width="2455.657" height="1431.78" transform="translate(0 0)" fill="#fff"/>
    </clipPath>
  </defs>
  <g id="Mask_Group_22" data-name="Mask Group 22" clip-path="url(#clip-path)">
    <g id="Group_7521" data-name="Group 7521">
      <g transform="matrix(1, 0, 0, 1, 0, 0)" filter="url(#Rectangle_4306)">
        <path id="Rectangle_4306-2" data-name="Rectangle 4306" d="M0,0H1920a0,0,0,0,1,0,0V1068a15,15,0,0,1-15,15H15a15,15,0,0,1-15-15V0A0,0,0,0,1,0,0Z" transform="translate(0 -1)" fill="url(#linear-gradient)"/>
      </g>
      <g id="Group_7520" data-name="Group 7520" transform="translate(-1015.705 71.95)">
        <g id="Group_4536" data-name="Group 4536" transform="matrix(0.946, 0.326, -0.326, 0.946, 906.992, -735.674)" opacity="0.63">
          <g id="Group_4535" data-name="Group 4535" transform="translate(0 0)" clip-path="url(#clip-path-2)">
            <path id="Path_155" data-name="Path 155" d="M1433.858,936.969q-3.2-1.435-6.408-2.882c-1.3-.449-2.584-.865-3.888-1.32,3.437,1.408,6.895,2.853,10.3,4.2M2402,862.31q1.2-1.077,2.379-2.143c-1.722,1.23-3.449,2.464-5.218,3.721.943-.525,1.907-1.057,2.839-1.578m-950.783,81.4q-5.253-2.539-10.535-5.124-4.282-1.441-8.584-2.916c3.4,1.54,6.811,3.092,10.179,4.58q4.483,1.75,8.94,3.46m8.557,4.161c-1.16-.552-2.337-1.133-3.511-1.707-1.64-.626-3.3-1.28-4.944-1.914,2.835,1.235,5.631,2.406,8.456,3.62m953.584-94.713c.709-.813,1.42-1.629,2.118-2.432q-2.343,2.136-4.754,4.326c.877-.63,1.773-1.273,2.636-1.893m-4.766,5.467c1.163-1.33,2.287-2.623,3.426-3.93-1.423,1.024-2.851,2.051-4.315,3.1-1.272,1.154-2.574,2.328-3.878,3.5,1.619-.9,3.188-1.787,4.767-2.673m14.838-15.792,1.824-2.667q-2.057,2.367-4.174,4.813ZM1466.949,949.723c-4.277-2.2-8.584-4.44-12.894-6.686q-4.9-1.6-9.83-3.252c4.085,2,8.179,4.012,12.219,5.943,3.505,1.337,7.023,2.7,10.506,4m13.924,7.131q-5.3-2.671-10.666-5.44c-2.908-1.08-5.8-2.128-8.719-3.233,3.7,1.755,7.337,3.414,11.019,5.138,2.785,1.174,5.595,2.385,8.366,3.535m10.9,5.417q-2.664-1.325-5.321-2.643c-.985-.405-1.958-.788-2.945-1.2,2.756,1.281,5.537,2.6,8.266,3.84m927.516-113.4q1.51-2.2,2.986-4.363l-2.515,2.3-1.322,1.206c-1.137,1.309-2.257,2.6-3.421,3.941Zm-4.167,6.066c1.141-1.657,2.279-3.311,3.389-4.931-1.6,1.153-3.195,2.305-4.841,3.491-1.278,1.468-2.56,2.941-3.871,4.44,1.807-1.015,3.571-2.011,5.323-3m17.108-23.491q.765-1.429,1.523-2.836-1.755,2.533-3.56,5.163,1.027-1.174,2.037-2.327m-3.5,6.556q1.276-2.4,2.529-4.736-1.651,1.887-3.345,3.832-1.472,2.15-2.982,4.358,1.924-1.754,3.8-3.454m-3.525,6.6,1.848-3.464,1.021-1.916q-2.111,1.92-4.291,3.907l-.128.19c-1.062,1.55-2.157,3.151-3.244,4.741l.434-.313Zm-3.549,6.64q1.544-2.886,3.049-5.7l-3.587,2.589-1.482,1.069c-1.177,1.716-2.374,3.46-3.581,5.214q2.852-1.61,5.6-3.168M1480.787,954.785c-4.567-2.474-9.222-5.07-13.859-7.64-3.407-1.079-6.812-2.156-10.232-3.265,4.579,2.388,9.167,4.792,13.692,7.1,3.479,1.289,6.94,2.545,10.4,3.8m15.856,8.478c-4.351-2.32-8.673-4.6-13.048-6.953q-4.958-1.791-9.951-3.639c4.366,2.22,8.677,4.365,13,6.531,3.344,1.375,6.67,2.719,9.994,4.061m13.462,7.174c-3.127-1.641-6.307-3.353-9.477-5.05-2.787-1.117-5.6-2.273-8.4-3.414,3.4,1.7,6.82,3.411,10.193,5.064,2.573,1.152,5.124,2.268,7.685,3.4m9.662,5.011c-1.049-.545-2.085-1.07-3.132-1.61-1.284-.562-2.583-1.146-3.87-1.714,2.356,1.142,4.657,2.2,7,3.325m920.049-156.292q.62-1.486,1.234-2.947-1.463,2.64-2.966,5.392.872-1.237,1.732-2.444m-2.9,6.992q1.054-2.553,2.084-5.036-1.424,2.013-2.879,4.1-1.251,2.315-2.531,4.695,1.686-1.913,3.326-3.758m-2.9,7.079q1.2-2.924,2.365-5.769-1.852,2.085-3.761,4.262-1.413,2.64-2.864,5.356,2.164-1.964,4.26-3.849m-2.917,7.145.5-1.228,2.01-4.922q-2.215,1.995-4.508,4.076l-1.636,3.069-1.4,2.625q2.563-1.847,5.033-3.62m-2.941,7.194q1.322-3.228,2.61-6.382-2.552,1.832-5.2,3.743-1.556,2.91-3.15,5.894l4.141-2.347ZM1495.227,960q-7.617-4.333-15.3-8.761c-3.549-1.091-7.127-2.234-10.7-3.359,4.87,2.692,9.763,5.412,14.557,8,3.817,1.377,7.651,2.783,11.442,4.119m16.6,9.361c-4.793-2.683-9.589-5.371-14.429-8.119q-5.3-1.859-10.635-3.775,7.058,3.785,14.059,7.492c3.672,1.472,7.361,2.971,11.006,4.4m15.783,8.776c-4.255-2.34-8.559-4.747-12.863-7.152-3.308-1.291-6.611-2.576-9.942-3.9,4.03,2.139,8.045,4.26,12.023,6.329,3.591,1.57,7.22,3.2,10.782,4.725m14.929,8.116c-3.74-2.023-7.436-3.987-11.2-6.041-2.476-1.057-4.926-2.074-7.415-3.15,3.006,1.548,6.028,3.114,9.017,4.638,3.185,1.5,6.436,3.09,9.6,4.553m8.4,4.529c-.773-.414-1.553-.839-2.33-1.256-.784-.36-1.548-.693-2.335-1.054,1.568.785,3.1,1.532,4.665,2.31m895.3-184.656q.491-1.523.977-3.013-1.2,2.69-2.422,5.512.727-1.266,1.445-2.5m-2.324,7.341q.838-2.676,1.663-5.269-1.207,2.1-2.441,4.283-1.039,2.44-2.1,4.964,1.455-2.03,2.876-3.978m-2.312,7.471q.95-3.091,1.881-6.086-1.607,2.214-3.258,4.537-1.175,2.808-2.37,5.71,1.9-2.13,3.747-4.161m-2.309,7.575q1-3.312,1.988-6.527-1.95,2.152-3.963,4.417-1.241,3.008-2.508,6.11,2.283-2.048,4.483-4m-2.317,7.658q1.04-3.447,2.058-6.805-2.27,2.016-4.63,4.14-1.173,2.868-2.375,5.814l-.221.543q2.637-1.892,5.167-3.692m-2.338,7.724q1.044-3.447,2.062-6.818l.053-.177q-2.581,1.84-5.276,3.773-1.317,3.219-2.666,6.523,2.979-1.693,5.826-3.3M1508.718,964.643q-8.013-4.75-16.117-9.619c-3.572-1.063-7.133-2.106-10.724-3.2q7.888,4.551,15.688,8.982c3.735,1.31,7.44,2.57,11.153,3.839m17.146,10.11c-5-2.912-10.063-5.918-15.128-8.921q-5.485-1.869-11-3.786c5.1,2.883,10.129,5.679,15.181,8.5,3.667,1.431,7.307,2.816,10.948,4.207m16.894,9.742c-4.814-2.764-9.595-5.485-14.453-8.3q-5.217-1.985-10.472-4.023c4.573,2.556,9.157,5.128,13.661,7.6,3.78,1.612,7.515,3.16,11.264,4.729m15.557,8.9c-4.053-2.291-8.162-4.652-12.269-7.013q-5.144-2.138-10.328-4.334,6.531,3.537,13.019,7.019c3.217,1.476,6.384,2.882,9.578,4.327m15.451,8.628q-5.3-2.946-10.638-5.939-4.241-1.9-8.512-3.845c3.511,1.879,6.989,3.715,10.465,5.548,2.9,1.417,5.8,2.848,8.685,4.237m8.1,4.527c-.608-.336-1.229-.687-1.843-1.029-.487-.235-.969-.461-1.458-.694,1.1.568,2.208,1.158,3.3,1.722m869.727-214q.373-1.541.75-3.046-.977,2.708-1.952,5.557.6-1.274,1.2-2.511m-1.8,7.593q.641-2.769,1.277-5.443-1.017,2.143-2.046,4.39-.847,2.539-1.7,5.171,1.246-2.109,2.47-4.118m-1.758,7.77q.714-3.222,1.427-6.331-1.385,2.3-2.8,4.719-.944,2.941-1.9,5.993,1.658-2.254,3.272-4.381m-1.739,7.921q.752-3.47,1.5-6.829-1.7,2.262-3.46,4.665-.991,3.171-2,6.452,2.016-2.209,3.963-4.289m-1.725,8.041q.773-3.631,1.535-7.156-2.011,2.156-4.093,4.446-1.019,3.321-2.057,6.75,2.354-2.082,4.615-4.041m-1.729,8.142q.794-3.741,1.567-7.384-2.308,2-4.714,4.134-1.039,3.429-2.106,6.956,2.688-1.91,5.252-3.706m-1.742,8.225,1.119-5.285.481-2.272q-2.6,1.824-5.331,3.766l-.229.756q-.946,3.136-1.92,6.349,3.015-1.706,5.88-3.314M1522.324,969.284q-8.412-5.168-16.919-10.457c-3.658-1.053-7.358-2.183-11.036-3.272q8.319,4.985,16.541,9.844c3.805,1.294,7.634,2.631,11.414,3.885m18.032,10.983c-5.437-3.294-10.869-6.584-16.365-9.953-3.669-1.212-7.37-2.474-11.065-3.727,5.2,3.085,10.425,6.188,15.549,9.17,3.962,1.505,7.951,3.052,11.881,4.51m17.4,10.493c-5.065-3.02-10.207-6.136-15.346-9.249-3.752-1.387-7.533-2.814-11.316-4.245,5.066,2.931,10.089,5.806,15.109,8.678,3.846,1.6,7.738,3.263,11.553,4.816m17.335,10.215q-7.33-4.3-14.711-8.668c-3.609-1.463-7.252-2.972-10.891-4.476q6.934,3.956,13.781,7.805c3.928,1.762,7.93,3.627,11.821,5.338m15.769,9.188c-4.174-2.414-8.355-4.835-12.571-7.3-3.38-1.479-6.8-3.023-10.211-4.538,4.04,2.266,8.088,4.543,12.08,6.747,3.578,1.713,7.155,3.423,10.7,5.094m14.462,8.305c-3.055-1.74-6.141-3.523-9.222-5.3-2.953-1.38-5.974-2.849-8.951-4.259,3.432,1.873,6.836,3.71,10.252,5.561q3.97,2.011,7.92,3.994m9.041,5.133c-.338-.192-.67-.373-1.01-.564-.508-.252-1.029-.525-1.539-.777.859.459,1.694.886,2.549,1.341m840.3-237.19q.464-2.836.937-5.562-.861,2.163-1.717,4.445-.672,2.592-1.339,5.3,1.064-2.152,2.119-4.18m-1.255,7.975q.5-3.317,1.017-6.507-1.191,2.332-2.4,4.822-.736,3.032-1.471,6.2,1.438-2.33,2.851-4.51m-1.208,8.172q.516-3.591,1.038-7.051-1.49,2.319-3.009,4.813-.759,3.291-1.523,6.712,1.772-2.318,3.494-4.474m-1.175,8.332q.524-3.773,1.045-7.424-1.775,2.238-3.6,4.649-.771,3.469-1.55,7.062,2.1-2.223,4.109-4.287m-1.156,8.475q.524-3.907,1.048-7.7-2.055,2.113-4.194,4.392-.777,3.6-1.569,7.314,2.41-2.08,4.716-4.009m-1.152,8.589q.535-4.006,1.058-7.9-2.336,1.961-4.781,4.079-.788,3.7-1.593,7.5,2.725-1.906,5.316-3.676m-1.157,8.69.51-3.831.564-4.237q-2.617,1.792-5.375,3.722l-.585,2.762-1.034,4.883q3.046-1.708,5.921-3.3m-912.24,136.836c-5.776-3.664-11.628-7.422-17.491-11.192-3.609-1.005-7.2-1.975-10.829-3.015q8.637,5.376,17.155,10.6c3.743,1.235,7.446,2.406,11.165,3.6m18.562,11.683q-8.421-5.263-16.956-10.672c-3.7-1.184-7.384-2.359-11.1-3.582,5.63,3.445,11.187,6.8,16.754,10.165,3.794,1.4,7.542,2.734,11.305,4.09m18.192,11.281c-5.423-3.343-10.845-6.688-16.33-10.109-3.693-1.326-7.386-2.65-11.106-4.019,5.329,3.221,10.645,6.423,15.9,9.549,3.873,1.57,7.69,3.057,11.533,4.578m17.5,10.743c-5.02-3.049-10.109-6.186-15.2-9.325-3.729-1.47-7.454-2.934-11.214-4.449q7.676,4.553,15.269,9c3.751,1.64,7.427,3.181,11.145,4.775m17.435,10.5q-7.2-4.31-14.493-8.723c-3.631-1.552-7.249-3.082-10.912-4.676,4.922,2.868,9.775,5.646,14.647,8.45,3.616,1.688,7.175,3.3,10.758,4.95m16.413,9.739c-4.288-2.527-8.565-5.041-12.895-7.622-3.193-1.458-6.351-2.87-9.569-4.364,4.219,2.422,8.425,4.832,12.589,7.184,3.329,1.649,6.574,3.188,9.875,4.8m14.694,8.635c-3.178-1.848-6.407-3.76-9.627-5.658-2.625-1.272-5.244-2.537-7.886-3.832,3.217,1.8,6.449,3.619,9.648,5.394,2.623,1.367,5.26,2.753,7.865,4.1m8.449,4.866-.779-.446-.663-.338c.484.264.961.521,1.443.783M2454.618,824q.275-4.239.549-8.364-2.364,1.888-4.851,3.969-.534,3.941-1.073,8,2.766-1.884,5.374-3.6m-.587,9.106.16-2.476.39-6.047q-2.629,1.733-5.418,3.639l-.62,4.648-.465,3.491q3.078-1.7,5.953-3.255M1548.645,977.762q-9.094-5.933-18.283-11.987c-3.647-.98-7.345-2.049-11.013-3.065,5.953,3.821,11.89,7.625,17.763,11.346,3.841,1.23,7.719,2.52,11.533,3.706m19.048,12.372c-5.83-3.753-11.738-7.6-17.652-11.462-3.75-1.163-7.547-2.4-11.324-3.605,5.768,3.652,11.521,7.284,17.21,10.834,3.918,1.407,7.88,2.875,11.767,4.233m18.827,12.033q-8.526-5.41-17.175-10.977c-3.825-1.332-7.7-2.739-11.559-4.118,5.635,3.508,11.2,6.927,16.766,10.352,3.981,1.57,8.022,3.227,11.967,4.743m18.4,11.589c-5.481-3.433-10.963-6.868-16.51-10.381-3.817-1.465-7.7-3.022-11.552-4.533q7.962,4.892,15.829,9.673c4.072,1.738,8.2,3.557,12.233,5.24m17.743,11.058c-5.049-3.119-10.164-6.313-15.286-9.521-3.872-1.61-7.839-3.349-11.749-5.01,5.047,3.054,10.091,6.1,15.071,9.073,3.993,1.824,8.015,3.687,11.965,5.457m17.567,10.762q-7.111-4.325-14.316-8.771c-3.843-1.712-7.781-3.551-11.662-5.315,4.85,2.88,9.63,5.665,14.434,8.483,3.846,1.865,7.737,3.787,11.544,5.6m16.435,9.915c-4.3-2.579-8.572-5.127-12.911-7.756q-4.979-2.36-10.012-4.79,6.163,3.6,12.246,7.11c3.566,1.82,7.144,3.657,10.677,5.436m13.964,8.359c-2.79-1.651-5.629-3.365-8.455-5.063-2.685-1.341-5.425-2.75-8.128-4.116,3.168,1.818,6.356,3.662,9.49,5.438,2.387,1.276,4.72,2.484,7.093,3.741m8.919,5.226-.1-.055-.084-.044ZM1561.3,981.571c-6.253-4.187-12.509-8.375-18.845-12.665-3.571-.926-7.113-1.8-10.7-2.762,6.2,4.087,12.338,8.1,18.462,12.089,3.722,1.153,7.39,2.225,11.087,3.338m19.62,13.049c-6.068-4.015-12.155-8.052-18.3-12.163-3.668-1.1-7.319-2.172-11.009-3.313,6,3.911,11.986,7.8,17.9,11.607,3.83,1.334,7.6,2.58,11.4,3.869m19.142,12.606c-5.809-3.794-11.7-7.685-17.6-11.586-3.762-1.27-7.506-2.517-11.3-3.832,5.834,3.75,11.651,7.478,17.4,11.124,3.866,1.482,7.66,2.859,11.492,4.294M1619,1019.49q-8.507-5.48-17.112-11.08c-3.808-1.419-7.592-2.8-11.434-4.27,5.739,3.63,11.4,7.161,17.067,10.705,3.87,1.608,7.645,3.087,11.479,4.645m18.644,11.919c-5.5-3.493-10.994-6.99-16.556-10.566-3.76-1.523-7.48-2.991-11.275-4.563q8.18,5.106,16.249,10.081c3.9,1.738,7.717,3.359,11.583,5.048m17.958,11.358c-5.088-3.189-10.24-6.456-15.4-9.736-3.748-1.629-7.473-3.225-11.257-4.9,5.014,3.087,10.031,6.177,14.973,9.176,3.924,1.859,7.8,3.656,11.685,5.464m17.514,10.889q-7.062-4.365-14.208-8.834-5.608-2.6-11.278-5.273c4.933,2.976,9.816,5.889,14.7,8.8,3.631,1.814,7.189,3.535,10.787,5.3m16.988,10.41c-4.344-2.647-8.666-5.266-13.054-7.964-3.3-1.613-6.607-3.232-9.939-4.884,4.2,2.5,8.357,4.938,12.512,7.379,3.5,1.835,7.01,3.676,10.48,5.469m13.867,8.435c-2.833-1.706-5.72-3.474-8.592-5.226-2.41-1.237-4.78-2.423-7.2-3.68,2.655,1.554,5.333,3.136,7.959,4.654,2.629,1.437,5.228,2.837,7.838,4.251M1574.1,985.424q-9.578-6.564-19.332-13.339c-3.636-.909-7.314-1.888-10.972-2.831,6.385,4.321,12.7,8.553,18.994,12.765,3.767,1.131,7.57,2.318,11.31,3.406m20.213,13.739c-6.3-4.267-12.587-8.514-18.971-12.882-3.714-1.076-7.492-2.256-11.231-3.374,6.224,4.16,12.379,8.234,18.522,12.295,3.889,1.312,7.825,2.7,11.681,3.962m19.747,13.292q-9.12-6.1-18.353-12.345c-3.81-1.247-7.691-2.6-11.531-3.889,5.994,3.96,11.969,7.9,17.877,11.75,4,1.489,8.045,3.047,12.006,4.484m19.223,12.814c-5.785-3.822-11.664-7.758-17.539-11.69-3.911-1.414-7.916-2.96-11.863-4.426q8.735,5.69,17.358,11.243c4.014,1.626,8.068,3.3,12.044,4.873m19.354,12.67c-5.75-3.749-11.51-7.508-17.331-11.344-3.947-1.555-7.992-3.241-11.981-4.849,5.728,3.676,11.376,7.253,17.032,10.843,4.088,1.777,8.234,3.631,12.28,5.35m18.5,11.979c-5.433-3.5-10.881-7.012-16.384-10.6-3.91-1.654-7.888-3.4-11.839-5.112q8.14,5.158,16.172,10.183,6.059,2.806,12.051,5.524m18.1,11.6c-5.112-3.247-10.3-6.583-15.487-9.924-3.784-1.709-7.548-3.392-11.369-5.151,4.969,3.1,9.938,6.208,14.836,9.225,4.018,1.966,8.045,3.941,12.019,5.85m17.72,11.154q-7.188-4.5-14.451-9.1c-3.69-1.763-7.385-3.532-11.112-5.343,4.743,2.906,9.444,5.755,14.144,8.606,3.819,1.96,7.641,3.923,11.419,5.833m16.6,10.32c-4.1-2.536-8.187-5.047-12.332-7.631-3.439-1.727-6.957-3.552-10.43-5.322,4.4,2.656,8.749,5.247,13.1,7.844,3.251,1.74,6.44,3.405,9.662,5.109m14.323,8.826c-2.838-1.732-5.723-3.521-8.6-5.3-2.5-1.308-4.985-2.614-7.5-3.946,2.63,1.567,5.278,3.156,7.874,4.681q4.126,2.3,8.219,4.563M1586.505,988.912c-6.531-4.571-13.143-9.239-19.773-13.931-3.56-.857-7.094-1.673-10.671-2.561,6.526,4.527,13.027,9.024,19.447,13.42,3.7,1.071,7.327,2.042,11,3.072m20.562,14.3q-9.629-6.66-19.392-13.485c-3.658-1.024-7.285-2-10.971-3.064,6.45,4.41,12.8,8.7,19.165,13.006,3.767,1.231,7.462,2.357,11.2,3.543m20.257,13.922c-6.288-4.3-12.583-8.613-18.956-13.016-3.714-1.176-7.4-2.305-11.139-3.525q9.409,6.361,18.672,12.545c3.849,1.391,7.609,2.655,11.423,4m19.84,13.506q-9.1-6.154-18.35-12.486c-3.783-1.326-7.522-2.593-11.341-3.967,6.03,4.03,12.051,8.048,17.99,11.968,3.941,1.552,7.8,2.987,11.7,4.485m19.531,13.139c-5.881-3.929-11.837-7.945-17.809-11.98-3.829-1.465-7.593-2.843-11.461-4.358q8.8,5.794,17.474,11.442c3.969,1.68,7.869,3.27,11.8,4.9m19.436,12.874c-5.8-3.829-11.592-7.637-17.474-11.554-3.869-1.6-7.734-3.184-11.646-4.834,5.684,3.694,11.3,7.3,16.908,10.906,4.085,1.846,8.174,3.7,12.213,5.482m18.731,12.276q-8.121-5.288-16.35-10.7c-3.954-1.74-7.983-3.577-11.981-5.374q8.125,5.215,16.147,10.305,6.123,2.924,12.184,5.774m17.994,11.669c-4.977-3.2-10.039-6.5-15.093-9.788-3.9-1.82-7.874-3.723-11.822-5.6,5.177,3.274,10.347,6.541,15.45,9.726,3.864,1.941,7.642,3.774,11.465,5.662m18.2,11.582q-7.312-4.633-14.679-9.336c-3.68-1.807-7.355-3.611-11.073-5.467,4.754,2.952,9.449,5.832,14.157,8.727,3.871,2.033,7.766,4.1,11.595,6.076m16.433,10.35c-4.109-2.571-8.222-5.144-12.377-7.77-3.3-1.7-6.61-3.4-9.945-5.139,4.279,2.62,8.508,5.177,12.739,7.737,3.225,1.762,6.388,3.446,9.584,5.172m14.683,9.146c-2.826-1.746-5.694-3.544-8.551-5.327-2.523-1.35-5.069-2.731-7.61-4.1,2.612,1.575,5.241,3.176,7.821,4.714q4.183,2.375,8.34,4.717M1599.037,992.412q-10.1-7.2-20.345-14.586c-3.57-.826-7.17-1.7-10.761-2.561,6.68,4.723,13.335,9.419,19.916,14.021,3.73,1.044,7.486,2.124,11.191,3.126m20.943,14.885c-6.535-4.611-13.174-9.346-19.815-14.083-3.687-.995-7.433-2.077-11.149-3.114q9.829,6.873,19.519,13.575c3.816,1.208,7.662,2.462,11.445,3.622m20.727,14.517c-6.463-4.509-12.92-9.012-19.472-13.627-3.764-1.153-7.6-2.41-11.4-3.607,6.438,4.445,12.793,8.79,19.143,13.13,3.912,1.372,7.855,2.785,11.731,4.1m20.3,14.088q-9.377-6.471-18.878-13.094c-3.849-1.306-7.778-2.723-11.662-4.08q9.349,6.389,18.574,12.623c4,1.529,8.01,3.078,11.966,4.551m20.036,13.779c-6.072-4.143-12.239-8.4-18.407-12.656-3.92-1.454-7.912-3.005-11.873-4.515,6.048,4.086,12.1,8.173,18.054,12.146,4.081,1.683,8.189,3.4,12.226,5.024m19.58,13.266q-8.847-5.965-17.808-12.066c-3.962-1.588-7.97-3.236-11.974-4.88,6,3.993,11.927,7.9,17.849,11.8,4.019,1.768,7.959,3.438,11.933,5.15m19.355,12.961c-5.75-3.828-11.506-7.668-17.333-11.59-3.887-1.666-7.734-3.284-11.665-5.005,5.7,3.745,11.342,7.42,16.964,11.074,4.048,1.889,8.029,3.692,12.033,5.522m18.9,12.528c-5.452-3.587-10.968-7.249-16.505-10.933-3.868-1.759-7.7-3.474-11.612-5.289,5.295,3.436,10.581,6.866,15.795,10.207,4.126,2.028,8.246,4.048,12.323,6.014m18.32,11.977c-5.113-3.319-10.287-6.711-15.471-10.114-3.85-1.848-7.706-3.7-11.6-5.606q7.615,4.867,15.153,9.64,5.992,3.081,11.918,6.08m17.953,11.562c-4.8-3.076-9.567-6.114-14.419-9.25-3.766-1.9-7.6-3.872-11.4-5.819,4.873,3.067,9.667,6.034,14.486,9.035q5.7,3.054,11.338,6.034m16.509,10.53q-6.054-3.832-12.193-7.763c-3.195-1.676-6.342-3.293-9.568-5.009,4.061,2.518,8.084,4.991,12.1,7.451,3.249,1.807,6.447,3.55,9.665,5.321m15.045,9.456c-2.824-1.765-5.681-3.57-8.525-5.359-2.506-1.366-5.05-2.779-7.574-4.168,2.633,1.607,5.287,3.24,7.892,4.813,2.742,1.581,5.486,3.16,8.207,4.714M1611.211,995.608q-10.307-7.477-20.763-15.133c-3.523-.784-7.042-1.554-10.586-2.372q10.294,7.408,20.475,14.673c3.651.984,7.25,1.887,10.874,2.832m21.333,15.43c-6.693-4.807-13.5-9.745-20.294-14.678-3.6-.936-7.159-1.809-10.784-2.784,6.682,4.765,13.368,9.538,19.94,14.171,3.746,1.144,7.423,2.19,11.138,3.291m21.1,15.076q-9.894-7.035-19.938-14.244c-3.686-1.087-7.323-2.105-11.037-3.237,6.595,4.645,13.116,9.2,19.621,13.737,3.82,1.3,7.571,2.5,11.354,3.745m20.813,14.71q-9.714-6.832-19.539-13.8c-3.742-1.23-7.432-2.384-11.209-3.661q9.615,6.7,19.08,13.219c3.918,1.455,7.789,2.842,11.669,4.242m20.424,14.308c-6.272-4.364-12.62-8.818-18.986-13.3-3.826-1.375-7.613-2.7-11.478-4.132,6.22,4.289,12.425,8.562,18.551,12.737,4,1.6,7.953,3.145,11.913,4.691m20.254,14.035c-6.133-4.218-12.352-8.541-18.581-12.874q-5.878-2.289-11.816-4.653,9.095,6.193,18.074,12.249c4.112,1.764,8.26,3.575,12.323,5.277m19.849,13.555c-6.007-4.083-12-8.154-18.086-12.333-3.986-1.663-8.033-3.406-12.066-5.13,5.959,4.006,11.834,7.911,17.711,11.82,4.153,1.891,8.337,3.818,12.441,5.644m19.308,13.06q-8.57-5.758-17.262-11.663c-4-1.773-8.048-3.614-12.093-5.447q8.539,5.673,16.961,11.2c4.15,1.992,8.3,3.977,12.395,5.906m18.648,12.492c-5.288-3.511-10.676-7.138-16.05-10.753-4.008-1.876-8.094-3.848-12.149-5.785,5.415,3.555,10.839,7.122,16.166,10.572,4.052,2.038,8.031,3.988,12.033,5.966m18.922,12.455q-7.887-5.172-15.863-10.441c-3.819-1.879-7.618-3.731-11.484-5.664q7.607,4.9,15.129,9.7c4.081,2.143,8.188,4.318,12.219,6.4m17.673,11.506c-4.716-3.051-9.432-6.1-14.205-9.223-3.759-1.931-7.579-3.939-11.384-5.922,4.855,3.089,9.644,6.1,14.437,9.118,3.744,2.043,7.447,4.034,11.152,6.027m16.378,10.573c-3.9-2.492-7.865-5.067-11.824-7.63-3.212-1.718-6.394-3.4-9.639-5.156q5.989,3.762,11.909,7.439c3.213,1.815,6.373,3.569,9.554,5.347m15.449,9.781c-2.841-1.792-5.7-3.612-8.549-5.412-2.431-1.348-4.9-2.744-7.355-4.115,2.714,1.67,5.453,3.369,8.144,5.013q3.895,2.274,7.76,4.514m-218-153.85q-10.558-7.786-21.247-15.722-5.271-1.121-10.576-2.3,10.5,7.68,20.872,15.2c3.656.948,7.32,1.911,10.95,2.82m21.772,15.994c-6.861-5.012-13.8-10.116-20.762-15.248-3.619-.9-7.28-1.871-10.924-2.812,6.843,4.961,13.681,9.918,20.42,14.758,3.76,1.108,7.535,2.239,11.265,3.3m21.426,15.591c-6.7-4.848-13.492-9.8-20.3-14.77-3.713-1.055-7.483-2.191-11.228-3.292q10.09,7.241,20.046,14.321c3.836,1.26,7.682,2.531,11.483,3.741m21.181,15.226c-6.62-4.741-13.238-9.481-19.953-14.331-3.781-1.2-7.621-2.476-11.438-3.725,6.62,4.7,13.165,9.307,19.693,13.9,3.915,1.409,7.823,2.8,11.7,4.159m20.939,14.925q-9.7-6.881-19.558-13.933c-3.853-1.342-7.75-2.744-11.642-4.139q9.682,6.8,19.237,13.455c4,1.559,8,3.117,11.964,4.618m20.371,14.393c-6.223-4.364-12.555-8.857-18.881-13.34q-5.858-2.213-11.781-4.509c6.256,4.35,12.519,8.71,18.672,12.941,4.034,1.683,8,3.286,11.989,4.908M1749.363,1089c-6.156-4.27-12.33-8.561-18.571-12.93-3.952-1.6-7.908-3.212-11.907-4.875,6.157,4.225,12.244,8.364,18.322,12.492,4.083,1.812,8.121,3.562,12.156,5.312m19.847,13.682c-5.94-4.075-11.9-8.169-17.922-12.343q-5.983-2.583-12.038-5.257,8.987,6.1,17.828,12.021c4.089,1.914,8.094,3.726,12.132,5.579m19.487,13.306c-5.7-3.866-11.484-7.823-17.278-11.794-3.958-1.808-7.892-3.587-11.9-5.453,5.587,3.749,11.167,7.484,16.665,11.129,4.188,2.058,8.379,4.124,12.511,6.118m18.934,12.755q-8.132-5.448-16.4-11.047-5.956-2.859-11.993-5.816c5.455,3.608,10.895,7.2,16.273,10.715,4.077,2.094,8.094,4.117,12.118,6.149m18.9,12.561c-5.277-3.49-10.54-6.961-15.886-10.53q-5.858-2.943-11.8-5.984c5.2,3.386,10.31,6.671,15.443,9.983,4.09,2.187,8.206,4.406,12.243,6.531m17.555,11.552q-6.968-4.551-14.043-9.227-5.571-2.918-11.216-5.922,7.152,4.6,14.2,9.075c3.718,2.06,7.388,4.064,11.062,6.074m16.768,10.893c-3.96-2.555-7.974-5.172-11.98-7.781-3.187-1.734-6.351-3.438-9.572-5.21,3.873,2.462,7.763,4.942,11.573,7.33,3.361,1.927,6.656,3.776,9.98,5.661m15.194,9.727c-2.892-1.844-5.758-3.658-8.663-5.52-2.313-1.3-4.661-2.64-6.991-3.961,2.86,1.77,5.746,3.573,8.6,5.332,2.365,1.395,4.711,2.772,7.058,4.149m-240.744-171.827c-7.168-5.363-14.342-10.733-21.609-16.216q-5.233-1.066-10.5-2.186,10.76,8,21.35,15.791c3.606.9,7.178,1.752,10.758,2.611m22.137,16.5q-10.522-7.81-21.2-15.8c-3.559-.853-7.1-1.68-10.688-2.572q10.5,7.74,20.876,15.325c3.7,1.049,7.346,2.038,11.009,3.044m21.789,16.12c-6.842-5.028-13.8-10.192-20.752-15.353-3.639-.995-7.249-1.951-10.919-2.991,6.838,4.994,13.668,9.98,20.4,14.845,3.783,1.2,7.528,2.349,11.274,3.5m21.643,15.8c-6.8-4.951-13.6-9.9-20.5-14.967-3.725-1.14-7.428-2.253-11.188-3.442,6.764,4.888,13.425,9.65,20.1,14.425q5.822,2.027,11.591,3.984m21.258,15.4q-9.941-7.167-20.012-14.488c-3.8-1.281-7.613-2.57-11.457-3.9q9.913,7.088,19.672,14,5.932,2.239,11.8,4.389m20.911,15.023c-6.428-4.589-12.948-9.285-19.481-13.992-3.887-1.422-7.809-2.889-11.741-4.368,6.418,4.546,12.831,9.086,19.146,13.512,4.046,1.641,8.079,3.268,12.076,4.848m20.6,14.615q-9.454-6.678-19.05-13.519-5.914-2.326-11.888-4.736,9.45,6.614,18.763,13.066,6.131,2.646,12.175,5.189m20.389,14.307c-6.2-4.331-12.4-8.668-18.69-13.1-3.968-1.667-7.934-3.329-11.953-5.057,6.126,4.239,12.172,8.383,18.211,12.52,4.163,1.9,8.323,3.8,12.432,5.638m19.847,13.8q-8.887-6.139-17.926-12.459-6.031-2.683-12.148-5.47,8.867,6.069,17.612,11.994c4.177,2.006,8.339,4,12.462,5.934m19.371,13.322c-5.617-3.836-11.313-7.764-17.016-11.7-4.054-1.9-8.178-3.884-12.286-5.849,5.664,3.832,11.324,7.66,16.9,11.385,4.17,2.094,8.294,4.138,12.407,6.166m19.289,13.072c-5.563-3.753-11.107-7.486-16.741-11.323-3.93-1.93-7.839-3.833-11.819-5.823,5.463,3.639,10.864,7.2,16.261,10.764q6.191,3.242,12.3,6.382m18.741,12.575q-7.738-5.16-15.578-10.434c-3.949-2.021-7.961-4.122-11.961-6.205,5.156,3.393,10.253,6.717,15.338,10.029,4.078,2.216,8.176,4.456,12.2,6.611m17.478,11.614c-4.547-2.995-9.181-6.089-13.8-9.171q-5.521-2.942-11.106-5.956c4.615,3,9.224,5.994,13.77,8.911,3.74,2.1,7.442,4.165,11.139,6.216m17.226,11.245q-6.118-3.981-12.282-8.014c-3.126-1.725-6.221-3.413-9.38-5.176,4.031,2.572,8.076,5.164,12.063,7.686,3.237,1.878,6.4,3.665,9.6,5.5m14.735,9.541c-2.792-1.8-5.566-3.573-8.388-5.4-2.322-1.324-4.665-2.671-7-4.015,3.115,1.952,6.209,3.878,9.3,5.806,2.046,1.22,4.057,2.4,6.09,3.609m-263.577-190.147c-7.312-5.548-14.61-11.077-22.027-16.748-3.457-.673-6.917-1.348-10.395-2.055,7.3,5.506,14.5,10.891,21.7,16.276,3.585.858,7.166,1.708,10.726,2.527m22.513,17.009q-10.73-8.073-21.592-16.309c-3.552-.815-7.13-1.668-10.708-2.522q10.723,8.019,21.294,15.86c3.681,1.007,7.358,2.008,11.007,2.971m22.133,16.607c-6.969-5.2-14.042-10.517-21.121-15.846-3.638-.956-7.312-1.963-10.981-2.964,6.987,5.185,13.974,10.367,20.852,15.42q5.648,1.728,11.25,3.39m21.915,16.255c-6.893-5.1-13.807-10.215-20.8-15.426-3.716-1.1-7.466-2.236-11.218-3.38,6.923,5.083,13.763,10.067,20.588,15.035,3.836,1.291,7.637,2.533,11.43,3.772m21.718,15.969c-6.8-4.978-13.613-9.979-20.51-15.073q-5.666-1.843-11.392-3.76,10.192,7.41,20.21,14.621,5.882,2.151,11.692,4.213m21.3,15.536c-6.605-4.791-13.289-9.676-20-14.588-3.839-1.358-7.678-2.716-11.561-4.132,6.577,4.737,13.131,9.45,19.606,14.068q6.011,2.365,11.954,4.651m21.042,15.192q-9.695-6.963-19.559-14.122c-3.93-1.5-7.914-3.065-11.894-4.625q9.668,6.89,19.211,13.633c4.091,1.719,8.2,3.459,12.242,5.114m20.675,14.749c-6.324-4.495-12.638-8.978-19.049-13.576-4.01-1.635-8.11-3.384-12.169-5.082,6.367,4.487,12.637,8.861,18.914,13.242q6.188,2.754,12.3,5.416m20.229,14.308q-9.135-6.423-18.407-13.011c-4.032-1.745-8.122-3.561-12.208-5.371q9.259,6.455,18.376,12.747c4.123,1.932,8.171,3.77,12.239,5.636m20.01,14.025c-5.922-4.118-11.949-8.36-17.97-12.594-3.991-1.822-7.956-3.611-12-5.5,5.794,4,11.594,8,17.291,11.888,4.237,2.081,8.5,4.193,12.68,6.2m19.539,13.485c-5.731-3.943-11.467-7.89-17.271-11.916-4.054-1.943-8.165-3.956-12.273-5.963q8.684,5.9,17.244,11.666c4.145,2.123,8.211,4.157,12.3,6.213m19.29,13.186c-5.518-3.752-11.054-7.523-16.651-11.365-3.958-1.982-7.891-3.933-11.9-5.978,5.448,3.663,10.826,7.24,16.2,10.815q6.213,3.307,12.35,6.528m18.613,12.6c-5.047-3.389-10.173-6.87-15.3-10.355-3.955-2.061-7.992-4.216-12-6.338q7.6,5.047,15.1,9.981c4.076,2.249,8.176,4.527,12.2,6.712m17.97,11.982q-7.034-4.667-14.158-9.44-5.485-2.964-11.043-6.013c4.573,2.994,9.149,5.994,13.658,8.913q5.8,3.309,11.543,6.54m17.047,11.235c-4.148-2.719-8.265-5.4-12.455-8.173-3.086-1.725-6.129-3.4-9.248-5.16q6.141,3.946,12.218,7.819c3.191,1.873,6.326,3.679,9.485,5.515m14.335,9.382c-2.567-1.665-5.185-3.39-7.792-5.1-2.473-1.425-4.946-2.851-7.439-4.3,3.459,2.191,6.831,4.28,10.257,6.432,1.676,1.012,3.306,1.967,4.974,2.967M1658.86,1007.092c-7.4-5.685-14.8-11.377-22.313-17.191-3.456-.64-6.942-1.333-10.417-2.006,7.44,5.687,14.764,11.24,22.1,16.8q5.334,1.223,10.63,2.393m22.843,17.477q-10.927-8.331-21.979-16.811-5.271-1.155-10.575-2.36,10.927,8.286,21.683,16.371,5.461,1.435,10.87,2.8m22.516,17.117c-7.123-5.387-14.341-10.882-21.575-16.4-3.59-.9-7.179-1.81-10.8-2.757,7.116,5.354,14.218,10.69,21.223,15.913,3.731,1.1,7.458,2.191,11.152,3.243m22.31,16.787q-10.566-7.92-21.28-16.012-5.509-1.561-11.067-3.189,10.526,7.842,20.883,15.491c3.827,1.245,7.678,2.519,11.464,3.71m21.979,16.388c-6.922-5.142-13.851-10.3-20.874-15.556-3.759-1.177-7.562-2.416-11.361-3.646,6.931,5.118,13.774,10.132,20.605,15.133,3.893,1.379,7.78,2.747,11.629,4.069m21.6,15.991q-10.087-7.427-20.348-15.058c-3.83-1.309-7.713-2.687-11.589-4.053q10.173,7.443,20.2,14.724c3.946,1.507,7.834,2.941,11.733,4.386m21.313,15.631c-6.594-4.808-13.27-9.714-19.967-14.645-3.859-1.426-7.691-2.818-11.6-4.3,6.607,4.788,13.2,9.559,19.7,14.225,4,1.632,7.915,3.154,11.867,4.723m21.115,15.3c-6.524-4.712-13.033-9.4-19.65-14.226-3.925-1.553-7.833-3.084-11.808-4.7,6.522,4.675,12.934,9.22,19.363,13.785,4.071,1.764,8.077,3.443,12.095,5.139m20.781,14.936q-9.506-6.8-19.152-13.758c-3.964-1.666-7.891-3.291-11.9-5.022q9.388,6.663,18.63,13.152c4.161,1.9,8.321,3.8,12.425,5.628m20.209,14.4c-6.065-4.293-12.239-8.708-18.406-13.118q-6.052-2.691-12.192-5.486c6.1,4.288,12.2,8.569,18.205,12.741,4.165,1.995,8.284,3.938,12.392,5.864m20.167,14.167c-5.976-4.182-11.967-8.385-18.025-12.661-4.052-1.893-8.147-3.837-12.257-5.8q8.887,6.16,17.644,12.176c4.234,2.12,8.463,4.232,12.637,6.282m19.58,13.621c-5.74-3.974-11.494-7.962-17.317-12.031q-6.094-2.978-12.267-6.055c5.834,4,11.585,7.9,17.338,11.8,4.128,2.152,8.172,4.2,12.245,6.283m19.169,13.215c-5.419-3.708-10.913-7.5-16.419-11.313-3.969-2.021-7.93-4.035-11.954-6.121q8.092,5.483,16.071,10.834,6.189,3.346,12.3,6.6m18.949,12.885q-7.7-5.2-15.516-10.551c-3.935-2.081-7.95-4.256-11.936-6.4,5.008,3.353,10.021,6.71,14.953,9.972,4.172,2.334,8.385,4.712,12.5,6.979m18.089,12.143c-4.818-3.219-9.608-6.4-14.482-9.69-3.685-2.019-7.418-4.094-11.15-6.167q7.071,4.651,14.06,9.2c3.869,2.231,7.752,4.478,11.572,6.652m16.8,11.177q-5.989-3.956-12.078-8.024c-3.257-1.841-6.492-3.662-9.785-5.546,4.093,2.657,8.108,5.227,12.155,7.83,3.247,1.925,6.5,3.853,9.708,5.74m15.282,10.025c-2.837-1.853-5.709-3.745-8.564-5.618-2.223-1.3-4.421-2.561-6.661-3.876q3.916,2.506,7.788,4.965c2.481,1.513,4.975,3.039,7.437,4.528m-311.164-228.8c-7.5-5.834-15.034-11.7-22.654-17.667-3.406-.6-6.8-1.184-10.228-1.816,7.526,5.827,14.956,11.542,22.372,17.239,3.519.772,7.017,1.511,10.509,2.244m23.166,17.934c-7.4-5.712-14.814-11.44-22.315-17.271q-5.232-1.1-10.5-2.243c7.412,5.694,14.743,11.291,22.054,16.864q5.4,1.362,10.756,2.65m22.818,17.554c-7.234-5.539-14.55-11.174-21.893-16.841q-5.347-1.291-10.74-2.646c7.265,5.54,14.5,11.046,21.659,16.454,3.681,1.044,7.327,2.037,10.974,3.032m22.554,17.2q-10.692-8.121-21.548-16.433-5.454-1.484-10.951-3.026,10.754,8.125,21.349,16.066c3.751,1.175,7.44,2.269,11.151,3.393m22.406,16.926c-7.074-5.328-14.149-10.657-21.326-16.1-3.7-1.115-7.388-2.217-11.127-3.383,7.081,5.3,14.062,10.487,21.041,15.67,3.835,1.311,7.622,2.562,11.412,3.816m22.119,16.594q-10.4-7.762-20.964-15.725c-3.763-1.241-7.505-2.456-11.312-3.753q10.3,7.646,20.448,15.122c3.948,1.459,7.93,2.959,11.829,4.356m21.593,16.069c-6.706-4.964-13.508-10.035-20.322-15.122-3.874-1.384-7.833-2.873-11.756-4.317,6.736,4.957,13.466,9.908,20.092,14.74,4.012,1.588,8.025,3.176,11.985,4.7m21.506,15.812c-6.7-4.908-13.375-9.8-20.171-14.818q-5.876-2.253-11.842-4.613c6.668,4.855,13.229,9.584,19.8,14.331,4.085,1.718,8.181,3.449,12.21,5.1m21.059,15.363q-9.723-7.06-19.588-14.282c-3.981-1.625-8.015-3.313-12.054-5q9.75,7.029,19.335,13.872c4.127,1.833,8.237,3.649,12.307,5.415m20.575,14.893c-6.214-4.468-12.535-9.058-18.854-13.646-4.035-1.742-8.137-3.567-12.227-5.378,6.294,4.5,12.578,8.979,18.769,13.358,4.143,1.935,8.229,3.8,12.312,5.667m20.612,14.72q-9.309-6.622-18.724-13.371c-4.008-1.825-7.995-3.622-12.059-5.512q9.137,6.449,18.144,12.747c4.234,2.07,8.466,4.138,12.64,6.136m20.028,14.165c-5.932-4.176-11.876-8.365-17.9-12.642-4.121-1.964-8.331-4.036-12.513-6.071,6,4.184,11.907,8.267,17.818,12.354q6.338,3.229,12.591,6.358m19.512,13.684c-5.664-3.945-11.4-7.977-17.159-12.028-4.044-2.012-8.1-4.036-12.2-6.116q8.63,5.956,17.127,11.765c4.126,2.182,8.166,4.263,12.232,6.379m19.294,13.358q-8.156-5.618-16.45-11.39c-3.956-2.047-7.9-4.083-11.912-6.194,5.342,3.646,10.684,7.3,15.938,10.839,4.176,2.289,8.307,4.525,12.424,6.745m19,12.989c-5.228-3.558-10.432-7.087-15.727-10.721-3.915-2.1-7.889-4.27-11.857-6.435q7.734,5.2,15.369,10.275c4.088,2.313,8.182,4.634,12.215,6.881m18.129,12.274q-7.017-4.717-14.137-9.557c-3.794-2.1-7.665-4.3-11.509-6.458,4.749,3.151,9.428,6.223,14.116,9.3,3.848,2.241,7.731,4.527,11.53,6.712m17.01,11.382c-3.982-2.647-8.025-5.362-12.059-8.07-3.246-1.856-6.523-3.747-9.808-5.645,3.813,2.5,7.612,4.985,11.37,7.42,3.5,2.1,7.04,4.244,10.5,6.3m15.224,10.04c-2.933-1.928-5.843-3.829-8.789-5.771-1.916-1.129-3.786-2.2-5.717-3.346,2.226,1.43,4.482,2.894,6.694,4.308,2.6,1.6,5.233,3.235,7.812,4.809M2453.4,842.832q-3.162,1.391-6.577,2.9c-11.262,83.69-28.446,194.514-87.981,273.542-75.732,100.527-219.945,149.588-507.6,25.812,6.386,4.633,12.762,9.252,19.045,13.768,284.1,129.265,427.132,90,500.763-5.875,65.244-84.954,76.062-214.326,82.349-310.15m-6.5,2.359q3.391-1.5,6.536-2.884.285-4.374.562-8.649-2.893,1.564-5.994,3.281-.545,4.077-1.1,8.252M1398.881,923.066c-1.914-.58-3.824-1.154-5.742-1.742,3.594,1.334,7.153,2.6,10.723,3.88-1.649-.691-3.328-1.438-4.981-2.138m13.239,4.02c-3.052-.895-6.135-1.873-9.2-2.793,3.665,1.541,7.287,3,10.932,4.513,3.032,1.078,6.092,2.214,9.108,3.264q-5.4-2.447-10.844-4.983m12.385,3.522c-3.21-.914-6.408-1.8-9.627-2.737,4.276,1.976,8.5,3.86,12.734,5.778,3.244,1.116,6.47,2.2,9.7,3.295q-6.374-3.121-12.808-6.336m12.807,3.64c-3.474-.957-6.979-1.988-10.467-2.975,4.71,2.35,9.349,4.594,14.011,6.874,3.576,1.2,7.175,2.449,10.734,3.612-4.737-2.473-9.485-4.96-14.278-7.511m12.216,3.27c-3.394-.906-6.767-1.764-10.172-2.7,5,2.659,9.928,5.2,14.876,7.781,3.54,1.153,7.055,2.257,10.578,3.378-5.09-2.816-10.141-5.577-15.282-8.462m12.6,3.339c-3.6-.928-7.219-1.913-10.829-2.871,5.328,2.985,10.546,5.821,15.815,8.727,3.672,1.161,7.375,2.379,11.027,3.5-5.3-3.066-10.657-6.214-16.013-9.358m12.055,3.03c-3.463-.861-6.914-1.7-10.391-2.589q8.19,4.8,16.3,9.5c3.654,1.119,7.274,2.174,10.911,3.259-5.578-3.352-11.167-6.719-16.823-10.173m12.25,3.016c-3.569-.858-7.155-1.754-10.736-2.643q8.6,5.248,17.078,10.328c3.723,1.107,7.478,2.273,11.179,3.34-5.794-3.615-11.658-7.321-17.521-11.025m11.948,2.818c-3.5-.813-7.007-1.627-10.525-2.468,5.936,3.747,11.859,7.477,17.725,11.136,3.664,1.052,7.284,2.025,10.926,3.041-6.014-3.869-12.032-7.74-18.126-11.709m11.89,2.7q-5.287-1.181-10.6-2.41c6.17,4.016,12.259,7.928,18.344,11.837,3.695,1.026,7.413,2.1,11.088,3.087q-9.349-6.172-18.834-12.514m11.893,2.626c-3.532-.761-7.076-1.549-10.624-2.338q9.569,6.4,19,12.624c3.6.969,7.163,1.852,10.747,2.783-6.311-4.277-12.727-8.687-19.122-13.069m11.654,2.433c-3.488-.72-6.976-1.438-10.479-2.188,6.453,4.421,12.917,8.854,19.286,13.172,3.678.952,7.368,1.929,11.024,2.844q-9.855-6.84-19.831-13.828m11.669,2.406c-3.5-.693-7.017-1.445-10.526-2.167q10.055,7.04,19.981,13.925c3.605.9,7.177,1.742,10.763,2.607-6.7-4.746-13.427-9.513-20.218-14.365m11.4,2.17c-3.44-.654-6.868-1.283-10.323-1.966,6.838,4.883,13.6,9.677,20.345,14.446,3.6.867,7.211,1.737,10.793,2.569-6.895-4.965-13.811-9.952-20.816-15.048m11.475,2.186c-3.457-.629-6.951-1.328-10.423-1.986,7.045,5.124,14,10.136,20.931,15.124,3.565.824,7.113,1.619,10.655,2.409-7.007-5.127-14.035-10.277-21.163-15.548m11.263,1.96c-3.408-.593-6.794-1.141-10.216-1.762,7.141,5.279,14.192,10.451,21.215,15.587q5.315,1.181,10.6,2.307-10.711-7.963-21.6-16.132m11.289,1.945c-3.418-.567-6.861-1.179-10.294-1.773q10.921,8.194,21.678,16.2c3.523.749,7.048,1.5,10.552,2.217-7.245-5.467-14.579-11.04-21.936-16.638m11.118,1.785c-3.377-.533-6.748-1.056-10.139-1.615,7.366,5.6,14.721,11.2,21.975,16.672,3.485.708,6.947,1.38,10.412,2.055-7.341-5.614-14.8-11.37-22.248-17.112m11.061,1.709q-5.047-.759-10.121-1.564c7.466,5.756,14.956,11.536,22.317,17.167,3.485.679,6.993,1.388,10.458,2.034-7.476-5.792-15.072-11.723-22.655-17.637m10.989,1.62q-5.016-.714-10.059-1.476c7.6,5.926,15.2,11.86,22.7,17.665,3.434.636,6.829,1.212,10.243,1.817-7.558-5.922-15.22-11.964-22.88-18.007m754.07-97.873c-142,58.475-408.953,146.815-753.178,97.995,7.685,6.061,15.363,12.114,22.946,18.056,352.82,62.244,597.706-44.764,730.231-116.051m9.4-3.9c-1.742.728-3.487,1.458-5.267,2.2-131.522,71.235-377.551,180.952-733.569,118.374q11.455,8.974,22.711,17.714c369.569,77.371,595.49-54.119,716.125-138.287m7.948-3.347c-1.952.828-3.9,1.656-5.912,2.5-120.148,84.085-346.309,217.178-717.311,139.8,7.528,5.85,14.963,11.593,22.388,17.322,385.851,93.056,591.867-62.5,700.835-159.619m7.561-3.221q-3.06,1.313-6.221,2.653c-108.666,97.029-314.619,253.8-701.251,160.9q11.059,8.533,21.971,16.9c402.535,109.451,588.2-70.288,685.5-180.45m7.37-3.17c-2.077.9-4.214,1.818-6.37,2.742-97.093,110.074-282.562,290.8-685.494,181.645q10.883,8.331,21.615,16.486c419.773,126.562,584.693-77.58,670.249-200.872m7.292-3.169c-2.1.92-4.283,1.864-6.477,2.815-85.419,123.212-250.087,328.183-669.986,202.049,7.208,5.469,14.306,10.811,21.41,16.16,362.33,119.5,523.249-16.874,609.708-144.833,17.94-26.552,32.674-52.734,45.344-76.191m7.216-3.163c-2.13.936-4.3,1.888-6.523,2.861-12.74,23.6-27.572,50-45.651,76.755-86.443,127.936-247.231,264.288-608.941,145.44q10.624,8,21.092,15.811c328.617,117.328,483.9,18.192,568.149-102.4,32.63-46.708,54.61-96.639,71.874-138.467m7.166-3.161c-2.137.945-4.306,1.9-6.549,2.89-17.3,41.942-39.332,92.091-72.108,139-84.226,120.558-239.357,219.7-567.3,103.049,6.846,5.111,13.7,10.225,20.431,15.207,308.984,118.416,459.593,41.8,540.82-71.177,43.646-60.708,67.279-131.913,84.707-188.973m7.128-3.155c-2.131.944-4.308,1.91-6.563,2.906-17.448,57.155-41.1,128.587-84.894,189.495-81.192,112.929-231.61,189.583-539.837,71.908,6.829,5.046,13.554,9.972,20.286,14.9,296.491,121.021,443.513,60.126,521.841-46.142,52.339-71.011,74.034-162.285,89.166-233.07m1.724-.764-1.2.53c-15.144,70.874-36.838,162.381-89.317,233.58-78.289,106.213-225.081,167.173-520.749,46.947q10.013,7.329,19.854,14.463c288.614,124.681,433.139,75.742,508.927-24.861,59.4-78.845,76.6-189.434,87.857-273.041l-5.376,2.382m-1.076-.035.886-.392q2.9-1.287,5.638-2.5.558-4.141,1.1-8.193-2.9,1.605-5.971,3.331-.814,3.833-1.649,7.751m-7.031,3.114c2.235-.987,4.391-1.943,6.5-2.88q.83-3.885,1.633-7.681-2.893,1.626-5.946,3.352-1.081,3.565-2.191,7.208m-7.038,3.107c2.219-.975,4.358-1.922,6.471-2.856q1.1-3.6,2.167-7.125-2.887,1.633-5.915,3.351-1.345,3.278-2.723,6.63m-7.036,3.085c2.183-.954,4.33-1.9,6.418-2.816q1.362-3.3,2.684-6.528l-1.082.613L2422,851.59q-1.6,2.977-3.236,6.018m-7.024,3.056c2.143-.929,4.274-1.853,6.329-2.752q1.608-2.976,3.17-5.892c-1.89,1.071-3.828,2.166-5.791,3.274q-1.832,2.658-3.709,5.37m-6.974,3.008c2.087-.895,4.148-1.782,6.16-2.654q1.821-2.628,3.6-5.2-2.767,1.564-5.636,3.171c-1.35,1.542-2.736,3.116-4.12,4.685m-6.854,2.932c1.987-.845,3.929-1.676,5.855-2.5q1.968-2.23,3.894-4.425c-1.771.995-3.557,1.994-5.386,3.015q-2.156,1.938-4.363,3.913m-6.512,2.76c1.75-.738,3.458-1.464,5.174-2.191,1.3-1.165,2.6-2.327,3.881-3.473-1.6.893-3.2,1.781-4.844,2.692-1.4.991-2.78,1.968-4.211,2.972m-5.04,2.108c1-.415,2.011-.836,2.99-1.247.873-.61,1.747-1.221,2.605-1.823-1.849,1.016-3.692,2.032-5.6,3.07M0,843.163C174.737,773.889,675.244,619.5,1218.17,855.919a1666.01,1666.01,0,0,0,160.483,60.388c-51.819-19.769-105.35-43.038-160.679-70.417C625.375,552.64,164.589,735.175,0,822.724V822.2c164.856-87.636,625.664-269.935,1218.181,23.273a1836.438,1836.438,0,0,0,168.625,73.441c2.739.854,5.458,1.649,8.192,2.486-56.461-24.043-115.409-52.453-177.032-85.967C578.6,487.723,154.657,693.276,0,799.6v-.565c154.98-106.437,579-311.623,1218.19,35.99,63.01,34.268,123.239,63.227,180.85,87.606,3.39,1.027,6.791,2.088,10.168,3.087-60.433-28.153-124.086-61.455-191.248-100.739C535.451,425.766,144.912,648.334,0,773.644v-.617c145.265-125.445,535.945-347.513,1218.2,51.545,68.209,39.9,132.817,73.653,194.085,102.074,3.367.989,6.7,1.9,10.053,2.857-64.085-32.151-132.083-70.171-204.378-114.985C496.905,367.569,135.617,599.876,0,743.991v-.685c135.995-144.253,497.5-375.913,1218.2,70.817,73.081,45.3,141.784,83.681,206.475,116.047,3.58,1.02,7.172,2.064,10.74,3.053-67.732-36.136-140.06-78.85-217.463-129.159C463.911,313.976,127.037,547.6,0,709.63v-.747c127.414-162.152,464.565-395.038,1218.2,94.79,78.1,50.759,151.035,93.807,219.285,130.141,3.5.963,6.965,1.866,10.448,2.8-71.217-40.04-147.711-87.372-229.99-143C437.88,266.183,119.71,491.269,0,669.241v-.853C120.11,490.345,438.647,266.138,1218.208,793.221c82.856,56.023,159.859,103.645,231.5,143.859,3.645.972,7.294,1.956,10.927,2.9-74.781-43.96-155.452-95.835-242.688-156.823C419.967,225.275,114.215,431.246,0,621.632V620.7C114.616,430.316,420.779,225.275,1218.211,782.771c87.783,61.371,168.918,113.517,244.084,157.647,3.524.907,7.03,1.779,10.542,2.657-78.183-47.792-162.941-104.218-254.9-170.376C411.087,192.2,111.24,368.579,0,565.986v-1.008C111.65,367.666,411.94,192.239,1218.213,772.32c92.451,66.516,177.612,123.176,256.138,171.128q5.424,1.352,10.832,2.666c-81.669-51.647-170.476-112.493-267.243-183.867C411.22,167.215,111.31,305.23,0,502.6v-1.2C111.749,304.282,412.171,167.338,1218.215,761.87c97.227,71.713,186.412,132.795,268.39,184.593q5.336,1.283,10.652,2.523c-85.061-55.441-177.889-120.732-279.319-197.2C418.929,149.455,114.469,243.771,0,433.411v-1.165C114.928,242.931,419.909,149.608,1218.218,751.418c101.835,76.769,195,142.284,280.331,197.862q5.324,1.234,10.621,2.414c-88.42-59.2-185.213-128.877-291.236-210.356C432.291,137.551,120.423,186.436,0,361.272v-1.025c120.807-174.53,433.05-222.7,1218.219,380.719,106.428,81.792,203.538,151.675,292.221,211.017,3.574.8,7.154,1.609,10.714,2.377-91.822-62.967-192.557-136.959-303.22-223.478C448.982,129.7,128.47,134.6,0,289.264v-.986C128.832,133.947,449.68,129.655,1218.22,730.515c111.031,86.8,212.055,160.994,304.109,224.092,3.517.755,7.013,1.47,10.516,2.2C1437.7,890.125,1333.1,811.864,1217.931,720.428,467.1,124.325,137.825,88.627,0,219.76v-.952C138.17,88.016,467.749,124.241,1218.222,720.063c115.52,91.713,220.4,170.173,315.764,236.977,3.53.729,7.079,1.5,10.592,2.2-98.472-70.378-206.974-152.928-326.646-249.265C485.386,120.275,147.841,48.158,0,154.181v-.894c148.157-105.7,485.958-33.15,1218.224,556.324,120,96.6,228.757,179.336,327.427,249.832,3.464.688,6.9,1.314,10.346,1.971-101.721-74.017-214.027-160.78-338.067-261.892C502.943,116.687,157.992,12.568,0,93.282v-.889c158.3-80.378,503.505,24.15,1218.226,606.766,124.351,101.368,236.913,188.32,338.823,262.456,3.479.661,6.974,1.356,10.44,1.988-104.992-77.658-221.133-168.644-349.558-274.536C519.455,113.154,167.986-18.934,0,37.067v-.833c168.284-55.688,519.988,76.754,1218.226,652.473,128.736,106.147,245.123,197.316,350.3,275.093,3.437.626,6.841,1.189,10.264,1.786-108.232-81.267-228.106-176.362-360.863-286.972C705.518,251.681,376.6,57.05,169.149,0h2.238C379.12,57.957,707.632,252.834,1218.228,678.255c133.052,110.858,253.151,206.121,361.559,287.5,3.44.6,6.884,1.206,10.309,1.776-111.477-84.867-235.086-184.059-372.168-299.375C776.081,296.474,468.049,92.666,255.957,0h1.417C469.545,93.053,777.32,296.907,1218.228,667.8c137.372,115.558,261.2,214.918,372.85,299.9,3.4.564,6.788,1.1,10.176,1.638-114.689-88.434-241.987-191.683-383.327-311.635C815.95,316.562,522.818,110.828,310.924,0h1.186c211.913,111.063,504.838,316.8,906.118,657.351,141.612,120.183,269.119,223.592,383.967,312.136q5.077.8,10.134,1.565c-117.878-91.978-248.845-199.256-394.4-323.8C845.108,328.263,564.059,122.589,353.866,0h.909c210.219,122.726,491.018,328.234,863.454,646.9,145.825,124.77,277,232.211,395.029,324.3,3.367.507,6.738,1.017,10.093,1.5-121.057-95.5-255.676-206.79-405.425-335.892C867.865,335.007,597.315,130.716,389.429,0h.885C598.2,130.82,868.526,334.961,1218.229,636.447c150,129.319,284.811,240.762,406.013,336.367,347.833,49.526,616.85-41.081,757.837-99.553,4.552-2.466,9-4.9,13.285-7.264q6.211-4.384,12.041-8.566,5.54-5.02,10.7-9.747l2.454-2.825q3.579-4.129,6.979-8.04,4.228-6.171,8.186-11.857,3.594-6.644,6.989-12.69,3-7.027,5.872-13.328,2.444-7.322,4.859-13.785,1.112-4.284,2.243-8.25V778.6q-.354,1.269-.708,2.57.353-.9.708-1.773v3.7l-.334,2,.334-.629v.98l-.573,1.095q-.552,3.372-1.088,6.9.833-1.273,1.66-2.488v.824q-.908,1.347-1.828,2.764-.543,3.576-1.079,7.292,1.471-1.825,2.908-3.523v.719q-1.5,1.786-3.039,3.71-.534,3.723-1.069,7.585,2.093-2.129,4.108-4.072v.646q-2.067,2-4.216,4.2-.531,3.846-1.067,7.816,2.461-2.05,4.8-3.913.239-3.607.483-7.121v7.332l-.03.025q-.277,4.159-.553,8.435l.584-.381v.556l-.622.407-.413,6.4-.141,2.185,1.176-.633v.53l-1.212.651q-.278,4.3-.566,8.7l1.779-.779v.51l-1.812.795c-6.289,95.906-17.077,225.511-82.46,310.645-73.561,95.781-216.245,135.181-499.25,6.938q9.566,6.863,18.986,13.561c281.756,134.322,423.841,103.026,495.621,11.15,44.434-56.872,61.924-136.979,68.915-215.413v5.088c-7.294,76.883-25,154.873-68.547,210.613-71.7,91.777-213.429,123.206-494.009-10.023,6.149,4.363,12.2,8.62,18.264,12.882,281.361,140.013,423.3,115.781,493.537,27.256,24.948-31.447,40.849-71.01,50.756-114.2v2.089c-9.951,42.474-25.774,81.372-50.391,112.4-70.132,88.4-211.6,112.826-491.555-25.894q8.9,6.256,17.674,12.358c282.412,146.162,424.665,128.165,493.6,42.475,12.507-15.546,22.592-33.331,30.676-52.757v1.226c-8.026,19.06-18,36.519-30.311,51.823-68.8,85.521-210.436,103.792-491.127-40.8,5.663,3.937,11.329,7.875,16.894,11.7,284.672,152.747,427.654,140.4,495.495,57.121,3.186-3.912,6.188-8,9.049-12.212v.83c-2.753,4.024-5.636,7.93-8.688,11.676-67.669,83.071-209.9,95.75-492.5-55.123,5.494,3.76,10.93,7.457,16.355,11.14,269.294,149.33,412.715,152.681,484.837,85.939v.625c-71.994,66.215-214.541,63.022-481.165-84.062,5.189,3.513,10.312,6.948,15.43,10.378,245.531,140.412,387.482,161.2,465.735,116.98v.515c-77.894,43.787-218.565,23.473-460.935-114.282,4.6,3.08,9.186,6.143,13.714,9.14,225.386,132.663,364.575,166.155,447.221,140.522v.462c-81.926,25.281-219.177-7.319-440.4-136.506,3.885,2.558,7.788,5.134,11.629,7.642,207.687,125.531,343.2,168.309,428.775,158.006v.416c-84.235,10.084-216.677-31.095-418.437-151.711q4.165,2.688,8.3,5.345c131.411,81.374,234.323,130.179,314.175,153.58h-1.435c-75.468-22.313-171.384-67.165-292.286-140.535,104.209,65.882,190.7,111.582,262.12,140.535h-1.063c-75.91-30.867-168.788-80.592-281.741-153.226Q2027.5,1267.9,2009,1256.088c-11.573-7.113-23.311-14.419-35.317-22.033q-16.389-9.988-33.375-20.664-17.574-10.593-35.86-22.013-17.492-10.441-35.64-21.648-17.39-10.27-35.376-21.245-17.268-10.078-35.085-20.811c-11.395-6.564-22.924-13.287-34.7-20.305-11.217-6.365-22.55-12.87-34.127-19.672-11.015-6.143-22.15-12.433-33.51-19q-16.093-8.8-32.637-18.156-16.391-8.76-33.291-18.16c-10.787-5.62-21.765-11.481-32.849-17.48q-15.933-8.07-32.257-16.651-15.877-7.762-32.189-16.111-15.106-7.1-30.544-14.673c-9.871-4.416-19.873-9.023-29.939-13.729q-14.951-6.3-30.19-13.057c-9.395-3.679-18.88-7.517-28.414-11.437q-13.457-4.81-27.05-9.894a1662.709,1662.709,0,0,1-168.665-63.006C675.029,619.918,174.515,774.448,0,843.666Z" transform="translate(-0.205 -0.191)" fill="#fff"/>
          </g>
        </g>
      </g>
    </g>
  </g>
</svg>
