<svg xmlns="http://www.w3.org/2000/svg" width="155.376" height="48.567" viewBox="0 0 155.376 48.567">
  <g id="Group_7617" data-name="Group 7617" opacity="0.92">
    <path id="Path_82880" data-name="Path 82880" d="M360.007,192.214h-1.169v-8.448h-2.376v-1.035H362.4v1.035h-2.393Z" transform="translate(-355.723 -143.835)" fill="#eee"/>
    <path id="Path_82881" data-name="Path 82881" d="M377.222,187.124c0,2.192.213,3.972,1.833,3.972s1.837-1.78,1.837-3.972-.216-3.973-1.837-3.973-1.833,1.782-1.833,3.973m4.89,0c0,2.391-.441,4.929-3.058,4.929S376,189.515,376,187.124s.439-4.927,3.054-4.927,3.058,2.536,3.058,4.927" transform="translate(-368.451 -143.487)" fill="#eee"/>
    <path id="Path_82882" data-name="Path 82882" d="M399.586,192.214h-1.169v-8.448h-2.376v-1.035h5.937v1.035h-2.391Z" transform="translate(-381.505 -143.835)" fill="#eee"/>
    <path id="Path_82883" data-name="Path 82883" d="M413.517,188.655h2.548l-1.206-4.584h-.028Zm.57-5.925h1.568l2.548,9.483h-1.222l-.676-2.6H413.28l-.707,2.6h-1.222Z" transform="translate(-391.479 -143.834)" fill="#eee"/>
    <path id="Path_82884" data-name="Path 82884" d="M433.291,182.73h1.169v8.448h3.853v1.035h-5.022Z" transform="translate(-405.771 -143.834)" fill="#eee"/>
    <rect id="Rectangle_1321" data-name="Rectangle 1321" width="1.168" height="9.483" transform="translate(36.868 38.896)" fill="#eee"/>
    <path id="Path_82885" data-name="Path 82885" d="M468.254,182.73h1.516l3.134,7.917h.026V182.73H474.1v9.483h-1.61l-3.04-7.677h-.028v7.677h-1.17Z" transform="translate(-428.546 -143.834)" fill="#eee"/>
    <path id="Path_82886" data-name="Path 82886" d="M493.17,184.839c0-1-.357-1.689-1.474-1.689a1.407,1.407,0,0,0-1.565,1.542c0,2.671,4.473,1.077,4.473,4.544a2.66,2.66,0,0,1-2.945,2.816c-2.22,0-2.872-1.141-2.872-3.161h1.169c0,1.062.068,2.2,1.781,2.2a1.6,1.6,0,0,0,1.648-1.673c0-2.683-4.476-1.128-4.476-4.608a2.478,2.478,0,0,1,2.776-2.617,2.345,2.345,0,0,1,2.654,2.643H493.17" transform="translate(-441.92 -143.486)" fill="#eee"/>
    <path id="Path_82887" data-name="Path 82887" d="M508.934,182.73h1.173V189.4c0,1.4.447,2.046,1.608,2.046,1.246,0,1.62-.717,1.62-2.046V182.73H514.5V189.4c0,1.821-.928,3-2.787,3-1.9,0-2.781-1.051-2.781-3V182.73" transform="translate(-455.045 -143.834)" fill="#eee"/>
    <path id="Path_82888" data-name="Path 82888" d="M530.56,187.034h1.157c.692,0,1.953,0,1.953-1.835,0-.929-.624-1.514-1.713-1.514h-1.4v3.349m-1.169-4.3h3.069a2.5,2.5,0,0,1,.97,4.768v.027a1.559,1.559,0,0,1,1.342,1.579l.079,1.621c.053,1.051.228,1.315.505,1.487h-1.408a2.882,2.882,0,0,1-.32-1.367l-.078-1.475c-.094-1.3-.812-1.379-1.41-1.379H530.56v4.221h-1.169Z" transform="translate(-468.371 -143.834)" fill="#eee"/>
    <path id="Path_82889" data-name="Path 82889" d="M549.195,188.655h2.552l-1.208-4.584h-.028Zm.573-5.925h1.567l2.551,9.483h-1.222l-.677-2.6h-3.029l-.7,2.6H547.03Z" transform="translate(-479.861 -143.834)" fill="#eee"/>
    <path id="Path_82890" data-name="Path 82890" d="M568.974,182.73h1.513l3.134,7.917h.027V182.73h1.17v9.483h-1.607l-3.043-7.677h-.028v7.677h-1.167Z" transform="translate(-494.155 -143.834)" fill="#eee"/>
    <path id="Path_82891" data-name="Path 82891" d="M596.089,188.612c-.108,1.792-.81,3.44-2.881,3.44-2.7,0-3.055-2.538-3.055-4.929s.439-4.927,3.055-4.927c1.94,0,2.747,1.089,2.8,2.948h-1.222c-.026-1.075-.371-1.994-1.579-1.994-1.622,0-1.835,1.782-1.835,3.973s.213,3.972,1.835,3.972c1.421,0,1.617-1.327,1.661-2.483h1.221" transform="translate(-507.951 -143.486)" fill="#eee"/>
    <path id="Path_82892" data-name="Path 82892" d="M610.677,182.73h4.9v1.035h-3.731v2.977h3.52v1.035h-3.52v3.4h3.893v1.035h-5.063Z" transform="translate(-521.321 -143.834)" fill="#eee"/>
    <path id="Path_82893" data-name="Path 82893" d="M641.577,184.839c0-1-.359-1.689-1.474-1.689a1.408,1.408,0,0,0-1.568,1.542c0,2.671,4.476,1.077,4.476,4.544a2.662,2.662,0,0,1-2.948,2.816c-2.22,0-2.868-1.141-2.868-3.161h1.167c0,1.062.068,2.2,1.781,2.2a1.6,1.6,0,0,0,1.647-1.673c0-2.683-4.477-1.128-4.477-4.608a2.479,2.479,0,0,1,2.776-2.617,2.346,2.346,0,0,1,2.655,2.643h-1.167" transform="translate(-538.595 -143.486)" fill="#eee"/>
    <path id="Path_82894" data-name="Path 82894" d="M658.488,187.124c0,2.192.214,3.972,1.836,3.972s1.829-1.78,1.829-3.972-.208-3.973-1.829-3.973-1.836,1.782-1.836,3.973m4.888,0c0,2.391-.439,4.929-3.052,4.929s-3.057-2.538-3.057-4.929.436-4.927,3.057-4.927,3.052,2.536,3.052,4.927" transform="translate(-551.67 -143.487)" fill="#eee"/>
    <path id="Path_82895" data-name="Path 82895" d="M679.206,182.73h1.169v8.448h3.853v1.035h-5.022Z" transform="translate(-565.962 -143.834)" fill="#eee"/>
    <path id="Path_82896" data-name="Path 82896" d="M696.192,182.73h1.168V189.4c0,1.4.453,2.046,1.607,2.046,1.251,0,1.622-.717,1.622-2.046V182.73h1.168V189.4c0,1.821-.928,3-2.79,3-1.9,0-2.775-1.051-2.775-3V182.73" transform="translate(-577.026 -143.834)" fill="#eee"/>
    <path id="Path_82897" data-name="Path 82897" d="M718.29,192.214h-1.171v-8.448h-2.377v-1.035h5.937v1.035H718.29Z" transform="translate(-589.11 -143.835)" fill="#eee"/>
    <rect id="Rectangle_1322" data-name="Rectangle 1322" width="1.168" height="9.483" transform="translate(132.581 38.896)" fill="#eee"/>
    <path id="Path_82898" data-name="Path 82898" d="M742.9,187.124c0,2.192.213,3.972,1.835,3.972s1.835-1.78,1.835-3.972-.215-3.973-1.835-3.973-1.835,1.782-1.835,3.973m4.89,0c0,2.391-.439,4.929-3.056,4.929s-3.055-2.538-3.055-4.929.439-4.927,3.055-4.927,3.056,2.536,3.056,4.927" transform="translate(-606.654 -143.487)" fill="#eee"/>
    <path id="Path_82899" data-name="Path 82899" d="M762.853,182.73h1.514l3.134,7.917h.024V182.73H768.7v9.483H767.09l-3.041-7.677h-.026v7.677h-1.169Z" transform="translate(-620.45 -143.834)" fill="#eee"/>
    <path id="Path_82900" data-name="Path 82900" d="M787.765,184.839c0-1-.36-1.689-1.472-1.689a1.408,1.408,0,0,0-1.568,1.542c0,2.671,4.474,1.077,4.474,4.544a2.66,2.66,0,0,1-2.946,2.816c-2.22,0-2.871-1.141-2.871-3.161h1.168c0,1.062.068,2.2,1.783,2.2a1.6,1.6,0,0,0,1.645-1.673c0-2.683-4.474-1.128-4.474-4.608a2.478,2.478,0,0,1,2.776-2.617,2.347,2.347,0,0,1,2.655,2.643h-1.169" transform="translate(-633.823 -143.486)" fill="#eee"/>
    <path id="Path_82901" data-name="Path 82901" d="M581.1,132.754l.013-6.254c3.917,0,5.354-.194,6.038,4.61h.412v-5.348l-10.671,0v.734h1.849v13.761H576.7v.726h11v-5.624h-.551c-.549,4.252-1.626,4.9-4.647,4.9h-1.4v-6.684h.813c1.358.035,2.128.823,2.406,3.157h.5l0-6.913c-.014.013-.491,0-.491,0,0,.037-.1,2.971-2.468,2.932H581.1" transform="translate(-499.189 -106.725)" fill="#eee"/>
    <path id="Path_82902" data-name="Path 82902" d="M552.7,132.677h-6.021v.684h2.06v4.947c-.346,1.257-2.2,1.782-2.749,1.782-3.847,0-3.574-5.625-3.574-7.135,0-1.377-.138-7.136,3.574-7.136,2.611,0,3.987,2.6,4.54,4.94h.419c0-.963.011-5.547.006-5.536.006-.035-1.793,1.293-1.8,1.273.04-.009-.825-1.233-3.164-1.233-4.54,0-6.206,4.532-6.189,7.691.02,2.892,1.355,7.817,6.189,7.817a3.687,3.687,0,0,0,3.164-1.652c.007-.017,1.914,1.509,1.922,1.515v-7.274H552.7v-.684" transform="translate(-475.15 -106.373)" fill="#eee"/>
    <path id="Path_82903" data-name="Path 82903" d="M699.136,134.708l2.2-6.579,2.337,6.579h-4.534m-8.528-2.624h-2.471v-6.378h3.16c1.853.28,1.933,2.423,1.933,3.1,0,1.651-.691,3.274-2.622,3.274m26.281,2.492c-.549,4.252-1.626,4.889-4.647,4.889h-.185V125.711h1.924v-.743h-6.326v.743h1.923v13.755h-1.524l-5.621-14.911h-.825c.018-.006-4.67,13.528-4.679,13.569.009-.041-.353,1.162-1.125,1.31-.711.033-.658-.337-.658-.467V136.36c0-.685-.053-2.239-.761-2.954a4.08,4.08,0,0,0-2.131-.89s3.457-.714,3.457-4c0-2.3-1.6-3.448-4.278-3.547h-7.592v.743h1.942v13.753h-1.942v.732h6.228v-.732h-1.944v-6.615h2.593c4.494.372-.771,7.355,5.118,7.348h3.713v-.734c-.206,0-1.569.04-1.653-.91a14.468,14.468,0,0,1,.9-3.144h5.055c0-.011,1.573,4.056,1.587,4.056h-1.763v.732h13.77v-5.624Z" transform="translate(-568.982 -105.938)" fill="#eee"/>
    <path id="Path_82904" data-name="Path 82904" d="M628.71,126.492c3.916,0,5.367-.186,6.048,4.618h.414v-5.348H619.61v.73h.406c.549,0,1.852.04,1.928,1.189h0v8.775l-7.28-10.694H610.7v.73h.657c.782,0,1.876.035,1.926,1.189v11.243c0,1.1-1.643,1.516-2.33,1.516h-.009v.546h5.365v-.546c-.685,0-2.34-.419-2.34-1.516l.018-9.9c2.884,4.119,8.321,11.968,8.373,11.959h.269V127.681c.081-1.149,1.382-1.189,1.929-1.189h1.787V140.26H624.31v.725h11v-5.623h-.551c-.547,4.253-1.628,4.9-4.65,4.9h-1.4v-6.684h.807c1.361.035,2.131.823,2.406,3.158h.5l0-6.913c-.01.012-.491,0-.491,0,0,.036-.1,2.971-2.468,2.931h-.75v-6.261" transform="translate(-521.337 -106.724)" fill="#eee"/>
    <path id="Path_82905" data-name="Path 82905" d="M788.467,126.478v-.744h-6.209v.744h1.952l.006,13.749h-1.959v.741h6.209v-.741h-1.95V126.478Z" transform="translate(-633.091 -106.706)" fill="#eee"/>
    <path id="Path_82906" data-name="Path 82906" d="M539.963,90.027v-.739h2.059V75.517H540.14v-.625h10.635v5.26h-.4a11.12,11.12,0,0,0-.694-2.753,2.7,2.7,0,0,0-1.1-1.319,3.384,3.384,0,0,0-1.72-.473c-.337-.023-.718-.023-1.14-.045-.427,0-.875-.022-1.344-.022v6.29c0-.021.067-.021.223-.021a1.084,1.084,0,0,0,.245.021h.249a1.851,1.851,0,0,0,1-.224,1.942,1.942,0,0,0,.694-.513c.068-.112.155-.224.225-.336s.135-.248.2-.381a1.7,1.7,0,0,0,.135-.36,1.9,1.9,0,0,1,.089-.335,1.582,1.582,0,0,0,.043-.292c.026-.087.026-.177.048-.244a.789.789,0,0,1,.022-.157V78.9h.492v6.9h-.536a7.818,7.818,0,0,0-.137-.807c-.044-.222-.111-.448-.156-.67a3.444,3.444,0,0,0-.492-.964,1.533,1.533,0,0,0-.7-.536,2.1,2.1,0,0,0-.9-.158h-.759v6.628h2.036v.739h-6.446" transform="translate(-475.258 -73.587)" fill="#eee"/>
    <path id="Path_82907" data-name="Path 82907" d="M625.967,80.49c-.023-.18-.023-.406-.066-.669-.024-.158-.024-.3-.047-.45s-.021-.315-.044-.474a9.847,9.847,0,0,0-.2-1,3.87,3.87,0,0,0-.38-.961,2.562,2.562,0,0,0-.538-.673,3.406,3.406,0,0,1-.269-.246c-.089-.068-.2-.156-.268-.2a3.527,3.527,0,0,0-.313-.182,1.364,1.364,0,0,0-.4-.11H622c.022,1.3.022,2.507.022,3.651V89.309h1.926v.719h-6.338v-.719h1.927V75.52a15.8,15.8,0,0,0-1.9.066,2.785,2.785,0,0,0-.4.2c-.089.046-.181.112-.293.181-.09.063-.2.133-.313.221a3.107,3.107,0,0,0-.539.7,4.436,4.436,0,0,0-.221.473,3.992,3.992,0,0,0-.16.49c-.088.356-.154.694-.2,1.009a3.7,3.7,0,0,0-.048.467c-.018.134-.04.45-.04.45l-.023.358V80.4h-.472V74.894h11.464l.023,5.6h-.448" transform="translate(-524.09 -73.588)" fill="#eee"/>
    <path id="Path_82908" data-name="Path 82908" d="M699.9,80.824a2.887,2.887,0,0,0,.292-.493c.045-.179.111-.359.155-.558a5.4,5.4,0,0,0,.133-1.21,2.127,2.127,0,0,0-.021-.336c0-.112-.023-.267-.023-.425a4.395,4.395,0,0,0-.225-.984,2.245,2.245,0,0,0-.538-.874,1.1,1.1,0,0,0-.424-.291,1.271,1.271,0,0,0-.694-.135h-3.179v6.336h2.485a2.455,2.455,0,0,0,1.231-.268,1.765,1.765,0,0,0,.807-.762m3.859,9.023a1.915,1.915,0,0,1-.513.132,3.225,3.225,0,0,1-.673.089,2.688,2.688,0,0,1-1.366-.289,1.853,1.853,0,0,1-.694-.806,3.993,3.993,0,0,1-.246-1.14c0-.206-.021-.43-.021-.65v-.65c.021-.47.021-.919,0-1.343a3.434,3.434,0,0,0-.2-1.186,2.2,2.2,0,0,0-.628-.9,2.594,2.594,0,0,0-1.275-.425H695.5v6.627h2.017l.02.719h-6.313v-.719h2.039V75.652h-2.039v-.76h7.633c.358,0,.671,0,.961.023a5.029,5.029,0,0,1,.856.178,3.415,3.415,0,0,1,1.317.627,2.466,2.466,0,0,1,.83,1.052,4.108,4.108,0,0,1,.292,1.635,3.171,3.171,0,0,1-.561,1.992,4.756,4.756,0,0,1-1.188,1.232,5.118,5.118,0,0,1-1.676.76h.021a1.06,1.06,0,0,0,.16.043.9.9,0,0,1,.243.048.69.69,0,0,1,.293.067,2.36,2.36,0,0,1,.693.269,1.915,1.915,0,0,1,.693.448,2.532,2.532,0,0,1,.426.669,4.091,4.091,0,0,1,.222.808,2.548,2.548,0,0,1,.047.425c.021.135.021.268.043.4,0,.114.022.227.022.36V88.95a.568.568,0,0,0,.045.157.736.736,0,0,0,.2.135,1.149,1.149,0,0,0,.4.045l.516-.18.471.469a.991.991,0,0,1-.426.271" transform="translate(-573.789 -73.587)" fill="#eee"/>
    <path id="Path_82909" data-name="Path 82909" d="M740.967,90.027H729.975v-.719h2.038V75.517h-1.859v-.625H740.81v5.26h-.427c-.091-.605-.177-1.141-.29-1.589a11.785,11.785,0,0,0-.381-1.164,2.928,2.928,0,0,0-1.121-1.343,3.464,3.464,0,0,0-1.743-.449c-.339-.023-.719-.023-1.118-.045-.428,0-.876-.022-1.369-.022v6.27h.761a2.09,2.09,0,0,0,1.679-.716c.09-.136.155-.248.245-.359a1.624,1.624,0,0,0,.179-.357c.044-.135.088-.247.137-.36a2.353,2.353,0,0,0,.088-.356,1.059,1.059,0,0,0,.07-.358,2.72,2.72,0,0,0,.04-.426h.492v6.918h-.532c-.026-.293-.07-.56-.116-.807a5.256,5.256,0,0,0-.179-.67,3.588,3.588,0,0,0-.468-.986,1.883,1.883,0,0,0-.671-.537,2.417,2.417,0,0,0-.895-.157h-.83v6.671h1.388a9.1,9.1,0,0,0,1.926-.156A2.548,2.548,0,0,0,739,88.479a4.005,4.005,0,0,0,.873-1.5,6.712,6.712,0,0,0,.292-1.121c.09-.425.157-.919.223-1.434h.584v5.6" transform="translate(-599.033 -73.587)" fill="#eee"/>
    <path id="Path_82910" data-name="Path 82910" d="M582.756,75.653v-.76h4.436v.76h-1.865v8.288a14.253,14.253,0,0,1-.249,3.321c-.539,1.909-1.975,2.851-4.288,2.851a6.926,6.926,0,0,1-3.123-.673,3.563,3.563,0,0,1-2-2.38,13.56,13.56,0,0,1-.207-3.119V75.63h-1.882v-.737h6.151v.737h-1.886v8.311a28.764,28.764,0,0,0,.09,3.052,3.13,3.13,0,0,0,.536,1.328c.583.85,1.531,1.058,2.831,1.058a2.754,2.754,0,0,0,2.809-1.6,4.853,4.853,0,0,0,.378-1.328c.044-.448.068-1.278.068-2.512V75.653h-1.8" transform="translate(-497.158 -73.588)" fill="#eee"/>
    <path id="Path_82911" data-name="Path 82911" d="M659.264,75.653v-.76H663.7v.76h-1.865v8.288a14.443,14.443,0,0,1-.246,3.321c-.539,1.909-1.977,2.851-4.288,2.851a6.906,6.906,0,0,1-3.122-.673,3.57,3.57,0,0,1-2-2.38,13.913,13.913,0,0,1-.2-3.119V75.63h-1.888v-.737h6.153v.737h-1.886v8.311a29.124,29.124,0,0,0,.09,3.052,3.147,3.147,0,0,0,.542,1.328c.581.85,1.525,1.058,2.829,1.058a2.742,2.742,0,0,0,2.8-1.6A4.738,4.738,0,0,0,661,86.453c.045-.448.066-1.278.066-2.512V75.653h-1.8" transform="translate(-546.995 -73.588)" fill="#eee"/>
    <path id="Path_82912" data-name="Path 82912" d="M399.481,101.2a.886.886,0,0,1,.686-.572l3.3-.738-.3-2.948-.006-.064A1.924,1.924,0,0,0,401.3,95.19c-5.908-.477-7.279-1.353-8.715-2.281a.029.029,0,0,1-.005-.013l-.01,0-.094-.059a6.129,6.129,0,0,0-3.206-1,15.6,15.6,0,0,0-3.963.718c-.515.148-.989.3-1.452.449a16.08,16.08,0,0,1-6.133,1.033l-.491-.014-.128.473c-.1.364-.846,3.334-.124,5.24a1.493,1.493,0,0,0-.643,1.184c.026.65-.127.81-.179.861-.309.326-1.34.368-2.207.368h-.326l-.187.253a2.445,2.445,0,0,1-2.43.722,2.572,2.572,0,0,1-.016-2.2,1.825,1.825,0,0,1,1.473-.592h.187a1.428,1.428,0,0,0,1.425-1.429V93.6a6,6,0,0,0,.6-1.276,2.686,2.686,0,0,0,2.289-2.629,2.638,2.638,0,0,0-.416-1.418,3.729,3.729,0,0,0,2.225-3.3,2.929,2.929,0,0,0-1.522-2.718,23.639,23.639,0,0,0,.787-2.689l1.038-3.715a3.265,3.265,0,0,1,3.093-2.4h18.276a3.853,3.853,0,0,1-3.4,1.6H385.983l-.577,1.238h9.908a3.828,3.828,0,0,1-3.537,1.824h-7.186l-.578,1.236h6.411a3.821,3.821,0,0,1-3.489,1.753h-3.919l-.577,1.24h4.106a1.293,1.293,0,0,1,.139.739,1.469,1.469,0,0,1-1.489,1.441,2.43,2.43,0,0,1-.949-.238q-.267-.112-.54-.231l-.956.855.534.228a4.541,4.541,0,0,0,1.91.545,2.682,2.682,0,0,0,1.924-.813c.7.046,1.836.139,2.936.229,1.315.109,2.553.208,3.2.244.32.017.619.033.906.046.549.027,1.046.054,1.544.087,2.494,4.05,3.772,4.584,8.6,5.164.347.62.663,1.279.962,1.944v7.931c.028.363.028.486-.023.55a4.077,4.077,0,0,1-1.169.638L400,103.248a2.261,2.261,0,0,1-.52-2.047m-.88,2.142h-8.05L394,99.7a2.3,2.3,0,0,0,.628-2.436,26.147,26.147,0,0,0-1.1-2.391c1.371.635,3.45,1.209,7.673,1.549.5.04.639.213.744.676l.184,1.824-2.209.494a2.115,2.115,0,0,0-1.592,1.334,3.1,3.1,0,0,0,.274,2.591m-14.519,0a2.182,2.182,0,0,1,.268-2.032,1.6,1.6,0,0,1,1.381-.508l2.353.435.059.01h.327l1.665-1.793.017-.015a1.99,1.99,0,0,0,.265-2.612l-2.225-3.661a7.852,7.852,0,0,1,1.082-.086h.013a4.915,4.915,0,0,1,2.319.68c.165.344.386.8.638,1.309.467.947,1.046,2.124,1.21,2.6a1.067,1.067,0,0,1-.349,1.18l-4.26,4.5Zm-.666-2.844a3.172,3.172,0,0,0-.6,2.844h-7.583a2.727,2.727,0,0,0,1.812-.694,2.3,2.3,0,0,0,.527-1.728c.017-.042.1-.215.47-.38l.654-.3-.39-.6c-.649-.994-.368-3.17-.115-4.351h.054a17.645,17.645,0,0,0,5.991-1.1c.454-.147.928-.3,1.426-.445l.017-.005c.007,0,.521-.163,1.219-.33l2.47,4.073.022.035c.246.35.275.582-.174,1.105l-1.238,1.336-2.031-.376-.02,0a2.836,2.836,0,0,0-2.511.919m-13.445-.269a3.529,3.529,0,0,0-.2,3.114h-1.28v-10a5.3,5.3,0,0,0,1.41-.41,10.2,10.2,0,0,1-.164,1.24c-.02.107-.041.221-.062.339l-.119.722h.732a5.51,5.51,0,0,0,2.542-.495v4.173a.192.192,0,0,1-.185.194h-.187a2.936,2.936,0,0,0-2.49,1.121m-2.716,2.032-5.836-1.519-5.836,1.519V91.82l5.836-1.511,5.836,1.511Zm-10.923,1.082,5.087-1.325,5.087,1.325Zm2.035-15.366a1.476,1.476,0,0,1,1.5-.573l.527.092.167-.51a.751.751,0,0,1,.187-.315.876.876,0,0,1,.651-.2,3.893,3.893,0,0,1,2.438,1.357,6.486,6.486,0,0,1,.738.986c.045.075.092.152.136.221.06.1.108.176.122.2a4.17,4.17,0,0,1,.376.645c.259-.36.512-.722.77-1.079.006-.009,0-.046-.025-.089a4.435,4.435,0,0,0-.276-.465c-.021-.031-.039-.063-.056-.094l-.006-.005a1.486,1.486,0,0,0-.086-.139c-.084-.132-.207-.329-.261-.432l1.612-2.585a4.534,4.534,0,0,0,.913.1h.038c2.275,0,4.631-1.315,4.631-3.512v-.055a10.747,10.747,0,0,0-.229-1.626,5.36,5.36,0,0,1-.115-.733c0-.24.338-.508.824-.508h.739l-.335-1.909a3.97,3.97,0,0,0,1.642-3.191,5.669,5.669,0,0,1,2.046,3.921,6.327,6.327,0,0,1-.2,1.777l-.078.283.014,0a25.436,25.436,0,0,1-.859,2.771l-.192.5.467.262c.828.47,1.337.813,1.337,1.907A2.653,2.653,0,0,1,375.3,87.4l-1.49.28,1.261.843a1.425,1.425,0,0,1,.646,1.177,1.462,1.462,0,0,1-1.493,1.429h-.478l-.134.437c-.459,1.508-.964,2.247-2.582,2.405a8.983,8.983,0,0,0,.124-1.524c0-.148-.009-.556-.017-.69l-.075-1.405-.987,1.006a3.15,3.15,0,0,1-1.584.737V90.865l-7.075-1.835-2.52.652a1.893,1.893,0,0,1-.533-1.7M366,83.434a.181.181,0,0,1,.164-.153l1.066.036c1.3-.048,2.623-.58,2.77-1.935a1.714,1.714,0,0,0-1.566-1.806,3.447,3.447,0,0,0-1.663.749,2.25,2.25,0,0,1-.97.478c-.161,0-.291-.108-.291-.2a.1.1,0,0,1,.008-.042l.679-.917-.588-.393c-.126-.083-.32-.237-.343-.353-.01-.054.069-.152.1-.18a10.934,10.934,0,0,0,.8-1.058c.177-.244.275-.378.567-.378a.519.519,0,0,1,.523.513c0,.187.2.335.459.335s.372-.182.53-.335c0,0,.607-.557.285-.818-.368-.3-1.836.312-1.426-1.038l.1-.191a3.031,3.031,0,0,1,2.31-.731,6.879,6.879,0,0,1,.866.059l.217.028,3.084-1.9a.638.638,0,0,1,.032.11l.005.018a2.678,2.678,0,0,1-1.371,2.583l-.373.216.244,1.389a1.767,1.767,0,0,0-1.343,1.642,5.377,5.377,0,0,0,.136.966,9.8,9.8,0,0,1,.208,1.439c0,1.45-1.993,2.4-3.683,2.348h-.044a4.2,4.2,0,0,1-1.409-.3.219.219,0,0,1-.081-.186m2.555-9.658a4.055,4.055,0,0,1,.89-.774,3.968,3.968,0,0,1,1.062-.477,4.254,4.254,0,0,1,1.991-.048l-2.184,1.347c-.276-.025-.545-.04-.8-.04a6.549,6.549,0,0,0-1.024.078c.023-.027.044-.058.066-.086m33.324-.317h8.244a3.836,3.836,0,0,1-3.394,1.6h-6.086a5.561,5.561,0,0,0,1.236-1.6m-.418,4.664h-6.083a5.7,5.7,0,0,0,1.344-1.824H405a3.82,3.82,0,0,1-3.537,1.824m-4.842,2.99H390.54a5.587,5.587,0,0,0,1.3-1.753h8.273a3.825,3.825,0,0,1-3.494,1.753m1.4,4.646a7.593,7.593,0,0,1,4.7,2.581q.375.446.736.957c-3.242-.427-4.373-.9-6.183-3.653.237.034.491.07.749.115m12.946,13.35c.119.189.223.37.32.544.12.215.237.423.378.639a2.969,2.969,0,0,1-2.308-1.562,1.408,1.408,0,0,1,1.61.379m-7.711,4.236,1.264-.477.018-.006c1.8-.744,2.053-1.21,1.968-2.4V95.63c1.365,3.47,2.658,5.91,5.3,5.908a5.088,5.088,0,0,0,1.156-.14l1.038-.232-.714-.786a6.636,6.636,0,0,1-.926-1.335c-.1-.187-.212-.376-.343-.588a2.645,2.645,0,0,0-3.285-.813c-.543-1.075-1.092-2.477-1.747-4.205l-.143-.329c-.11-.26-.227-.521-.342-.782v-.045h-.022a24.359,24.359,0,0,0-1.355-2.688,15.288,15.288,0,0,0-1.468-2.058,8.78,8.78,0,0,0-5.433-3,31.378,31.378,0,0,0-4.009-.376l-.9-.047c-.623-.034-1.915-.139-3.161-.242-.843-.068-1.7-.139-2.383-.189a2.536,2.536,0,0,0,.071-.594,3.4,3.4,0,0,0-.071-.739h8.85a5.1,5.1,0,0,0,4.915-3,5.1,5.1,0,0,0,4.878-3.057h.317a5.134,5.134,0,0,0,5.02-3.206l.4-.873H382.162a4.488,4.488,0,0,0-4.279,3.275l-.018.068a6.359,6.359,0,0,0-2.638-3.339,6.64,6.64,0,0,0-5.061-.888,5.292,5.292,0,0,0-1.4.634,5.156,5.156,0,0,0-1.181,1.046,9.592,9.592,0,0,0-1.025,1.643,1.924,1.924,0,0,0-.4.427l-.359.671-.018.042a8.537,8.537,0,0,1-1.358,2.118,1.409,1.409,0,0,0-.373,1.211,1.581,1.581,0,0,0,.416.776l-.012.018a1.34,1.34,0,0,0-.182.682,1.451,1.451,0,0,0,1.531,1.389,2.986,2.986,0,0,0,1.658-.64,4.463,4.463,0,0,1,.975-.543.468.468,0,0,1,.45.453c0,.649-.835,1-1.431,1.042l-1.219.13c-.877.081-1.291.547-1.291.962a1.049,1.049,0,0,0,.338.79l.085.091.315.276-1.3,2.079a4.815,4.815,0,0,0-2.951-1.4,2.093,2.093,0,0,0-1.546.538,1.641,1.641,0,0,0-.293.367h-.018a2.706,2.706,0,0,0-2.254,1.16,2.743,2.743,0,0,0,.274,2.717l-3.258.846v15.587h59.8v-3.108Z" transform="translate(-354.343 -71.149)" fill="#eee"/>
    <path id="Path_82913" data-name="Path 82913" d="M360.5,133.81l.01-.581.03-.007a.206.206,0,0,1,.188.02.252.252,0,0,1,.059.2.407.407,0,0,1-.072.238.3.3,0,0,1-.181.122l-.034.008m.177.689v-.067l-.016,0a.274.274,0,0,1-.121.018.066.066,0,0,1-.04-.029c-.008-.008-.011-.04-.008-.132l0-.376a1.933,1.933,0,0,0,.327-.11.635.635,0,0,0,.236-.2.442.442,0,0,0,.089-.26.257.257,0,0,0-.13-.244.576.576,0,0,0-.431,0l-.6.154h-.007l0,.066.016,0a.336.336,0,0,1,.124-.016.074.074,0,0,1,.039.026.583.583,0,0,1,.006.136l-.017.9a.5.5,0,0,1-.01.142.29.29,0,0,1-.043.055.416.416,0,0,1-.128.047l-.008,0v.067l.709-.185Z" transform="translate(-358.001 -111.482)" fill="#eee"/>
    <path id="Path_82914" data-name="Path 82914" d="M363.435,133.232l.2-.487.173.388-.37.1m-.43.545H363v.063l.478-.123v-.063l-.011,0a.315.315,0,0,1-.128.009c-.028-.009-.038-.026-.036-.062a.349.349,0,0,1,.028-.117l.059-.144.465-.119.064.144a.513.513,0,0,0,.031.067.166.166,0,0,1,0,.035.052.052,0,0,1-.018.042.294.294,0,0,1-.107.052l-.038.008v.066l.674-.176h.014V133.4h-.016a.118.118,0,0,1-.089-.009.52.52,0,0,1-.107-.169l-.473-1.019-.008-.009-.034.009-.511,1.247a1.116,1.116,0,0,1-.118.238.277.277,0,0,1-.115.09" transform="translate(-359.98 -110.913)" fill="#eee"/>
    <path id="Path_82915" data-name="Path 82915" d="M368.022,132.2l-.016,0a.35.35,0,0,1-.086.017.1.1,0,0,1-.061-.017.052.052,0,0,1-.016-.038c0-.022.016-.064.1-.178l.2-.3.183.238a1.11,1.11,0,0,1,.067.093.042.042,0,0,1,.005.025.058.058,0,0,1-.019.044.263.263,0,0,1-.1.047l-.01,0v.066l.681-.178.01,0,0-.062-.016,0a.166.166,0,0,1-.086-.01.673.673,0,0,1-.127-.135l-.359-.47.258-.377c.072-.1.118-.162.132-.185a.436.436,0,0,1,.077-.07.288.288,0,0,1,.092-.038h.01v-.066l-.529.136v.064l.013,0a.22.22,0,0,1,.085-.009.064.064,0,0,1,.039.018.079.079,0,0,1,.013.042.616.616,0,0,1-.113.216l-.137.2-.156-.208-.067-.085a.116.116,0,0,1,0-.03.069.069,0,0,1,.02-.046.126.126,0,0,1,.072-.037l.046-.011v-.065l-.7.181h-.009v.062h.016a.106.106,0,0,1,.115.033c0,.006.022.026.091.119l.335.424-.274.4a1.745,1.745,0,0,1-.189.245.448.448,0,0,1-.139.084l-.008,0v.061l.55-.14V132.2" transform="translate(-362.895 -109.882)" fill="#eee"/>
    <path id="Path_82916" data-name="Path 82916" d="M360.869,138.93a.371.371,0,0,1,.128-.017.2.2,0,0,1,.1.06.438.438,0,0,1,.064.164l.006.012.06-.015.005-.4-1.245.322-.01,0,0,.4.063-.014v-.009a.513.513,0,0,1,.113-.26.371.371,0,0,1,.2-.108l.084-.022-.02,1.062a.32.32,0,0,1-.013.127.1.1,0,0,1-.039.055.191.191,0,0,1-.087.046l-.054.013,0,.064.731-.19.01,0v-.063l-.061.014a.168.168,0,0,1-.085.007.079.079,0,0,1-.036-.03.342.342,0,0,1-.01-.124l.021-1.066.091-.026" transform="translate(-358.008 -115.172)" fill="#eee"/>
    <path id="Path_82917" data-name="Path 82917" d="M364.45,138.266a.123.123,0,0,1,.038-.054.247.247,0,0,1,.093-.045l.054-.012v-.067l-.73.19h-.01v.064l.061-.013a.141.141,0,0,1,.085-.007.071.071,0,0,1,.035.029.488.488,0,0,1,.005.127l-.016.918a.458.458,0,0,1-.01.13.174.174,0,0,1-.038.055.236.236,0,0,1-.089.042l-.056.014v.063l.728-.186.01,0v-.066l-.059.016a.219.219,0,0,1-.089.005.058.058,0,0,1-.034-.029.552.552,0,0,1-.007-.124l.017-.92a.344.344,0,0,1,.01-.129" transform="translate(-360.55 -114.754)" fill="#eee"/>
    <path id="Path_82918" data-name="Path 82918" d="M367.155,137.893a.381.381,0,0,1-.1.114.588.588,0,0,1-.195.081l.01-.521a.509.509,0,0,1,.2-.025.147.147,0,0,1,.092.059.229.229,0,0,1,.029.135.321.321,0,0,1-.034.157m-.3.3a.591.591,0,0,1,.217-.026.156.156,0,0,1,.113.071.293.293,0,0,1,.039.156.38.38,0,0,1-.038.16.368.368,0,0,1-.1.13.372.372,0,0,1-.143.072c-.036.01-.054.008-.069,0a.082.082,0,0,1-.026-.067Zm-.366.657a.126.126,0,0,1-.045.054.352.352,0,0,1-.124.047l-.01,0v.067l.708-.184a.878.878,0,0,0,.452-.244.444.444,0,0,0,.135-.3.228.228,0,0,0-.118-.224.458.458,0,0,0-.225-.045.707.707,0,0,0,.215-.169.359.359,0,0,0,.076-.205.251.251,0,0,0-.217-.267.956.956,0,0,0-.336.043l-.655.169-.01,0v.067l.016-.005a.307.307,0,0,1,.122-.016.062.062,0,0,1,.042.029.682.682,0,0,1,.008.131l-.016.907a.416.416,0,0,1-.016.142" transform="translate(-362.14 -114.292)" fill="#eee"/>
    <path id="Path_82919" data-name="Path 82919" d="M370.808,136.619a.184.184,0,0,1,.04-.054.21.21,0,0,1,.093-.043l.054-.015,0-.066-.734.19-.008,0v.066l.061-.016a.181.181,0,0,1,.083,0,.061.061,0,0,1,.038.028c.007.008.01.038.007.126l-.017.919a.329.329,0,0,1-.013.127.087.087,0,0,1-.036.055.237.237,0,0,1-.092.045l-.054.013v.068l.731-.193h.008l0-.064-.064.017a.159.159,0,0,1-.081,0,.054.054,0,0,1-.039-.029.422.422,0,0,1-.008-.124l.016-.919a.824.824,0,0,1,.01-.129" transform="translate(-364.694 -113.681)" fill="#eee"/>
    <path id="Path_82920" data-name="Path 82920" d="M362.375,143.97l-.373.1.2-.483m1.739-.539a.428.428,0,0,1-.043.184.3.3,0,0,1-.1.115.775.775,0,0,1-.211.078l-.04.012.008-.583.1-.028a.259.259,0,0,1,.224.013.266.266,0,0,1,.064.207m.537.817a.1.1,0,0,1-.084-.008.382.382,0,0,1-.086-.087l-.313-.376a.658.658,0,0,0,.186-.144.424.424,0,0,0,.113-.291.288.288,0,0,0-.068-.211.28.28,0,0,0-.191-.085,1.406,1.406,0,0,0-.371.057l-.632.166-.01,0v.066l.014-.007a.3.3,0,0,1,.123-.014.052.052,0,0,1,.038.029.485.485,0,0,1,.01.131l-.014.906a.512.512,0,0,1-.016.143.142.142,0,0,1-.046.053.281.281,0,0,1-.1.044.106.106,0,0,1-.081-.01.461.461,0,0,1-.11-.17l-.472-1.019,0-.008-.036.008-.513,1.249a1.15,1.15,0,0,1-.116.234.25.25,0,0,1-.114.092l-.017.005a.153.153,0,0,1-.084,0,.058.058,0,0,1-.039-.026.508.508,0,0,1-.007-.127l.016-.922c0-.085.006-.115.006-.126.016-.023.024-.043.042-.055a.232.232,0,0,1,.093-.045l.053-.014,0-.064-.573.149h0l-.38.994-.361-.8-.567.145h-.012v.066l.062-.014a.147.147,0,0,1,.078,0c.022.005.036.017.038.029s.013.031.01.124l-.014.883c0,.076,0,.1,0,.1a.249.249,0,0,1-.031.08.165.165,0,0,1-.059.053.239.239,0,0,1-.078.038l-.024,0v.064l.482-.123h.013v-.067l-.018.006a.227.227,0,0,1-.127.005.107.107,0,0,1-.051-.063v-.123l.012-.927.491,1.076.005.01.042-.01.522-1.35-.016.964a.779.779,0,0,1-.012.128.124.124,0,0,1-.039.054.229.229,0,0,1-.093.044l-.052.016,0,.063.685-.178h0l.474-.122h.008v-.064h-.013a.3.3,0,0,1-.126.009.056.056,0,0,1-.038-.062.345.345,0,0,1,.03-.114l.056-.145.469-.119.062.147c.027.055.03.063.03.068a.061.061,0,0,1,.005.031.07.07,0,0,1-.021.046.262.262,0,0,1-.1.046l-.036.01,0,.063.64-.162.045-.014h0l.668-.173.01,0v-.063l-.018.005a.534.534,0,0,1-.1.017.042.042,0,0,1-.018,0,.046.046,0,0,1-.038-.026.336.336,0,0,1-.01-.132l.007-.382.073-.02.424.517.006,0,.44-.11.007,0v-.063Z" transform="translate(-357.847 -117.731)" fill="#eee"/>
    <path id="Path_82921" data-name="Path 82921" d="M361.038,150.708a.145.145,0,0,1-.029.077.088.088,0,0,1-.048.035.883.883,0,0,1-.113-.008.72.72,0,0,0-.309.018,1.009,1.009,0,0,0-.376.194,1.094,1.094,0,0,0-.284.356.889.889,0,0,0-.11.41.6.6,0,0,0,.088.34.421.421,0,0,0,.263.2.577.577,0,0,0,.164.024.96.96,0,0,0,.233-.034.858.858,0,0,0,.295-.133,1.046,1.046,0,0,0,.245-.242l.007,0v-.166l-.025.036a1.18,1.18,0,0,1-.227.254.642.642,0,0,1-.235.115.322.322,0,0,1-.246-.01.3.3,0,0,1-.135-.187,1.266,1.266,0,0,1-.041-.326,1.2,1.2,0,0,1,.067-.359.628.628,0,0,1,.161-.23.54.54,0,0,1,.231-.135.316.316,0,0,1,.414.271l.005.012.061-.017.008-.512-.062.018,0,.008" transform="translate(-357.877 -122.957)" fill="#eee"/>
    <path id="Path_82922" data-name="Path 82922" d="M365.151,150.753a.67.67,0,0,1-.169.314.65.65,0,0,1-.3.166l-.08.022a.14.14,0,0,1-.076,0,.031.031,0,0,1-.026-.027c-.005-.006-.013-.035-.009-.131l.009-.386a.309.309,0,0,1,.134-.009c.03.008.051.03.079.074a.406.406,0,0,1,.047.179l0,.015.06-.017.013-.759-.067.017v.008a.549.549,0,0,1-.077.26.278.278,0,0,1-.183.128l-.008,0,.008-.543.132-.036a.835.835,0,0,1,.208-.034.22.22,0,0,1,.141.054.363.363,0,0,1,.074.189l.005.017.059-.018.007-.44-1.16.3h-.009v.064l.06-.017a.146.146,0,0,1,.1,0,.049.049,0,0,1,.027.035.623.623,0,0,1,.005.114l-.017.917a.373.373,0,0,1-.013.131.136.136,0,0,1-.035.053.236.236,0,0,1-.092.043l-.055.015,0,.064,1.2-.31h.007l.074-.487-.064.017v.007" transform="translate(-360.592 -122.384)" fill="#eee"/>
    <path id="Path_82923" data-name="Path 82923" d="M370.589,149.35a.729.729,0,0,1-.17.313.612.612,0,0,1-.3.167l-.083.023a.141.141,0,0,1-.076,0c-.018,0-.022-.012-.029-.026a.427.427,0,0,1-.008-.131l.008-.385a.281.281,0,0,1,.134-.01.124.124,0,0,1,.078.073.378.378,0,0,1,.043.175l.005.017.061-.017.013-.758-.064.017v.009a.61.61,0,0,1-.079.259.27.27,0,0,1-.182.128l-.007,0,.007-.542.129-.037a.868.868,0,0,1,.211-.035.205.205,0,0,1,.14.055.366.366,0,0,1,.072.189l0,.014.057-.016.009-.439-1.157.3-.01,0v.064l.061-.017a.135.135,0,0,1,.094,0,.053.053,0,0,1,.03.034.622.622,0,0,1,0,.113l-.014.919a.362.362,0,0,1-.013.128.1.1,0,0,1-.035.053.207.207,0,0,1-.09.046l-.056.013v.067l1.2-.312.008,0,.071-.487-.059.015v.008" transform="translate(-364.133 -121.472)" fill="#eee"/>
    <path id="Path_82924" data-name="Path 82924" d="M376.376,131.805l.048.014.45-.953a.756.756,0,0,1,.118-.207.155.155,0,0,1,.119-.045l.013,0v-.061l-.477-.126,0,.067h.008a.38.38,0,0,1,.112.046.114.114,0,0,1,.044.046.2.2,0,0,1,.018.051.136.136,0,0,1-.012.056.938.938,0,0,1-.052.136l-.242.522-.3-.742c-.034-.085-.054-.131-.059-.151a.34.34,0,0,1-.008-.042c0-.019.007-.023.007-.023a.187.187,0,0,1,.122.007l.035.009v-.066l-.685-.177,0,.066.009,0a.212.212,0,0,1,.1.067,2.816,2.816,0,0,1,.118.263l.5,1.236" transform="translate(-368.216 -109.596)" fill="#eee"/>
    <path id="Path_82925" data-name="Path 82925" d="M379.811,132.458l.175-.388.2.485-.371-.1m-.4.329-.017,0v.064l.481.124v-.064l0,0a.435.435,0,0,1-.132-.056.115.115,0,0,1-.044-.09.294.294,0,0,1,.022-.1l.05-.11.47.12.072.188a.6.6,0,0,1,.031.084.082.082,0,0,1,.007.038.026.026,0,0,1-.013.029.081.081,0,0,1-.028,0,.31.31,0,0,1-.076-.012l-.045-.013.006.067.69.178-.005-.066h-.008a.225.225,0,0,1-.093-.061.921.921,0,0,1-.119-.231l-.524-1.272,0-.005-.034-.008-.465,1a.786.786,0,0,1-.107.173.158.158,0,0,1-.112.029" transform="translate(-370.661 -110.519)" fill="#eee"/>
    <path id="Path_82926" data-name="Path 82926" d="M383.814,132.352a.212.212,0,0,1,.091.041.489.489,0,0,1,.077.09l.028.042.024.982c.005.069-.007.115-.033.134s-.077.024-.147.006l-.017-.006,0,.067.509.131v-.063l-.043-.012a.234.234,0,0,1-.118-.072.221.221,0,0,1-.053-.168l-.024-.843.929,1.37h.007l.053.016-.03-1.182a.449.449,0,0,1,.011-.128c.013-.022.022-.037.038-.042a.377.377,0,0,1,.113,0h.013v-.063l-.481-.123,0,.064.007,0a.246.246,0,0,1,.158.094.345.345,0,0,1,.039.174l.015.554-.674-1,0,0-.507-.131,0,.066.008,0" transform="translate(-373.533 -110.972)" fill="#eee"/>
    <path id="Path_82927" data-name="Path 82927" d="M376.268,137.825a1.035,1.035,0,0,0,.22.2,1,1,0,0,0,.306.132,1.335,1.335,0,0,0,.279.043h.034a1.024,1.024,0,0,0,.226-.025l.009,0-.008-.3a.253.253,0,0,1,.005-.09.048.048,0,0,1,.029-.033.231.231,0,0,1,.094,0l.018,0V137.7l-.649-.169v.066l.041.012a.184.184,0,0,1,.077.038.123.123,0,0,1,.038.048.338.338,0,0,1,.013.1l.007.28a.455.455,0,0,1-.084,0,.413.413,0,0,1-.092-.01.531.531,0,0,1-.23-.128.571.571,0,0,1-.143-.254,1.557,1.557,0,0,1-.052-.36,1.106,1.106,0,0,1,.034-.309.323.323,0,0,1,.123-.2.261.261,0,0,1,.227-.026.594.594,0,0,1,.271.174.866.866,0,0,1,.2.352v0l.061.016-.013-.51v-.009l-.056-.013-.005.013c-.013.039-.025.054-.036.058a.033.033,0,0,1-.039.008,1.094,1.094,0,0,1-.1-.066,1.422,1.422,0,0,0-.14-.084,1.163,1.163,0,0,0-.174-.06.55.55,0,0,0-.516.086.567.567,0,0,0-.2.491.9.9,0,0,0,.077.341.922.922,0,0,0,.151.236" transform="translate(-368.476 -113.814)" fill="#eee"/>
    <path id="Path_82928" data-name="Path 82928" d="M381.144,139.019l.054-.458-.059-.012,0,.01a.32.32,0,0,1-.153.224.4.4,0,0,1-.3.012l-.081-.021a.2.2,0,0,1-.083-.037.111.111,0,0,1-.032-.046.8.8,0,0,1-.011-.139l-.01-.378a.563.563,0,0,1,.131.059.33.33,0,0,1,.086.123.591.591,0,0,1,.056.2v.008l.064.017-.017-.746v-.009l-.064-.017v.016a.451.451,0,0,1-.066.219c-.036.043-.092.052-.174.03l-.018,0-.015-.543.124.034a1.009,1.009,0,0,1,.213.072.476.476,0,0,1,.146.131.737.737,0,0,1,.086.234v.009l.062.014-.01-.427v-.012l-1.171-.305,0,.067.054.013a.224.224,0,0,1,.1.053.128.128,0,0,1,.038.058c0,.012,0,.041.008.119l.021.916a.314.314,0,0,1,0,.123.047.047,0,0,1-.031.031.229.229,0,0,1-.089,0l-.062-.017,0,.063,1.194.31.01.005" transform="translate(-370.992 -114.227)" fill="#eee"/>
    <path id="Path_82929" data-name="Path 82929" d="M384.874,139.475l-.064-.017,0,.013a.816.816,0,0,1-.092.219.223.223,0,0,1-.119.086.381.381,0,0,1-.174-.007l-.112-.03a.451.451,0,0,1-.119-.039.149.149,0,0,1-.047-.049.533.533,0,0,1-.009-.138l-.026-.886a.605.605,0,0,1,0-.123.077.077,0,0,1,.033-.034.229.229,0,0,1,.091.005l.075.021v-.066l-.757-.195,0,.065.054.012a.293.293,0,0,1,.09.042.243.243,0,0,1,.043.054.69.69,0,0,1,.012.134l.023.916c0,.091,0,.114-.008.122s-.015.029-.03.033a.181.181,0,0,1-.09,0l-.058-.014v.064l1.223.315.017.005.04-.491v-.013" transform="translate(-373.371 -114.849)" fill="#eee"/>
    <path id="Path_82930" data-name="Path 82930" d="M387.267,139.256l.055.013a.247.247,0,0,1,.085.042.088.088,0,0,1,.042.053.406.406,0,0,1,.017.133l.024.921a.507.507,0,0,1-.006.118c-.012.02-.017.03-.034.036a.165.165,0,0,1-.088-.005l-.063-.017,0,.065.727.187.016,0v-.061l-.054-.016a.25.25,0,0,1-.088-.04.207.207,0,0,1-.043-.052.371.371,0,0,1-.016-.135l-.022-.916c0-.091,0-.115.008-.123a.047.047,0,0,1,.033-.032.131.131,0,0,1,.088.006l.06.014,0-.064-.738-.192v.066" transform="translate(-375.79 -115.471)" fill="#eee"/>
    <path id="Path_82931" data-name="Path 82931" d="M376.784,143.952a.551.551,0,0,1-.268-.184.853.853,0,0,1-.181-.379v-.007l-.063-.017.016.546v.009l.056.013,0-.009a.09.09,0,0,1,.041-.045.072.072,0,0,1,.046-.005.309.309,0,0,1,.073.039c.063.038.11.069.149.089a.915.915,0,0,0,.126.046.522.522,0,0,0,.145.02.348.348,0,0,0,.2-.059.306.306,0,0,0,.13-.279.491.491,0,0,0-.092-.27,1.339,1.339,0,0,0-.335-.317c-.115-.089-.188-.145-.223-.177a.492.492,0,0,1-.089-.116.183.183,0,0,1-.024-.081.128.128,0,0,1,.051-.1.181.181,0,0,1,.15-.012.461.461,0,0,1,.245.169.591.591,0,0,1,.151.31v.01l.068.016-.025-.487v-.008l-.054-.012v.012c-.008.047-.018.062-.024.066a.038.038,0,0,1-.031,0,.481.481,0,0,1-.089-.058,1.346,1.346,0,0,0-.117-.074.666.666,0,0,0-.131-.053.379.379,0,0,0-.317.04.292.292,0,0,0-.113.263.428.428,0,0,0,.048.2.771.771,0,0,0,.13.183,2.88,2.88,0,0,0,.276.23,1.3,1.3,0,0,1,.186.157.369.369,0,0,1,.08.1.279.279,0,0,1,.026.1.135.135,0,0,1-.056.117.194.194,0,0,1-.169.015" transform="translate(-368.622 -117.648)" fill="#eee"/>
    <path id="Path_82932" data-name="Path 82932" d="M380.372,143.544a.365.365,0,0,1,.1.115.64.64,0,0,1,.077.2l0,.006.056.016-.005-.394v-.009l-1.244-.321-.016,0,.012.394v.01l.063.014v-.013a.283.283,0,0,1,.1-.2.243.243,0,0,1,.189-.005l.088.025.029,1.065c0,.093,0,.116-.007.124a.059.059,0,0,1-.03.034.176.176,0,0,1-.09-.005l-.061-.017,0,.065.724.186.018,0,0-.064-.054-.013a.3.3,0,0,1-.091-.04.174.174,0,0,1-.039-.055.323.323,0,0,1-.015-.132l-.033-1.061.092.022a.466.466,0,0,1,.128.052" transform="translate(-370.631 -118.055)" fill="#eee"/>
    <path id="Path_82933" data-name="Path 82933" d="M383.814,145.509l-.373-.1.178-.388.2.486m.148.449a.187.187,0,0,1-.1-.006l-.041-.011,0,.063.67.175.018.005,0-.066-.008,0a.242.242,0,0,1-.094-.06.977.977,0,0,1-.117-.23l-.527-1.279-.037-.008-.465,1a.548.548,0,0,1-.107.176.152.152,0,0,1-.11.027l-.013,0v.064l.461.119.017.005v-.066H383.5a.5.5,0,0,1-.131-.056.119.119,0,0,1-.043-.09.286.286,0,0,1,.022-.1l.048-.111.472.12.071.189a.345.345,0,0,1,.033.084.079.079,0,0,1,.009.035c0,.02-.009.028-.016.029" transform="translate(-373.027 -118.956)" fill="#eee"/>
    <path id="Path_82934" data-name="Path 82934" d="M377.859,150.129a.165.165,0,0,1-.077-.038.189.189,0,0,1-.038-.05.736.736,0,0,1-.013-.136l-.024-.919c0-.089,0-.115.005-.121a.05.05,0,0,1,.029-.034.114.114,0,0,1,.076,0l.012.005h.009a.177.177,0,0,1,.089.05.144.144,0,0,1,.029.056c0,.017.005.055.008.116l.025.918a.416.416,0,0,1-.011.124c0,.016-.008.028-.025.031a.1.1,0,0,1-.075,0h-.01l-.009,0m2.268-.7,0-.06-.4-.107-.018,0v.065h.013a.3.3,0,0,1,.1.043.162.162,0,0,1,.041.041.212.212,0,0,1,.013.054.162.162,0,0,1-.008.058c-.005.025-.024.069-.048.139l-.212.523-.263-.728a1.13,1.13,0,0,1-.053-.152.1.1,0,0,1-.009-.042c-.005-.017.005-.022.01-.028a.168.168,0,0,1,.1.006l.036.012v-.066l-.585-.152-.01,0H378.8l-1-.261-.021-.005-.424-.11-.3.813-.355-.978v0l-.508-.132h-.015l0,.062.048.013a.214.214,0,0,1,.077.038.13.13,0,0,1,.037.049.507.507,0,0,1,.012.132l.026.884a.438.438,0,0,1,0,.1.155.155,0,0,1-.023.063.055.055,0,0,1-.043.024.15.15,0,0,1-.07,0l-.03-.007,0,.063.427.11.016,0v-.064h-.015a.25.25,0,0,1-.115-.06.2.2,0,0,1-.046-.092.771.771,0,0,1-.013-.129l-.023-.9.485,1.316.04.012.414-1.105.024.974a.36.36,0,0,1,0,.119.073.073,0,0,1-.029.036.15.15,0,0,1-.079,0l-.054-.016v.064l.575.148v0l1.078.277.04-.444v-.01l-.051-.015,0,.01a.384.384,0,0,1-.136.231.333.333,0,0,1-.261.017l-.077-.018a.16.16,0,0,1-.068-.032.139.139,0,0,1-.029-.044.5.5,0,0,1-.013-.14l-.005-.377a.453.453,0,0,1,.11.054.323.323,0,0,1,.077.118.775.775,0,0,1,.051.205l0,.009.055.014-.021-.749v-.009l-.055-.016v.016a.469.469,0,0,1-.058.222c-.032.044-.08.054-.152.033l-.017,0-.01-.542.107.028a.729.729,0,0,1,.185.068.385.385,0,0,1,.131.126.7.7,0,0,1,.079.234l0,.007.056.016-.01-.372a.132.132,0,0,1,.073.058,1.2,1.2,0,0,1,.106.26l.452,1.222.046.014.394-.97a1.091,1.091,0,0,1,.1-.209.121.121,0,0,1,.107-.046Z" transform="translate(-368.568 -121.437)" fill="#eee"/>
    <path id="Path_82935" data-name="Path 82935" d="M388,152.253a1.443,1.443,0,0,0-.3-.3,1.765,1.765,0,0,1-.2-.17.423.423,0,0,1-.086-.114.209.209,0,0,1-.021-.083.126.126,0,0,1,.048-.1.139.139,0,0,1,.13-.017.411.411,0,0,1,.221.161.7.7,0,0,1,.13.306l0,.009.059.016-.019-.486v-.008l-.051-.013,0,.013a.2.2,0,0,1-.016.063.032.032,0,0,1-.029.007.493.493,0,0,1-.081-.054.563.563,0,0,0-.107-.074.718.718,0,0,0-.115-.048.29.29,0,0,0-.276.053.309.309,0,0,0-.1.268.474.474,0,0,0,.043.191.755.755,0,0,0,.121.181,2.181,2.181,0,0,0,.242.223,1.834,1.834,0,0,1,.168.149.409.409,0,0,1,.068.1.228.228,0,0,1,.026.1.148.148,0,0,1-.051.121.171.171,0,0,1-.149.021.442.442,0,0,1-.237-.176.84.84,0,0,1-.161-.373V152.2l-.056-.016.015.546v.01l.055.013v-.009a.091.091,0,0,1,.036-.046.058.058,0,0,1,.04-.008.255.255,0,0,1,.067.037.639.639,0,0,0,.132.085.657.657,0,0,0,.11.043.5.5,0,0,0,.12.016.284.284,0,0,0,.19-.067.329.329,0,0,0,.116-.281.55.55,0,0,0-.081-.271" transform="translate(-375.737 -123.387)" fill="#eee"/>
  </g>
</svg>
