<svg xmlns="http://www.w3.org/2000/svg" width="50" height="50" viewBox="0 0 50 50"><defs><style>.a{fill:#fff;}.a,.b{stroke:#c22026;}.b,.d{fill:none;}.b{stroke-linecap:round;stroke-linejoin:round;}.c{stroke:none;}</style></defs><g transform="translate(-15 -453)"><g class="a" transform="translate(15 453)"><circle class="c" cx="25" cy="25" r="25"/><circle class="d" cx="25" cy="25" r="24.5"/></g><path class="b" d="M18.588,21.182H8.261m10.327,0a3.442,3.442,0,0,1,3.442,3.442H4.819a3.442,3.442,0,0,1,3.442-3.442m10.327,0V17.31A1.291,1.291,0,0,0,17.3,16.019h-1M8.261,21.182V17.31a1.291,1.291,0,0,1,1.291-1.291h1m5.745,0H10.553m5.745,0a8.553,8.553,0,0,1-1.127-3.64m-4.618,3.64a8.553,8.553,0,0,0,1.126-3.64m-6-7.851q-1.69.246-3.346.6a6.888,6.888,0,0,0,6.191,5.7M5.68,4.529v.3a7.729,7.729,0,0,0,2.846,6M5.68,4.529V2.79a55.826,55.826,0,0,1,15.49,0V4.529M8.525,10.83a7.717,7.717,0,0,0,3.153,1.549M21.17,4.529v.3a7.729,7.729,0,0,1-2.846,6m2.846-6.3q1.682.245,3.346.6a6.888,6.888,0,0,1-6.19,5.7m0,0a7.717,7.717,0,0,1-3.154,1.549m0,0a7.77,7.77,0,0,1-3.493,0" transform="translate(26.707 464.791)"/></g></svg>