<svg xmlns="http://www.w3.org/2000/svg" width="14.069" height="14.069" viewBox="0 0 14.069 14.069">
  <path id="TargetIcon" d="M52.552-900.411a6.873,6.873,0,0,1-2.743-.551,7.081,7.081,0,0,1-2.235-1.5,7.073,7.073,0,0,1-1.5-2.237,6.889,6.889,0,0,1-.551-2.745,6.874,6.874,0,0,1,.551-2.743,7.094,7.094,0,0,1,1.5-2.235,7.049,7.049,0,0,1,2.236-1.5,6.9,6.9,0,0,1,2.747-.551,6.892,6.892,0,0,1,2.746.551,7.046,7.046,0,0,1,2.235,1.5,7.092,7.092,0,0,1,1.5,2.237,6.89,6.89,0,0,1,.551,2.745,6.875,6.875,0,0,1-.551,2.743,7.08,7.08,0,0,1-1.5,2.234,7.074,7.074,0,0,1-2.237,1.5A6.888,6.888,0,0,1,52.552-900.411Zm0-1.57a5.274,5.274,0,0,0,3.872-1.591,5.269,5.269,0,0,0,1.593-3.874,5.271,5.271,0,0,0-1.593-3.872,5.271,5.271,0,0,0-3.872-1.593,5.271,5.271,0,0,0-3.872,1.593,5.271,5.271,0,0,0-1.593,3.872,5.271,5.271,0,0,0,1.593,3.872A5.271,5.271,0,0,0,52.554-901.981Zm0-1.158a4.156,4.156,0,0,1-3.051-1.256,4.151,4.151,0,0,1-1.257-3.05A4.156,4.156,0,0,1,49.5-910.5a4.151,4.151,0,0,1,3.05-1.257A4.156,4.156,0,0,1,55.6-910.5a4.151,4.151,0,0,1,1.257,3.05,4.156,4.156,0,0,1-1.256,3.051A4.151,4.151,0,0,1,52.556-903.139Zm0-1.579a2.63,2.63,0,0,0,1.927-.8,2.623,2.623,0,0,0,.8-1.925,2.63,2.63,0,0,0-.8-1.927,2.623,2.623,0,0,0-1.926-.8,2.625,2.625,0,0,0-1.927.8,2.63,2.63,0,0,0-.8,1.925,2.625,2.625,0,0,0,.8,1.925A2.625,2.625,0,0,0,52.553-904.718Zm0-1.149a1.523,1.523,0,0,1-1.115-.461,1.518,1.518,0,0,1-.463-1.116,1.522,1.522,0,0,1,.464-1.116,1.522,1.522,0,0,1,1.116-.464,1.517,1.517,0,0,1,1.115.464,1.524,1.524,0,0,1,.463,1.116,1.517,1.517,0,0,1-.464,1.115A1.524,1.524,0,0,1,52.553-905.867Z" transform="translate(-45.52 914.48)"/>
</svg>
