<svg id="Group_7376" data-name="Group 7376" xmlns="http://www.w3.org/2000/svg" width="24.92" height="15.739" viewBox="0 0 24.92 15.739">
  <g id="password" transform="translate(0 0)" opacity="0.73">
    <g id="Group_6549" data-name="Group 6549" transform="translate(0 0)">
      <path id="Path_83025" data-name="Path 83025" d="M34.623,89.312A1.312,1.312,0,1,1,33.312,88,1.312,1.312,0,0,1,34.623,89.312Z" transform="translate(-27.946 -81.442)" fill="#bc2321"/>
      <path id="Path_83026" data-name="Path 83026" d="M65.312,90.623A1.312,1.312,0,1,0,64,89.312,1.312,1.312,0,0,0,65.312,90.623Z" transform="translate(-55.892 -81.442)" fill="#bc2321"/>
      <path id="Path_83027" data-name="Path 83027" d="M98.623,89.312A1.312,1.312,0,1,1,97.312,88,1.312,1.312,0,0,1,98.623,89.312Z" transform="translate(-83.838 -81.442)" fill="#bc2321"/>
      <path id="Path_83028" data-name="Path 83028" d="M133.246,88H128v2.623h5.246Z" transform="translate(-112.261 -81.442)" fill="#bc2321"/>
      <path id="Path_83029" data-name="Path 83029" d="M2.077,48A2.4,2.4,0,0,0,0,50.623V61.116a2.4,2.4,0,0,0,2.077,2.623H22.843a2.4,2.4,0,0,0,2.077-2.623V50.623A2.4,2.4,0,0,0,22.843,48Zm20.767,2.623H2.077V61.116H22.843Z" transform="translate(0 -48)" fill="#bc2321" fill-rule="evenodd"/>
    </g>
  </g>
</svg>
